<svg viewBox="0 0 120 120" fill="none" xmlns="http://www.w3.org/2000/svg">
    <g clip-path="url(#clip0_8014_399)">
        <rect width="120" height="120" rx="60" fill="black" />
        <g clip-path="url(#clip1_8014_399)">
            <path
                d="M60.001 120.002C93.1386 120.002 120.002 93.1386 120.002 60.001C120.002 26.8633 93.1386 0 60.001 0C26.8633 0 0 26.8633 0 60.001C0 93.1386 26.8633 120.002 60.001 120.002Z"
                fill="black" />
            <path
                d="M88.9014 42.5626H0V29.5093H88.9014V42.5626ZM44.7188 66.5266H88.9014V53.4733H29.9517V68.4089C29.9517 85.11 36.9905 90.5002 53.3259 90.5002H88.9014V77.4392H53.0655C46.7734 77.4392 44.8605 76.0414 44.7341 69.6382C44.6996 67.9187 44.7188 66.5266 44.7188 66.5266Z"
                fill="#00B400" />
        </g>
    </g>
    <defs>
        <clipPath id="clip0_8014_399">
            <rect width="120" height="120" rx="60" fill="white" />
        </clipPath>
        <clipPath id="clip1_8014_399">
            <rect width="120" height="120" fill="white" />
        </clipPath>
    </defs>
</svg>