<svg viewBox="0 0 323 323" fill="none" xmlns="http://www.w3.org/2000/svg">
<path d="M161.334 0.0134531C133.136 -0.351791 105.348 6.72601 80.8213 20.5206C56.2941 34.3153 35.9108 54.33 21.7631 78.5112H238.417V113.201H6.60356C2.21995 128.286 0.00539914 143.909 0.0256954 159.607C-0.356405 180.808 3.52637 201.873 11.4471 221.57C19.3678 241.268 31.1678 259.204 46.1583 274.331C61.1488 289.459 79.0293 301.474 98.7558 309.676C118.482 317.878 139.66 322.103 161.051 322.103C182.443 322.103 203.62 317.878 223.347 309.676C243.074 301.474 260.954 289.459 275.945 274.331C290.935 259.204 302.735 241.268 310.656 221.57C318.576 201.873 322.459 180.808 322.077 159.607C322.374 138.589 318.421 117.725 310.451 98.246C302.481 78.7671 290.656 61.0678 275.674 46.1926C260.691 31.3173 242.855 19.5674 223.217 11.6361C203.579 3.70484 182.538 -0.247103 161.334 0.0134531V0.0134531ZM238.417 176.977H120.223C120.223 176.977 120.223 180.696 120.223 185.229C120.583 202.294 125.722 206.013 142.629 206.013H238.417V240.753H143.143C99.3083 240.753 80.3973 226.389 80.3973 181.969V142.237H238.417V176.977Z" fill="#2A2B3C"/>
</svg>
