<svg width="24" height="24" viewBox="0 0 24 24" fill="none" xmlns="http://www.w3.org/2000/svg">
<rect width="24" height="24" rx="12" fill="white"/>
<path fill-rule="evenodd" clip-rule="evenodd" d="M7.91842 6.58887H15.9824C16.3386 6.58968 16.68 6.73134 16.9322 6.98293C17.1844 7.23451 17.3268 7.57562 17.3284 7.93183C17.3284 11.5079 17.3471 15.2855 17.3471 18.691H15.5265V17.7947H8.41466V18.6848H6.59407C6.59407 15.2731 6.57546 11.5079 6.57546 7.92562C6.57791 7.57078 6.72039 7.23126 6.97189 6.98092C7.22339 6.73058 7.56357 6.58968 7.91842 6.58887ZM18.0077 10.6208H19.2979V13.7596H18.0077V10.6208ZM4.64941 10.6208H5.93965V13.7596H4.64941V10.6208ZM8.37124 15.1057C8.54839 15.1063 8.72138 15.1594 8.86838 15.2582C9.01537 15.3571 9.12977 15.4973 9.19714 15.6611C9.26451 15.825 9.28181 16.0051 9.24688 16.1788C9.21194 16.3524 9.12633 16.5118 9.00085 16.6369C8.87538 16.7619 8.71566 16.847 8.54187 16.8813C8.36808 16.9157 8.18802 16.8977 8.02442 16.8298C7.86081 16.7619 7.721 16.647 7.62265 16.4996C7.52429 16.3523 7.4718 16.1791 7.4718 16.002C7.4718 15.884 7.49509 15.7672 7.54033 15.6583C7.58556 15.5493 7.65187 15.4504 7.73543 15.3671C7.81899 15.2838 7.91817 15.2179 8.02728 15.173C8.13638 15.1281 8.25327 15.1052 8.37124 15.1057ZM7.91842 7.85739H15.9824V9.35233H7.91842V7.85739ZM7.91842 10.6208H15.9824V14.2093H7.91842V10.6208ZM15.5389 15.1057C15.7161 15.1057 15.8894 15.1582 16.0368 15.2567C16.1842 15.3552 16.2991 15.4952 16.367 15.659C16.4348 15.8228 16.4526 16.003 16.418 16.1769C16.3834 16.3507 16.298 16.5104 16.1727 16.6358C16.0473 16.7612 15.8876 16.8465 15.7137 16.8811C15.5399 16.9157 15.3596 16.8979 15.1958 16.8301C15.0321 16.7623 14.8921 16.6474 14.7936 16.5C14.6951 16.3526 14.6425 16.1793 14.6425 16.002C14.6425 15.7643 14.737 15.5363 14.9051 15.3682C15.0732 15.2001 15.3011 15.1057 15.5389 15.1057Z" fill="#00B400"/>
</svg>
