<svg width="33" height="32" viewBox="0 0 33 32" fill="none" xmlns="http://www.w3.org/2000/svg">
<path d="M18.6727 14.8921C19.3396 12.3844 18.2858 9.97674 15.4246 10.4303C16.7976 12.8975 17.3423 15.7403 16.9786 18.5403C16.9507 18.7483 16.878 18.9478 16.7657 19.1251C16.6534 19.3024 16.504 19.4532 16.3278 19.5673C16.1517 19.6813 15.9529 19.7559 15.7452 19.7859C15.5374 19.8158 15.3257 19.8005 15.1245 19.7409C14.2772 19.4529 13.372 19.3784 12.489 19.5238C11.6061 19.6692 10.7726 20.0301 10.0624 20.5745C8.34831 22.0018 7.84142 24.4495 7.88811 26.5771L5.0069 26.6371C4.94688 23.5825 5.78056 20.3878 8.20825 18.3669C9.04025 17.6888 10.0012 17.1867 11.033 16.8909C12.0648 16.5951 13.1459 16.5119 14.2108 16.6462C14.1459 14.4287 13.4214 12.2808 12.1299 10.477C11.9026 10.1758 11.8025 9.79753 11.8512 9.42339C11.8998 9.04926 12.0933 8.70913 12.39 8.47611C15.2045 6.47527 19.8732 7.4957 21.2938 10.9105C21.8698 12.4037 21.9332 14.046 21.4738 15.5791L18.686 14.8521L18.6727 14.8921ZM10.4559 2.1001C10.9831 1.95432 11.5417 1.96803 12.0611 2.1395C12.5806 2.31098 13.0376 2.63251 13.3744 3.06352C13.7112 3.49453 13.9128 4.01569 13.9536 4.56117C13.9944 5.10665 13.8727 5.652 13.6039 6.12837C13.335 6.60473 12.931 6.99074 12.4429 7.23765C11.9547 7.48456 11.4044 7.5813 10.8614 7.51566C10.3183 7.45002 9.80687 7.22493 9.39164 6.86883C8.97642 6.51273 8.67602 6.04158 8.52838 5.51487C8.33165 4.80645 8.42414 4.04892 8.78554 3.40865C9.14694 2.76839 9.7477 2.29775 10.4559 2.1001ZM24.0416 13.7383C25.196 14.499 26.1426 15.5354 26.7957 16.7538C27.4489 17.9723 27.788 19.3343 27.7824 20.7168C27.7769 22.0992 27.4267 23.4585 26.7638 24.6716C26.1008 25.8847 25.1458 26.9135 23.9853 27.6648C22.8248 28.416 21.4953 28.8662 20.1171 28.9745C18.7389 29.0827 17.3554 28.8457 16.0918 28.2849C14.8282 27.7241 13.7243 26.8571 12.88 25.7624C12.0357 24.6677 11.4776 23.3798 11.2562 22.0151L14.0974 21.5283C14.2373 22.4242 14.5992 23.2709 15.15 23.9913C15.7008 24.7116 16.4231 25.2827 17.251 25.6525C18.079 26.0224 18.9863 26.1792 19.8904 26.1087C20.7945 26.0382 21.6665 25.7427 22.4272 25.249C23.1878 24.7553 23.8129 24.0792 24.2454 23.2822C24.6779 22.4852 24.9042 21.5926 24.9035 20.6858C24.9029 19.779 24.6754 18.8867 24.2418 18.0903C23.8082 17.2939 23.1822 16.6186 22.4209 16.126L24.0416 13.7383Z" fill="#00B400"/>
</svg>
