<svg width="32" height="32" viewBox="0 0 32 32" fill="none" xmlns="http://www.w3.org/2000/svg">
<path d="M18.6687 14.8921C19.3357 12.3844 18.2819 9.97674 15.4207 10.4303C16.7937 12.8975 17.3384 15.7403 16.9747 18.5403C16.9468 18.7483 16.8741 18.9478 16.7618 19.1251C16.6495 19.3024 16.5001 19.4532 16.3239 19.5673C16.1477 19.6813 15.949 19.7559 15.7413 19.7859C15.5335 19.8158 15.3218 19.8005 15.1206 19.7409C14.2733 19.4529 13.3681 19.3784 12.4851 19.5238C11.6021 19.6692 10.7687 20.0301 10.0585 20.5745C8.3444 22.0018 7.83752 24.4495 7.8842 26.5771L5.003 26.6371C4.94297 23.5825 5.77666 20.3878 8.20435 18.3669C9.03634 17.6888 9.99733 17.1867 11.0291 16.8909C12.0609 16.5951 13.142 16.5119 14.2069 16.6462C14.142 14.4287 13.4175 12.2808 12.126 10.477C11.8987 10.1758 11.7986 9.79753 11.8473 9.42339C11.8959 9.04926 12.0894 8.70913 12.3861 8.47611C15.2006 6.47527 19.8692 7.4957 21.2898 10.9105C21.8659 12.4037 21.9293 14.046 21.4699 15.5791L18.6821 14.8521L18.6687 14.8921ZM10.452 2.1001C10.9792 1.95432 11.5378 1.96803 12.0572 2.1395C12.5767 2.31098 13.0336 2.63251 13.3705 3.06352C13.7073 3.49453 13.9088 4.01568 13.9497 4.56117C13.9905 5.10665 13.8688 5.652 13.5999 6.12837C13.3311 6.60473 12.9271 6.99074 12.4389 7.23765C11.9508 7.48456 11.4005 7.5813 10.8574 7.51566C10.3144 7.45002 9.80296 7.22493 9.38774 6.86883C8.97251 6.51273 8.67212 6.04158 8.52448 5.51487C8.32775 4.80645 8.42024 4.04892 8.78164 3.40865C9.14304 2.76839 9.7438 2.29775 10.452 2.1001V2.1001ZM24.0377 13.7383C25.1921 14.499 26.1387 15.5354 26.7918 16.7538C27.445 17.9723 27.7841 19.3343 27.7785 20.7168C27.773 22.0992 27.4228 23.4585 26.7598 24.6716C26.0969 25.8847 25.1419 26.9135 23.9814 27.6648C22.8209 28.416 21.4914 28.8662 20.1132 28.9745C18.7349 29.0827 17.3515 28.8457 16.0879 28.2849C14.8243 27.7241 13.7204 26.8571 12.8761 25.7624C12.0318 24.6677 11.4737 23.3798 11.2523 22.0151L14.0935 21.5283C14.2334 22.4242 14.5953 23.2709 15.1461 23.9913C15.6969 24.7116 16.4192 25.2827 17.2471 25.6525C18.0751 26.0224 18.9824 26.1792 19.8865 26.1087C20.7906 26.0382 21.6626 25.7427 22.4233 25.249C23.1839 24.7553 23.809 24.0792 24.2415 23.2822C24.674 22.4852 24.9002 21.5926 24.8996 20.6858C24.899 19.779 24.6715 18.8867 24.2379 18.0903C23.8043 17.2939 23.1783 16.6186 22.417 16.126L24.0377 13.7383V13.7383Z" fill="#FF640F"/>
</svg>
