<svg width="24" height="24" viewBox="0 0 24 24" fill="none" xmlns="http://www.w3.org/2000/svg">
<rect width="24" height="24" rx="12" fill="white"/>
<path fill-rule="evenodd" clip-rule="evenodd" d="M7.95254 6.58845H16.0165C16.1933 6.58804 16.3684 6.62246 16.5319 6.68972C16.6953 6.75699 16.8439 6.8558 16.9692 6.98051C17.0945 7.10521 17.194 7.25338 17.262 7.41653C17.33 7.57969 17.3653 7.75464 17.3657 7.93141V13.7592L16.919 16.0016C16.7733 16.7273 16.3142 17.3445 15.573 17.3445H8.40226C7.661 17.3445 7.20197 16.7242 7.0562 16.0016L6.60958 13.7592V7.93141C6.6104 7.57549 6.75215 7.23438 7.00383 6.9827C7.25551 6.73102 7.59661 6.58927 7.95254 6.58845ZM18.0232 10.6204H19.3134V13.7592H18.0232V10.6204ZM4.64941 10.6204H5.93965V13.7592H4.64941V10.6204ZM11.5999 19.6149L13.5012 17.7136L14.4502 18.6627L12.5614 20.5453L11.6123 19.6149H11.5999ZM8.22858 19.6149L10.1329 17.7136L11.082 18.6627L9.19314 20.5453L8.24097 19.6149H8.22858ZM8.38985 3.46211H15.5606V4.72754H13.1693L11.5596 6.33723L10.6074 5.38816L11.2805 4.72754H8.40226V3.44971L8.38985 3.46211ZM14.23 14.6524C14.4072 14.6524 14.5803 14.7049 14.7277 14.8033C14.875 14.9016 14.9899 15.0414 15.0578 15.205C15.1258 15.3686 15.1437 15.5487 15.1094 15.7225C15.075 15.8963 14.99 16.056 14.8649 16.1815C14.7399 16.3069 14.5805 16.3926 14.4068 16.4275C14.2331 16.4624 14.053 16.4451 13.8891 16.3778C13.7253 16.3104 13.5851 16.196 13.4862 16.049C13.3874 15.902 13.3343 15.729 13.3337 15.5519C13.3345 15.3144 13.4292 15.0869 13.5971 14.919C13.765 14.751 13.9926 14.6563 14.23 14.6555V14.6524ZM9.74522 14.6524C9.92249 14.6524 10.0958 14.705 10.2432 14.8035C10.3906 14.902 10.5055 15.042 10.5733 15.2057C10.6412 15.3695 10.6589 15.5497 10.6243 15.7236C10.5897 15.8975 10.5044 16.0572 10.379 16.1826C10.2537 16.3079 10.094 16.3933 9.92008 16.4279C9.74621 16.4625 9.56599 16.4447 9.4022 16.3769C9.23842 16.309 9.09842 16.1941 8.99993 16.0467C8.90144 15.8993 8.84888 15.726 8.84888 15.5488C8.84888 15.311 8.94332 15.083 9.11141 14.9149C9.27951 14.7468 9.50749 14.6524 9.74522 14.6524ZM7.95254 7.89109H16.0165V9.34881H7.95254V7.89109ZM7.95254 10.6639H16.0165V13.7654H7.95254V10.6639Z" fill="#FF640A"/>
</svg>
