<svg width="16" height="16" viewBox="0 0 16 16" fill="none" xmlns="http://www.w3.org/2000/svg">
<path fill-rule="evenodd" clip-rule="evenodd" d="M4.5651 3.74062H11.2851C11.4324 3.74028 11.5783 3.76896 11.7145 3.82501C11.8508 3.88107 11.9746 3.96341 12.079 4.06734C12.1834 4.17126 12.2663 4.29472 12.323 4.43069C12.3797 4.56665 12.409 4.71245 12.4094 4.85975V9.71622L12.0372 11.5849C11.9157 12.1897 11.5332 12.704 10.9155 12.704H4.93987C4.32215 12.704 3.93963 12.1871 3.81815 11.5849L3.44597 9.71622V4.85975C3.44665 4.56315 3.56478 4.27889 3.77451 4.06916C3.98424 3.85943 4.2685 3.7413 4.5651 3.74062V3.74062ZM12.9573 7.1006H14.0325V9.71622H12.9573V7.1006ZM1.8125 7.1006H2.8877V9.71622H1.8125V7.1006ZM7.6046 14.596L9.18896 13.0116L9.97985 13.8025L8.40583 15.3713L7.61494 14.596H7.6046ZM4.79513 14.596L6.38208 13.0116L7.17296 13.8025L5.59894 15.3713L4.80547 14.596H4.79513ZM4.92953 1.13534H10.9051V2.18986H8.91241L7.571 3.53127L6.77752 2.74038L7.33838 2.18986H4.93987V1.125L4.92953 1.13534ZM9.79634 10.4606C9.94397 10.4606 10.0883 10.5043 10.2111 10.5863C10.3338 10.6683 10.4296 10.7848 10.4862 10.9211C10.5428 11.0574 10.5577 11.2075 10.5291 11.3523C10.5005 11.4971 10.4296 11.6302 10.3254 11.7348C10.2212 11.8394 10.0884 11.9107 9.94364 11.9398C9.79892 11.9689 9.64881 11.9545 9.51228 11.8984C9.37575 11.8422 9.25892 11.7469 9.17653 11.6244C9.09414 11.5019 9.0499 11.3577 9.04939 11.2101C9.05007 11.0122 9.12898 10.8226 9.26892 10.6827C9.40885 10.5428 9.59845 10.4639 9.79634 10.4632V10.4606ZM6.059 10.4606C6.20673 10.4606 6.35115 10.5044 6.47398 10.5865C6.59682 10.6685 6.69256 10.7852 6.74909 10.9217C6.80563 11.0582 6.82042 11.2084 6.7916 11.3533C6.76278 11.4982 6.69164 11.6313 6.58718 11.7357C6.48271 11.8402 6.34962 11.9113 6.20472 11.9401C6.05983 11.969 5.90964 11.9542 5.77316 11.8976C5.63667 11.8411 5.52001 11.7454 5.43793 11.6225C5.35586 11.4997 5.31206 11.3553 5.31206 11.2075C5.31206 11.0094 5.39075 10.8194 5.53083 10.6794C5.67091 10.5393 5.8609 10.4606 6.059 10.4606V10.4606ZM4.5651 4.82615H11.2851V6.04092H4.5651V4.82615ZM4.5651 7.13679H11.2851V9.72139H4.5651V7.13679Z" fill="white"/>
</svg>
