<svg width="543" height="632" viewBox="0 0 543 632" fill="none" xmlns="http://www.w3.org/2000/svg">
<path fill-rule="evenodd" clip-rule="evenodd" d="M122.382 116.415H420.265C426.794 116.4 433.263 117.671 439.302 120.156C445.34 122.641 450.83 126.291 455.458 130.898C460.086 135.504 463.761 140.977 466.274 147.004C468.787 153.031 470.088 159.494 470.103 166.024V381.301L453.605 464.135C448.22 490.945 431.264 513.744 403.881 513.744H138.995C111.613 513.744 94.6566 490.83 89.2718 464.135L72.7736 381.301V166.024C72.8039 152.876 78.0403 140.275 87.3372 130.979C96.6341 121.682 109.235 116.445 122.382 116.415ZM494.392 265.356H542.053V381.301H494.392V265.356ZM0.365234 265.356H48.0265V381.301H0.365234V265.356ZM257.117 597.609L327.348 527.378L362.407 562.436L292.634 631.981L257.575 597.609H257.117ZM132.579 597.609L202.925 527.378L237.984 562.436L168.21 631.981L133.037 597.609H132.579ZM138.537 0.928262H403.423V47.6729H315.089L255.627 107.135L220.454 72.0763L245.316 47.6729H138.995V0.469971L138.537 0.928262ZM354.273 414.297C360.816 414.297 367.213 416.236 372.656 419.87C378.098 423.503 382.342 428.667 384.852 434.711C387.361 440.754 388.023 447.406 386.755 453.826C385.487 460.245 382.345 466.145 377.725 470.78C373.106 475.416 367.217 478.578 360.802 479.869C354.387 481.159 347.733 480.52 341.681 478.031C335.628 475.543 330.449 471.317 326.797 465.887C323.145 460.457 321.184 454.066 321.162 447.523C321.192 438.75 324.69 430.346 330.893 424.143C337.096 417.94 345.5 414.442 354.273 414.412V414.297ZM188.604 414.297C195.153 414.297 201.554 416.239 206.999 419.878C212.444 423.516 216.688 428.687 219.194 434.737C221.7 440.787 222.356 447.445 221.078 453.868C219.801 460.291 216.647 466.19 212.017 470.821C207.386 475.452 201.486 478.605 195.063 479.883C188.641 481.16 181.983 480.505 175.933 477.998C169.883 475.492 164.711 471.248 161.073 465.803C157.435 460.358 155.493 453.957 155.493 447.408C155.493 438.627 158.982 430.205 165.191 423.995C171.401 417.786 179.822 414.297 188.604 414.297ZM122.382 164.534H420.265V218.382H122.382V164.534ZM122.382 266.96H420.265V381.53H122.382V266.96Z" fill="#EC6608"/>
</svg>
