<svg width="17" height="18" viewBox="0 0 17 18" fill="none" xmlns="http://www.w3.org/2000/svg">
<path fill-rule="evenodd" clip-rule="evenodd" d="M4.44024 3.99392H12.1392C12.4792 3.99491 12.8049 4.1304 13.0453 4.37078C13.2857 4.61117 13.4212 4.93691 13.4222 5.27687V10.8371L12.9944 12.9759C12.8561 13.6677 12.417 14.2588 11.7114 14.2588H4.86801C4.16249 14.2588 3.72339 13.6678 3.58498 12.9759L3.15728 10.8371V5.27688C3.15825 4.93692 3.29373 4.61117 3.53412 4.37078C3.77451 4.13039 4.10028 3.9949 4.44024 3.99392ZM14.0477 7.84319H15.2786V10.8371H14.0477V7.84319ZM1.30078 7.84319H2.53188V10.8371H1.30078V7.84319ZM7.93037 16.4125L9.74503 14.5979L10.6523 15.5051L8.83766 17.3197L7.93037 16.4125ZM4.71574 16.4125L6.53031 14.5979L7.43761 15.5051L5.62305 17.3197L4.71574 16.4125ZM4.8681 1H11.7114V2.21032H9.42876L7.89196 3.74712L6.98477 2.83992L7.61429 2.21032H4.8681V1ZM10.4283 11.6926C10.5974 11.6926 10.7628 11.7427 10.9035 11.8367C11.0442 11.9307 11.1538 12.0643 11.2186 12.2206C11.2833 12.3769 11.3003 12.5489 11.2673 12.7148C11.2343 12.8807 11.1528 13.0332 11.0332 13.1528C10.9136 13.2724 10.7611 13.3539 10.5952 13.3869C10.4293 13.4199 10.2573 13.403 10.101 13.3383C9.94468 13.2735 9.81108 13.1639 9.71708 13.0232C9.62308 12.8826 9.57291 12.7172 9.5729 12.548C9.57289 12.3211 9.663 12.1036 9.82341 11.9431C9.98382 11.7827 10.2014 11.6926 10.4283 11.6926ZM6.15112 11.6926C6.3203 11.6926 6.48568 11.7427 6.62635 11.8367C6.76701 11.9307 6.87664 12.0643 6.94138 12.2206C7.00612 12.3769 7.02306 12.5489 6.99006 12.7148C6.95705 12.8808 6.87558 13.0332 6.75596 13.1528C6.63633 13.2724 6.48391 13.3539 6.31799 13.3869C6.15206 13.4199 5.98007 13.403 5.82377 13.3383C5.66747 13.2735 5.53387 13.1639 5.43988 13.0232C5.34588 12.8826 5.29571 12.7172 5.2957 12.548C5.2957 12.3211 5.38583 12.1036 5.54625 11.9431C5.70667 11.7827 5.92425 11.6926 6.15112 11.6926ZM4.44024 5.24064H12.1392V6.63282H4.44024L4.44024 5.24064ZM4.44024 7.88599H12.1392V10.8371H4.44024L4.44024 7.88599Z" fill="white"/>
</svg>
