<svg width="9" height="11" viewBox="0 0 9 11" fill="none" xmlns="http://www.w3.org/2000/svg">
<path d="M5.38826 5.27362C5.64762 4.2984 5.23782 3.36208 4.12513 3.53845C4.65906 4.49793 4.8709 5.60347 4.72946 6.69237C4.7186 6.77325 4.69035 6.85083 4.64666 6.91977C4.60298 6.98871 4.54488 7.04737 4.47637 7.09173C4.40787 7.13609 4.33057 7.16509 4.24979 7.17674C4.16901 7.18839 4.08667 7.18242 4.00841 7.15923C3.67892 7.04726 3.32689 7.01826 2.98351 7.07481C2.64013 7.13136 2.316 7.27172 2.03981 7.48344C1.37323 8.03849 1.17611 8.99037 1.19427 9.81775L0.0737976 9.8411C0.0504544 8.65319 0.374666 7.41082 1.31877 6.62493C1.64232 6.36122 2.01604 6.16594 2.41729 6.05091C2.81853 5.93589 3.23896 5.90352 3.65308 5.95576C3.62784 5.09338 3.3461 4.25809 2.84385 3.5566C2.75546 3.43949 2.71655 3.29238 2.73546 3.14688C2.75438 3.00139 2.82961 2.86912 2.945 2.7785C4.03954 2.00039 5.85512 2.39723 6.40757 3.72519C6.6316 4.30587 6.65624 4.94456 6.4776 5.54077L5.39344 5.25806L5.38826 5.27362ZM2.19284 0.298938C2.39787 0.242246 2.6151 0.247578 2.81711 0.314262C3.01911 0.380945 3.19683 0.505985 3.32781 0.6736C3.4588 0.841215 3.53718 1.04389 3.55307 1.25602C3.56895 1.46815 3.52162 1.68023 3.41706 1.86549C3.31249 2.05074 3.15538 2.20085 2.96556 2.29687C2.77573 2.39289 2.56172 2.43052 2.35053 2.40499C2.13934 2.37946 1.94045 2.29193 1.77897 2.15344C1.6175 2.01496 1.50068 1.83173 1.44326 1.6269C1.36676 1.35141 1.40272 1.05681 1.54327 0.80782C1.68381 0.558827 1.91744 0.3758 2.19284 0.298938ZM7.47617 4.82491C7.92511 5.12072 8.29323 5.52377 8.54723 5.9976C8.80124 6.47145 8.93312 7.00113 8.93095 7.53875C8.92878 8.07638 8.79262 8.60498 8.53479 9.07675C8.27697 9.54852 7.9056 9.94858 7.45429 10.2407C7.00298 10.5329 6.48595 10.708 5.94998 10.7501C5.414 10.7922 4.87598 10.7 4.38458 10.4819C3.89318 10.2638 3.46389 9.92666 3.13556 9.50094C2.80722 9.07522 2.59018 8.57436 2.50408 8.04368L3.60899 7.85433C3.6634 8.20276 3.80412 8.53203 4.01833 8.81217C4.23254 9.0923 4.51342 9.3144 4.83541 9.45822C5.15739 9.60205 5.51025 9.66303 5.86183 9.63562C6.21341 9.60821 6.55254 9.49327 6.84835 9.30129C7.14415 9.1093 7.38723 8.84636 7.55543 8.53641C7.72363 8.22646 7.81162 7.87935 7.81137 7.52671C7.81113 7.17406 7.72267 6.82708 7.55404 6.51736C7.38541 6.20764 7.14197 5.94503 6.8459 5.75345L7.47617 4.82491Z" fill="#FF640A"/>
</svg>
