<svg width="17" height="18" viewBox="0 0 17 18" fill="none" xmlns="http://www.w3.org/2000/svg">
<path d="M7.52974 0.363281L5.70799 2.18504L6.61886 3.09591L8.44062 1.27416L7.52974 0.363281ZM10.7592 0.363281L8.9209 2.18504L9.84834 3.09591L11.6701 1.27416L10.7592 0.363281ZM15.2474 7.20314H14.0218V10.2008H15.2474V7.20314ZM2.49508 7.20314H1.26953V10.2008H2.49508V7.20314ZM12.1173 5.99416H4.39964V4.55332H12.1173V5.99416ZM12.1173 10.6479H4.39964V7.20314H12.1173V10.6479ZM3.10785 4.63612V14.9373H4.84679V14.0761H11.6701V14.9373H13.409V4.63612C13.409 3.92398 12.8294 3.34433 12.1173 3.34433H4.39964C3.6875 3.34433 3.10785 3.92398 3.10785 4.63612ZM3.96904 12.3703C3.96904 11.89 4.33339 11.5091 4.81367 11.5091C5.29395 11.5091 5.67486 11.89 5.67486 12.3703C5.67486 12.8506 5.29395 13.2149 4.81367 13.2149C4.33339 13.2149 3.96904 12.8506 3.96904 12.3703ZM10.842 12.3703C10.842 11.89 11.2064 11.5091 11.6867 11.5091C12.1669 11.5091 12.5478 11.89 12.5478 12.3703C12.5478 12.8506 12.1669 13.2149 11.6867 13.2149C11.2064 13.2149 10.842 12.8506 10.842 12.3703Z" fill="white"/>
</svg>
