<svg width="24" height="24" viewBox="0 0 24 24" fill="none" xmlns="http://www.w3.org/2000/svg">
<rect width="24" height="24" rx="12" fill="white"/>
<path fill-rule="evenodd" clip-rule="evenodd" d="M7.92135 6.59033H15.9853C16.3412 6.59115 16.6823 6.73291 16.934 6.98458C17.1857 7.23626 17.3275 7.57737 17.3283 7.93329C17.3283 11.5093 17.35 15.287 17.35 18.6925H15.5263V17.7961H8.42069V18.6863H6.597C6.597 15.2746 6.57839 11.5093 6.57839 7.92709C6.58084 7.57224 6.72331 7.23272 6.97481 6.98238C7.22631 6.73204 7.56649 6.59114 7.92135 6.59033ZM18.0106 10.6223H19.3008V13.7611H18.0106V10.6223ZM4.65234 10.6223H5.94257V13.7611H4.65234V10.6223ZM8.37417 15.1071C8.55145 15.1071 8.72475 15.1597 8.87215 15.2582C9.01955 15.3567 9.13444 15.4967 9.20228 15.6604C9.27013 15.8242 9.28788 16.0045 9.25329 16.1783C9.21871 16.3522 9.13334 16.5119 9.00798 16.6373C8.88262 16.7626 8.72291 16.848 8.54904 16.8826C8.37517 16.9172 8.19494 16.8994 8.03116 16.8316C7.86737 16.7637 7.72738 16.6488 7.62889 16.5014C7.5304 16.354 7.47783 16.1807 7.47783 16.0035C7.47783 15.7657 7.57226 15.5377 7.74036 15.3697C7.90846 15.2016 8.13645 15.1071 8.37417 15.1071ZM7.92445 7.85885H15.9884V9.35379H7.92445V7.85885ZM7.92445 10.6223H15.9884V14.2108H7.92445V10.6223ZM15.5449 15.1071C15.7222 15.1071 15.8955 15.1597 16.0429 15.2582C16.1903 15.3567 16.3052 15.4967 16.373 15.6604C16.4408 15.8242 16.4586 16.0045 16.424 16.1783C16.3894 16.3522 16.3041 16.5119 16.1787 16.6373C16.0533 16.7626 15.8936 16.848 15.7198 16.8826C15.5459 16.9172 15.3657 16.8994 15.2019 16.8316C15.0381 16.7637 14.8981 16.6488 14.7996 16.5014C14.7011 16.354 14.6486 16.1807 14.6486 16.0035C14.6486 15.7657 14.743 15.5377 14.9111 15.3697C15.0792 15.2016 15.3072 15.1071 15.5449 15.1071Z" fill="#00B4FF"/>
<path fill-rule="evenodd" clip-rule="evenodd" d="M9.27539 5.38045L11.1797 3.48853L12.1288 4.41898L10.2276 6.32022L9.27539 5.37115V5.38045ZM12.6467 5.38045L14.548 3.48853L15.497 4.41898L13.5958 6.32022L12.6343 5.38045H12.6467Z" fill="#00B4FF"/>
</svg>
