<svg width="16" height="16" viewBox="0 0 16 16" fill="none" xmlns="http://www.w3.org/2000/svg">
<path fill-rule="evenodd" clip-rule="evenodd" d="M4.53667 3.46289H11.2566C11.5532 3.46357 11.8375 3.5817 12.0472 3.79143C12.257 4.00116 12.3751 4.28542 12.3758 4.58202C12.3758 7.56207 12.3939 10.7101 12.3939 13.548H10.8741V12.8011H4.95279V13.5428H3.43304C3.43304 10.6998 3.41754 7.56207 3.41754 4.57685C3.41958 4.28115 3.53831 3.99821 3.74789 3.7896C3.95748 3.58098 4.24096 3.46356 4.53667 3.46289ZM12.9444 6.82288H14.0196V9.43849H12.9444V6.82288ZM1.8125 6.82288H2.88769V9.43849H1.8125V6.82288ZM4.91402 10.5602C5.06176 10.5602 5.20617 10.604 5.32901 10.6861C5.45184 10.7682 5.54758 10.8848 5.60412 11.0213C5.66065 11.1578 5.67544 11.308 5.64662 11.4529C5.6178 11.5978 5.54666 11.7309 5.4422 11.8353C5.33773 11.9398 5.20464 12.0109 5.05975 12.0398C4.91485 12.0686 4.76467 12.0538 4.62818 11.9973C4.49169 11.9407 4.37503 11.845 4.29296 11.7221C4.21088 11.5993 4.16707 11.4549 4.16707 11.3072C4.16707 11.1091 4.24577 10.9191 4.38585 10.779C4.52593 10.6389 4.71592 10.5602 4.91402 10.5602ZM4.53926 4.51999H11.2592V5.76577H4.53926V4.51999ZM4.53926 6.82288H11.2592V9.81326H4.53926V6.82288ZM10.8896 10.5602C11.0374 10.5602 11.1818 10.604 11.3046 10.6861C11.4274 10.7682 11.5232 10.8848 11.5797 11.0213C11.6363 11.1578 11.651 11.308 11.6222 11.4529C11.5934 11.5978 11.5223 11.7309 11.4178 11.8353C11.3133 11.9398 11.1802 12.0109 11.0353 12.0398C10.8905 12.0686 10.7403 12.0538 10.6038 11.9973C10.4673 11.9407 10.3506 11.845 10.2686 11.7221C10.1865 11.5993 10.1427 11.4549 10.1427 11.3072C10.1427 11.1091 10.2214 10.9191 10.3615 10.779C10.5015 10.6389 10.6915 10.5602 10.8896 10.5602Z" fill="white"/>
<path fill-rule="evenodd" clip-rule="evenodd" d="M5.66406 2.45454L7.25101 0.87793L8.0419 1.65331L6.45754 3.23767L5.66406 2.44678V2.45454ZM8.47352 2.45454L10.0579 0.87793L10.8488 1.65331L9.26442 3.23767L8.46319 2.45454H8.47352Z" fill="white"/>
</svg>
