<svg width="542" height="563" viewBox="0 0 542 563" fill="none" xmlns="http://www.w3.org/2000/svg">
<path fill-rule="evenodd" clip-rule="evenodd" d="M121.364 115.416H419.247C432.394 115.447 444.995 120.683 454.292 129.98C463.589 139.277 468.825 151.877 468.855 165.025C468.855 297.125 469.658 436.671 469.658 562.469H402.29V529.358H139.81V562.24H72.4428C72.4428 436.213 71.7554 297.124 71.7554 164.796C71.846 151.688 77.1089 139.146 86.3994 129.899C95.6898 120.651 108.256 115.446 121.364 115.416ZM494.061 264.357H541.722V380.302H494.061V264.357ZM0.607422 264.357H48.2685V380.302H0.607422V264.357ZM138.092 430.026C144.64 430.026 151.042 431.968 156.487 435.606C161.932 439.244 166.176 444.415 168.682 450.466C171.188 456.516 171.844 463.173 170.566 469.596C169.289 476.019 166.135 481.919 161.504 486.549C156.874 491.18 150.974 494.333 144.551 495.611C138.128 496.889 131.471 496.233 125.421 493.727C119.37 491.221 114.199 486.977 110.561 481.532C106.923 476.087 104.981 469.685 104.981 463.137C104.981 454.355 108.469 445.933 114.679 439.724C120.888 433.514 129.31 430.026 138.092 430.026ZM121.479 162.275H419.361V217.498H121.479V162.275ZM121.479 264.357H419.361V396.915H121.479V264.357ZM402.978 430.026C409.526 430.026 415.928 431.968 421.373 435.606C426.818 439.244 431.062 444.415 433.568 450.466C436.074 456.516 436.73 463.173 435.452 469.596C434.175 476.019 431.021 481.919 426.39 486.549C421.76 491.18 415.86 494.333 409.437 495.611C403.014 496.889 396.357 496.233 390.307 493.727C384.257 491.221 379.085 486.977 375.447 481.532C371.809 476.087 369.867 469.685 369.867 463.137C369.867 454.355 373.355 445.933 379.565 439.724C385.774 433.514 394.196 430.026 402.978 430.026Z" fill="#0BBBEF"/>
<path fill-rule="evenodd" clip-rule="evenodd" d="M171.32 70.734L241.666 0.846191L276.725 35.2172L206.493 105.449L171.32 70.3903V70.734ZM295.858 70.734L366.09 0.846191L401.148 35.2172L330.917 105.449L295.4 70.734H295.858Z" fill="#0BBBEF"/>
</svg>
