<svg width="58" height="60" viewBox="0 0 58 60" fill="none" xmlns="http://www.w3.org/2000/svg">
<path d="M30.9055 24.3347C31.6038 23.9377 32.169 23.3427 32.5296 22.6249C32.8903 21.9071 33.0303 21.0985 32.932 20.3012C32.8337 19.5039 32.5014 18.7536 31.9772 18.1448C31.453 17.5361 30.7602 17.0963 29.9863 16.8808C29.2124 16.6653 28.3921 16.6838 27.6287 16.934C26.8653 17.1842 26.1931 17.6549 25.6969 18.2867C25.2007 18.9184 24.9027 19.683 24.8404 20.4839C24.7782 21.2848 24.9546 22.0863 25.3473 22.7871C25.8803 23.7281 26.7647 24.4194 27.8065 24.7095C28.8484 24.9996 29.9628 24.8648 30.9055 24.3347ZM28.9332 42L18.3642 31.4499C16.2826 29.3672 14.8643 26.7148 14.2882 23.8271C13.7121 20.9394 14.0038 17.9458 15.1268 15.2238C16.2498 12.5017 18.1536 10.1731 20.5982 8.53164C23.0428 6.89015 25.9187 6.00927 28.8633 6.00007C31.8078 5.99088 34.6892 6.85379 37.144 8.47998C39.5988 10.1062 41.5172 12.4228 42.6571 15.1378C43.797 17.8528 44.1075 20.8445 43.5494 23.7357C42.9913 26.627 41.5896 29.2882 39.521 31.3838L28.9332 42ZM28.9332 36.2154L36.6334 28.5151C38.1406 26.9988 39.165 25.0701 39.5773 22.9722C39.9897 20.8744 39.7715 18.7015 38.9504 16.7275C38.1292 14.7535 36.7419 13.067 34.9634 11.8805C33.1848 10.6941 31.0948 10.0609 28.9568 10.0609C26.8188 10.0609 24.7287 10.6941 22.9502 11.8805C21.1716 13.067 19.7843 14.7535 18.9632 16.7275C18.142 18.7015 17.9238 20.8744 18.3362 22.9722C18.7485 25.0701 19.7729 26.9988 21.2801 28.5151L28.9332 36.2625V36.2154Z" fill="white"/>
<path fill-rule="evenodd" clip-rule="evenodd" d="M28.9332 36.2154L36.6334 28.5151C38.1406 26.9988 39.165 25.0701 39.5773 22.9722C39.9897 20.8744 39.7715 18.7015 38.9504 16.7275C38.1292 14.7535 36.7419 13.067 34.9634 11.8805C33.1848 10.6941 31.0948 10.0609 28.9568 10.0609C26.8188 10.0609 24.7287 10.6941 22.9502 11.8805C21.1716 13.067 19.7843 14.7535 18.9632 16.7275C18.142 18.7015 17.9238 20.8744 18.3362 22.9722C18.7485 25.0701 19.7729 26.9988 21.2801 28.5151L28.9332 36.2625V36.2154ZM32.5296 22.6249C32.169 23.3427 31.6038 23.9377 30.9055 24.3347C29.9628 24.8648 28.8484 24.9996 27.8065 24.7095C26.7647 24.4194 25.8803 23.7281 25.3473 22.7871C24.9546 22.0863 24.7782 21.2848 24.8404 20.4839C24.9027 19.683 25.2007 18.9184 25.6969 18.2867C26.1931 17.6549 26.8653 17.1842 27.6287 16.934C28.3921 16.6838 29.2124 16.6653 29.9863 16.8808C30.7602 17.0963 31.453 17.5361 31.9772 18.1448C32.5014 18.7536 32.8337 19.5039 32.932 20.3012C33.0303 21.0985 32.8903 21.9071 32.5296 22.6249Z" fill="#E63223"/>
<path d="M5.124 48.868C5.35733 48.6533 5.474 48.364 5.474 48C5.474 47.636 5.35733 47.3513 5.124 47.146C4.9 46.9313 4.578 46.824 4.158 46.824H2.982V49.19H4.158C4.578 49.19 4.9 49.0827 5.124 48.868ZM5.824 52.088C5.824 51.6493 5.67933 51.3133 5.39 51.08C5.10067 50.8467 4.69467 50.73 4.172 50.73H2.982V53.376H4.172C4.68533 53.376 5.08667 53.2593 5.376 53.026C5.67467 52.7927 5.824 52.48 5.824 52.088ZM4.256 55H1.19V45.2H4.256C5.18933 45.2 5.93133 45.3913 6.482 45.774C7.042 46.1473 7.322 46.74 7.322 47.552C7.322 48.1587 7.16333 48.6533 6.846 49.036C6.538 49.4093 6.14133 49.6613 5.656 49.792V49.848C7 50.1653 7.672 50.9773 7.672 52.284C7.672 53.2267 7.35933 53.9173 6.734 54.356C6.118 54.7853 5.292 55 4.256 55ZM17.4095 47.86V55H15.6735V47.86H17.4095ZM11.2215 50.408H12.2855C13.0602 50.408 13.6762 50.6133 14.1335 51.024C14.6002 51.4347 14.8335 51.9993 14.8335 52.718C14.8335 53.4273 14.6002 53.9873 14.1335 54.398C13.6762 54.7993 13.0602 55 12.2855 55H9.48555V47.86H11.2215V50.408ZM12.1455 51.85H11.2215V53.502H12.1455C12.4255 53.502 12.6495 53.4273 12.8175 53.278C12.9855 53.1193 13.0695 52.9187 13.0695 52.676C13.0695 52.4333 12.9855 52.2373 12.8175 52.088C12.6495 51.9293 12.4255 51.85 12.1455 51.85ZM27.8058 49.582C27.8058 50.4407 27.3998 50.982 26.5878 51.206V51.248C27.6051 51.4907 28.1138 52.074 28.1138 52.998C28.1138 53.6513 27.8478 54.174 27.3158 54.566C26.7838 54.9487 26.0278 55.14 25.0478 55.14C24.0584 55.14 23.2371 54.9953 22.5838 54.706L23.1298 53.32C23.6898 53.5347 24.3151 53.642 25.0058 53.642C25.4071 53.642 25.7291 53.572 25.9718 53.432C26.2238 53.292 26.3498 53.096 26.3498 52.844C26.3498 52.3027 25.8971 52.032 24.9918 52.032H24.0958V50.646H24.9778C25.6871 50.646 26.0418 50.3987 26.0418 49.904C26.0418 49.4467 25.7011 49.218 25.0198 49.218C24.3758 49.218 23.7691 49.316 23.1998 49.512L22.6538 48.126C23.3258 47.8553 24.1611 47.72 25.1598 47.72C25.9811 47.72 26.6251 47.8787 27.0918 48.196C27.5678 48.5133 27.8058 48.9753 27.8058 49.582ZM28.6699 53.502H29.6219C29.9673 52.886 30.2006 52.228 30.3219 51.528C30.4526 50.828 30.5179 49.8667 30.5179 48.644V47.86H35.4179V53.502H36.5519L36.2719 56.778H34.8159V55H30.4059V56.778H28.9499L28.6699 53.502ZM33.6819 49.358H32.1839C32.1839 51.2247 31.9459 52.606 31.4699 53.502H33.6819V49.358ZM40.883 53.642C41.471 53.642 42.0636 53.488 42.661 53.18L43.263 54.538C42.479 54.9393 41.6576 55.14 40.799 55.14C39.735 55.14 38.8763 54.8087 38.223 54.146C37.579 53.4833 37.257 52.578 37.257 51.43C37.257 50.2633 37.5463 49.3533 38.125 48.7C38.713 48.0467 39.5156 47.72 40.533 47.72C41.4663 47.72 42.2036 48 42.745 48.56C43.2863 49.1107 43.557 49.8853 43.557 50.884C43.557 51.2107 43.529 51.57 43.473 51.962H39.021C39.1143 52.494 39.329 52.9093 39.665 53.208C40.001 53.4973 40.407 53.642 40.883 53.642ZM39.049 50.632H41.975C41.975 50.212 41.849 49.8713 41.597 49.61C41.3543 49.3487 41.009 49.218 40.561 49.218C40.1783 49.218 39.8516 49.344 39.581 49.596C39.3103 49.8387 39.133 50.184 39.049 50.632ZM49.8435 53.362L50.4035 54.734C49.7875 55.0047 49.1108 55.14 48.3735 55.14C47.2535 55.14 46.3808 54.79 45.7555 54.09C45.1302 53.39 44.8175 52.5033 44.8175 51.43C44.8175 50.3473 45.1208 49.4607 45.7275 48.77C46.3342 48.07 47.1928 47.72 48.3035 47.72C49.0315 47.72 49.7082 47.8507 50.3335 48.112L49.7735 49.484C49.3535 49.3067 48.8915 49.218 48.3875 49.218C47.8648 49.218 47.4308 49.4233 47.0855 49.834C46.7495 50.2447 46.5815 50.7767 46.5815 51.43C46.5815 52.0833 46.7495 52.6153 47.0855 53.026C47.4215 53.4367 47.8508 53.642 48.3735 53.642C48.9055 53.642 49.3955 53.5487 49.8435 53.362ZM53.536 50.408H54.796C55.5707 50.408 56.1867 50.6133 56.644 51.024C57.1107 51.4347 57.344 51.9993 57.344 52.718C57.344 53.4273 57.1107 53.9873 56.644 54.398C56.1867 54.7993 55.5707 55 54.796 55H51.8V47.86H53.536V50.408ZM54.656 51.85H53.536V53.502H54.656C54.936 53.502 55.16 53.4273 55.328 53.278C55.496 53.1193 55.58 52.9187 55.58 52.676C55.58 52.4333 55.496 52.2373 55.328 52.088C55.16 51.9293 54.936 51.85 54.656 51.85Z" fill="#E63223" stroke="#fff" stroke-width="1.6"/>
<path d="M5.124 48.868C5.35733 48.6533 5.474 48.364 5.474 48C5.474 47.636 5.35733 47.3513 5.124 47.146C4.9 46.9313 4.578 46.824 4.158 46.824H2.982V49.19H4.158C4.578 49.19 4.9 49.0827 5.124 48.868ZM5.824 52.088C5.824 51.6493 5.67933 51.3133 5.39 51.08C5.10067 50.8467 4.69467 50.73 4.172 50.73H2.982V53.376H4.172C4.68533 53.376 5.08667 53.2593 5.376 53.026C5.67467 52.7927 5.824 52.48 5.824 52.088ZM4.256 55H1.19V45.2H4.256C5.18933 45.2 5.93133 45.3913 6.482 45.774C7.042 46.1473 7.322 46.74 7.322 47.552C7.322 48.1587 7.16333 48.6533 6.846 49.036C6.538 49.4093 6.14133 49.6613 5.656 49.792V49.848C7 50.1653 7.672 50.9773 7.672 52.284C7.672 53.2267 7.35933 53.9173 6.734 54.356C6.118 54.7853 5.292 55 4.256 55ZM17.4095 47.86V55H15.6735V47.86H17.4095ZM11.2215 50.408H12.2855C13.0602 50.408 13.6762 50.6133 14.1335 51.024C14.6002 51.4347 14.8335 51.9993 14.8335 52.718C14.8335 53.4273 14.6002 53.9873 14.1335 54.398C13.6762 54.7993 13.0602 55 12.2855 55H9.48555V47.86H11.2215V50.408ZM12.1455 51.85H11.2215V53.502H12.1455C12.4255 53.502 12.6495 53.4273 12.8175 53.278C12.9855 53.1193 13.0695 52.9187 13.0695 52.676C13.0695 52.4333 12.9855 52.2373 12.8175 52.088C12.6495 51.9293 12.4255 51.85 12.1455 51.85ZM27.8058 49.582C27.8058 50.4407 27.3998 50.982 26.5878 51.206V51.248C27.6051 51.4907 28.1138 52.074 28.1138 52.998C28.1138 53.6513 27.8478 54.174 27.3158 54.566C26.7838 54.9487 26.0278 55.14 25.0478 55.14C24.0584 55.14 23.2371 54.9953 22.5838 54.706L23.1298 53.32C23.6898 53.5347 24.3151 53.642 25.0058 53.642C25.4071 53.642 25.7291 53.572 25.9718 53.432C26.2238 53.292 26.3498 53.096 26.3498 52.844C26.3498 52.3027 25.8971 52.032 24.9918 52.032H24.0958V50.646H24.9778C25.6871 50.646 26.0418 50.3987 26.0418 49.904C26.0418 49.4467 25.7011 49.218 25.0198 49.218C24.3758 49.218 23.7691 49.316 23.1998 49.512L22.6538 48.126C23.3258 47.8553 24.1611 47.72 25.1598 47.72C25.9811 47.72 26.6251 47.8787 27.0918 48.196C27.5678 48.5133 27.8058 48.9753 27.8058 49.582ZM28.6699 53.502H29.6219C29.9673 52.886 30.2006 52.228 30.3219 51.528C30.4526 50.828 30.5179 49.8667 30.5179 48.644V47.86H35.4179V53.502H36.5519L36.2719 56.778H34.8159V55H30.4059V56.778H28.9499L28.6699 53.502ZM33.6819 49.358H32.1839C32.1839 51.2247 31.9459 52.606 31.4699 53.502H33.6819V49.358ZM40.883 53.642C41.471 53.642 42.0636 53.488 42.661 53.18L43.263 54.538C42.479 54.9393 41.6576 55.14 40.799 55.14C39.735 55.14 38.8763 54.8087 38.223 54.146C37.579 53.4833 37.257 52.578 37.257 51.43C37.257 50.2633 37.5463 49.3533 38.125 48.7C38.713 48.0467 39.5156 47.72 40.533 47.72C41.4663 47.72 42.2036 48 42.745 48.56C43.2863 49.1107 43.557 49.8853 43.557 50.884C43.557 51.2107 43.529 51.57 43.473 51.962H39.021C39.1143 52.494 39.329 52.9093 39.665 53.208C40.001 53.4973 40.407 53.642 40.883 53.642ZM39.049 50.632H41.975C41.975 50.212 41.849 49.8713 41.597 49.61C41.3543 49.3487 41.009 49.218 40.561 49.218C40.1783 49.218 39.8516 49.344 39.581 49.596C39.3103 49.8387 39.133 50.184 39.049 50.632ZM49.8435 53.362L50.4035 54.734C49.7875 55.0047 49.1108 55.14 48.3735 55.14C47.2535 55.14 46.3808 54.79 45.7555 54.09C45.1302 53.39 44.8175 52.5033 44.8175 51.43C44.8175 50.3473 45.1208 49.4607 45.7275 48.77C46.3342 48.07 47.1928 47.72 48.3035 47.72C49.0315 47.72 49.7082 47.8507 50.3335 48.112L49.7735 49.484C49.3535 49.3067 48.8915 49.218 48.3875 49.218C47.8648 49.218 47.4308 49.4233 47.0855 49.834C46.7495 50.2447 46.5815 50.7767 46.5815 51.43C46.5815 52.0833 46.7495 52.6153 47.0855 53.026C47.4215 53.4367 47.8508 53.642 48.3735 53.642C48.9055 53.642 49.3955 53.5487 49.8435 53.362ZM53.536 50.408H54.796C55.5707 50.408 56.1867 50.6133 56.644 51.024C57.1107 51.4347 57.344 51.9993 57.344 52.718C57.344 53.4273 57.1107 53.9873 56.644 54.398C56.1867 54.7993 55.5707 55 54.796 55H51.8V47.86H53.536V50.408ZM54.656 51.85H53.536V53.502H54.656C54.936 53.502 55.16 53.4273 55.328 53.278C55.496 53.1193 55.58 52.9187 55.58 52.676C55.58 52.4333 55.496 52.2373 55.328 52.088C55.16 51.9293 54.936 51.85 54.656 51.85Z" fill="#E63223" />
</svg>
