<svg width="36" height="36" viewBox="0 0 36 36" fill="none" xmlns="http://www.w3.org/2000/svg">
<rect x="1" y="1" width="34" height="34" rx="17" fill="#E63223"/>
<path d="M18.9527 18.1673C19.3019 17.9688 19.5845 17.6714 19.7648 17.3124C19.9451 16.9535 20.0151 16.5492 19.966 16.1506C19.9168 15.7519 19.7507 15.3768 19.4886 15.0724C19.2265 14.7681 18.8801 14.5481 18.4932 14.4404C18.1062 14.3327 17.696 14.3419 17.3143 14.467C16.9326 14.5921 16.5966 14.8275 16.3484 15.1433C16.1003 15.4592 15.9513 15.8415 15.9202 16.242C15.8891 16.6424 15.9773 17.0431 16.1736 17.3935C16.4402 17.864 16.8823 18.2097 17.4033 18.3547C17.9242 18.4998 18.4814 18.4324 18.9527 18.1673V18.1673ZM17.9666 27L12.6821 21.7249C11.6413 20.6836 10.9322 19.3574 10.6441 17.9136C10.356 16.4697 10.5019 14.9729 11.0634 13.6119C11.6249 12.2509 12.5768 11.0866 13.7991 10.2658C15.0214 9.44507 16.4593 9.00463 17.9316 9.00004C19.4039 8.99544 20.8446 9.42689 22.072 10.24C23.2994 11.0531 24.2586 12.2114 24.8285 13.5689C25.3985 14.9264 25.5537 16.4223 25.2747 17.8679C24.9956 19.3135 24.2948 20.6441 23.2605 21.6919L17.9666 27ZM17.9666 24.1077L21.8167 20.2575C22.5703 19.4994 23.0825 18.535 23.2887 17.4861C23.4948 16.4372 23.3857 15.3507 22.9752 14.3638C22.5646 13.3768 21.8709 12.5335 20.9817 11.9403C20.0924 11.347 19.0474 11.0305 17.9784 11.0305C16.9094 11.0305 15.8644 11.347 14.9751 11.9403C14.0858 12.5335 13.3922 13.3768 12.9816 14.3638C12.571 15.3507 12.4619 16.4372 12.6681 17.4861C12.8743 18.535 13.3865 19.4994 14.1401 20.2575L17.9666 24.1313V24.1077Z" fill="white"/>
<rect x="1" y="1" width="34" height="34" rx="17" stroke="white" stroke-width="2"/>
</svg>
