<svg width="58" height="54" viewBox="0 0 58 54" fill="none" xmlns="http://www.w3.org/2000/svg">
<rect x="12" y="1" width="34" height="34" rx="17" fill="#E63223"/>
<path d="M29.9527 18.1673C30.3019 17.9688 30.5845 17.6714 30.7648 17.3124C30.9451 16.9535 31.0151 16.5492 30.966 16.1506C30.9168 15.7519 30.7507 15.3768 30.4886 15.0724C30.2265 14.7681 29.8801 14.5481 29.4932 14.4404C29.1062 14.3327 28.696 14.3419 28.3143 14.467C27.9326 14.5921 27.5966 14.8275 27.3484 15.1433C27.1003 15.4592 26.9513 15.8415 26.9202 16.242C26.8891 16.6424 26.9773 17.0431 27.1736 17.3935C27.4402 17.864 27.8823 18.2097 28.4033 18.3547C28.9242 18.4998 29.4814 18.4324 29.9527 18.1673V18.1673ZM28.9666 27L23.6821 21.7249C22.6413 20.6836 21.9322 19.3574 21.6441 17.9136C21.356 16.4697 21.5019 14.9729 22.0634 13.6119C22.6249 12.2509 23.5768 11.0866 24.7991 10.2658C26.0214 9.44507 27.4593 9.00463 28.9316 9.00004C30.4039 8.99544 31.8446 9.42689 33.072 10.24C34.2994 11.0531 35.2586 12.2114 35.8285 13.5689C36.3985 14.9264 36.5537 16.4223 36.2747 17.8679C35.9956 19.3135 35.2948 20.6441 34.2605 21.6919L28.9666 27ZM28.9666 24.1077L32.8167 20.2575C33.5703 19.4994 34.0825 18.535 34.2887 17.4861C34.4948 16.4372 34.3857 15.3507 33.9752 14.3638C33.5646 13.3768 32.8709 12.5335 31.9817 11.9403C31.0924 11.347 30.0474 11.0305 28.9784 11.0305C27.9094 11.0305 26.8644 11.347 25.9751 11.9403C25.0858 12.5335 24.3922 13.3768 23.9816 14.3638C23.571 15.3507 23.4619 16.4372 23.6681 17.4861C23.8743 18.535 24.3865 19.4994 25.1401 20.2575L28.9666 24.1313V24.1077Z" fill="white"/>
<rect x="12" y="1" width="34" height="34" rx="17" stroke="white" stroke-width="2"/>
<path d="M5.124 42.868L4.44694 42.1321L4.43945 42.139L4.4321 42.146L5.124 42.868ZM5.124 41.146L4.4321 41.868L4.44743 41.8827L4.46337 41.8967L5.124 41.146ZM2.982 40.824V39.824H1.982V40.824H2.982ZM2.982 43.19H1.982V44.19H2.982V43.19ZM5.39 45.08L4.76225 45.8584L5.39 45.08ZM2.982 44.73V43.73H1.982V44.73H2.982ZM2.982 47.376H1.982V48.376H2.982V47.376ZM5.376 47.026L4.76036 46.238L4.75426 46.2427L4.74825 46.2476L5.376 47.026ZM1.19 49H0.19V50H1.19V49ZM1.19 39.2V38.2H0.19V39.2H1.19ZM6.482 39.774L5.91134 40.5952L5.91927 40.6007L5.9273 40.606L6.482 39.774ZM6.846 43.036L6.07624 42.3977L6.07463 42.3996L6.846 43.036ZM5.656 43.792L5.39603 42.8264L4.656 43.0256V43.792H5.656ZM5.656 43.848H4.656V44.6394L5.42621 44.8212L5.656 43.848ZM6.734 48.356L7.3058 49.1764L7.30828 49.1747L6.734 48.356ZM5.80106 43.6039C6.27149 43.1711 6.474 42.5981 6.474 42H4.474C4.474 42.0749 4.46217 42.1083 4.45906 42.116C4.45733 42.1203 4.45621 42.1219 4.45576 42.1226C4.45527 42.1233 4.45305 42.1265 4.44694 42.1321L5.80106 43.6039ZM6.474 42C6.474 41.4028 6.27127 40.8235 5.78463 40.3953L4.46337 41.8967C4.46622 41.8992 4.46545 41.899 4.46339 41.8961C4.46131 41.8932 4.46066 41.8914 4.46119 41.8927C4.46205 41.8948 4.474 41.9247 4.474 42H6.474ZM5.81591 40.424C5.3479 39.9755 4.74274 39.824 4.158 39.824V41.824C4.28501 41.824 4.36013 41.8405 4.39827 41.8532C4.43219 41.8645 4.43673 41.8724 4.4321 41.868L5.81591 40.424ZM4.158 39.824H2.982V41.824H4.158V39.824ZM1.982 40.824V43.19H3.982V40.824H1.982ZM2.982 44.19H4.158V42.19H2.982V44.19ZM4.158 44.19C4.74274 44.19 5.3479 44.0385 5.81591 43.59L4.4321 42.146C4.43673 42.1416 4.43219 42.1495 4.39827 42.1608C4.36013 42.1735 4.28501 42.19 4.158 42.19V44.19ZM6.824 46.088C6.824 45.4077 6.58604 44.7599 6.01775 44.3016L4.76225 45.8584C4.78242 45.8747 4.79007 45.8863 4.79702 45.9025C4.80598 45.9233 4.824 45.9781 4.824 46.088H6.824ZM6.01775 44.3016C5.49067 43.8765 4.83189 43.73 4.172 43.73V45.73C4.55744 45.73 4.71066 45.8168 4.76225 45.8584L6.01775 44.3016ZM4.172 43.73H2.982V45.73H4.172V43.73ZM1.982 44.73V47.376H3.982V44.73H1.982ZM2.982 48.376H4.172V46.376H2.982V48.376ZM4.172 48.376C4.82763 48.376 5.4795 48.2272 6.00375 47.8044L4.74825 46.2476C4.69383 46.2915 4.54304 46.376 4.172 46.376V48.376ZM5.99164 47.814C6.54242 47.3837 6.824 46.7755 6.824 46.088H4.824C4.824 46.1545 4.81206 46.1805 4.80964 46.1855C4.80772 46.1895 4.79942 46.2075 4.76036 46.238L5.99164 47.814ZM4.256 48H1.19V50H4.256V48ZM2.19 49V39.2H0.19V49H2.19ZM1.19 40.2H4.256V38.2H1.19V40.2ZM4.256 40.2C5.06282 40.2 5.58221 40.3665 5.91134 40.5952L7.05266 38.9528C6.28046 38.4162 5.31584 38.2 4.256 38.2V40.2ZM5.9273 40.606C6.14911 40.7539 6.322 40.9952 6.322 41.552H8.322C8.322 40.4848 7.93489 39.5407 7.0367 38.9419L5.9273 40.606ZM6.322 41.552C6.322 41.9788 6.21401 42.2315 6.07624 42.3977L7.61576 43.6743C8.11265 43.0751 8.322 42.3386 8.322 41.552H6.322ZM6.07463 42.3996C5.90409 42.6063 5.68907 42.7475 5.39603 42.8264L5.91597 44.7576C6.5936 44.5752 7.17191 44.2123 7.61737 43.6724L6.07463 42.3996ZM4.656 43.792V43.848H6.656V43.792H4.656ZM5.42621 44.8212C5.95202 44.9454 6.23811 45.1398 6.39761 45.3326C6.55226 45.5194 6.672 45.8059 6.672 46.284H8.672C8.672 45.4554 8.45574 44.6826 7.93839 44.0574C7.42589 43.4382 6.70398 43.0679 5.88579 42.8748L5.42621 44.8212ZM6.672 46.284C6.672 46.9868 6.45477 47.3304 6.15972 47.5373L7.30828 49.1747C8.2639 48.5043 8.672 47.4666 8.672 46.284H6.672ZM6.16221 47.5356C5.76678 47.8112 5.16307 48 4.256 48V50C5.42093 50 6.46922 49.7595 7.30579 49.1764L6.16221 47.5356ZM17.4095 41.86H18.4095V40.86H17.4095V41.86ZM17.4095 49V50H18.4095V49H17.4095ZM15.6735 49H14.6735V50H15.6735V49ZM15.6735 41.86V40.86H14.6735V41.86H15.6735ZM11.2215 44.408H10.2215V45.408H11.2215V44.408ZM14.1335 45.024L13.4654 45.7681L13.4729 45.7747L14.1335 45.024ZM14.1335 48.398L14.7931 49.1496L14.7942 49.1487L14.1335 48.398ZM9.48555 49H8.48555V50H9.48555V49ZM9.48555 41.86V40.86H8.48555V41.86H9.48555ZM11.2215 41.86H12.2215V40.86H11.2215V41.86ZM11.2215 45.85V44.85H10.2215V45.85H11.2215ZM11.2215 47.502H10.2215V48.502H11.2215V47.502ZM12.8175 47.278L13.4819 48.0254L13.4932 48.0154L13.5042 48.005L12.8175 47.278ZM12.8175 46.088L12.1309 46.815L12.1419 46.8254L12.1532 46.8354L12.8175 46.088ZM16.4095 41.86V49H18.4095V41.86H16.4095ZM17.4095 48H15.6735V50H17.4095V48ZM16.6735 49V41.86H14.6735V49H16.6735ZM15.6735 42.86H17.4095V40.86H15.6735V42.86ZM11.2215 45.408H12.2855V43.408H11.2215V45.408ZM12.2855 45.408C12.8801 45.408 13.2357 45.5618 13.4654 45.768L14.8017 44.28C14.1167 43.6649 13.2403 43.408 12.2855 43.408V45.408ZM13.4729 45.7747C13.6892 45.9651 13.8335 46.2371 13.8335 46.718H15.8335C15.8335 45.7616 15.5112 44.9043 14.7942 44.2733L13.4729 45.7747ZM13.8335 46.718C13.8335 47.185 13.6922 47.4543 13.4729 47.6473L14.7942 49.1487C15.5082 48.5204 15.8335 47.6697 15.8335 46.718H13.8335ZM13.474 47.6464C13.2446 47.8477 12.8858 48 12.2855 48V50C13.2347 50 14.1079 49.751 14.7931 49.1496L13.474 47.6464ZM12.2855 48H9.48555V50H12.2855V48ZM10.4855 49V41.86H8.48555V49H10.4855ZM9.48555 42.86H11.2215V40.86H9.48555V42.86ZM10.2215 41.86V44.408H12.2215V41.86H10.2215ZM12.1455 44.85H11.2215V46.85H12.1455V44.85ZM10.2215 45.85V47.502H12.2215V45.85H10.2215ZM11.2215 48.502H12.1455V46.502H11.2215V48.502ZM12.1455 48.502C12.6079 48.502 13.089 48.3747 13.4819 48.0254L12.1532 46.5306C12.1631 46.5217 12.1741 46.514 12.1849 46.5078C12.1956 46.5016 12.2037 46.4985 12.2073 46.4973C12.2142 46.495 12.1975 46.502 12.1455 46.502V48.502ZM13.5042 48.005C13.8832 47.6471 14.0695 47.1783 14.0695 46.676H12.0695C12.0695 46.6801 12.0693 46.6577 12.0841 46.6224C12.0994 46.5859 12.1198 46.5615 12.1309 46.551L13.5042 48.005ZM14.0695 46.676C14.0695 46.1733 13.8818 45.6961 13.4819 45.3406L12.1532 46.8354C12.1334 46.8178 12.1064 46.7853 12.0874 46.7409C12.0692 46.6984 12.0695 46.6715 12.0695 46.676H14.0695ZM13.5042 45.361C13.1128 44.9913 12.6237 44.85 12.1455 44.85V46.85C12.1916 46.85 12.2021 46.8565 12.1897 46.8521C12.1835 46.8499 12.1737 46.8457 12.1621 46.8387C12.1504 46.8316 12.1397 46.8233 12.1309 46.815L13.5042 45.361ZM26.5877 45.206L26.3218 44.242L25.5877 44.4445V45.206H26.5877ZM26.5877 45.248H25.5877V46.0375L26.3557 46.2207L26.5877 45.248ZM27.3158 48.566L27.8997 49.3779L27.9089 49.3711L27.3158 48.566ZM22.5837 48.706L21.6533 48.3395L21.3018 49.2319L22.1788 49.6203L22.5837 48.706ZM23.1297 47.32L23.4877 46.3863L22.5625 46.0316L22.1993 46.9535L23.1297 47.32ZM25.9718 47.432L25.4861 46.5578L25.479 46.5618L25.472 46.5658L25.9718 47.432ZM24.0958 46.032H23.0958V47.032H24.0958V46.032ZM24.0958 44.646V43.646H23.0958V44.646H24.0958ZM23.1998 43.512L22.2693 43.8785L22.6202 44.7691L23.5253 44.4575L23.1998 43.512ZM22.6537 42.126L22.2801 41.1984L21.3596 41.5692L21.7233 42.4925L22.6537 42.126ZM27.0918 42.196L26.5294 43.023L26.5371 43.028L27.0918 42.196ZM26.8057 43.582C26.8057 43.8537 26.7431 43.9762 26.7013 44.032C26.6608 44.0859 26.5677 44.1742 26.3218 44.242L26.8537 46.17C27.4198 46.0138 27.9357 45.7194 28.3013 45.232C28.6654 44.7465 28.8057 44.1689 28.8057 43.582H26.8057ZM25.5877 45.206V45.248H27.5877V45.206H25.5877ZM26.3557 46.2207C26.7318 46.3104 26.9017 46.4366 26.9786 46.5247C27.0445 46.6003 27.1138 46.7284 27.1138 46.998H29.1138C29.1138 46.3436 28.9287 45.718 28.4859 45.2103C28.0541 44.7151 27.461 44.4282 26.8198 44.2753L26.3557 46.2207ZM27.1138 46.998C27.1138 47.3293 27.0022 47.5549 26.7226 47.7609L27.9089 49.3711C28.6933 48.7931 29.1138 47.9734 29.1138 46.998H27.1138ZM26.7318 47.7542C26.4354 47.9674 25.9165 48.14 25.0478 48.14V50.14C26.139 50.14 27.1321 49.9299 27.8997 49.3778L26.7318 47.7542ZM25.0478 48.14C24.1477 48.14 23.4754 48.0072 22.9887 47.7917L22.1788 49.6203C22.9987 49.9835 23.9692 50.14 25.0478 50.14V48.14ZM23.5142 49.0725L24.0602 47.6865L22.1993 46.9535L21.6533 48.3395L23.5142 49.0725ZM22.7718 48.2537C23.462 48.5183 24.211 48.642 25.0058 48.642V46.642C24.4191 46.642 23.9175 46.551 23.4877 46.3863L22.7718 48.2537ZM25.0058 48.642C25.511 48.642 26.025 48.5557 26.4715 48.2982L25.472 46.5658C25.4331 46.5883 25.3031 46.642 25.0058 46.642V48.642ZM26.4574 48.3062C26.9717 48.0204 27.3498 47.5182 27.3498 46.844H25.3498C25.3498 46.7945 25.3649 46.7157 25.4141 46.6392C25.459 46.5693 25.5016 46.5492 25.4861 46.5578L26.4574 48.3062ZM27.3498 46.844C27.3498 46.2329 27.0614 45.6984 26.5234 45.3767C26.0671 45.1039 25.5114 45.032 24.9918 45.032V47.032C25.1713 47.032 25.3012 47.0457 25.3904 47.0635C25.4811 47.0815 25.5073 47.0994 25.4971 47.0933C25.4803 47.0832 25.4313 47.0471 25.3914 46.9757C25.3523 46.9054 25.3498 46.8509 25.3498 46.844H27.3498ZM24.9918 45.032H24.0958V47.032H24.9918V45.032ZM25.0958 46.032V44.646H23.0958V46.032H25.0958ZM24.0958 45.646H24.9778V43.646H24.0958V45.646ZM24.9778 45.646C25.4179 45.646 25.9261 45.5748 26.3478 45.2807C26.835 44.9409 27.0417 44.4238 27.0417 43.904H25.0417C25.0417 43.9083 25.0412 43.8638 25.073 43.7974C25.1072 43.7259 25.1581 43.6721 25.2037 43.6403C25.2429 43.6129 25.2572 43.6162 25.2168 43.6256C25.1763 43.635 25.1002 43.646 24.9778 43.646V45.646ZM27.0417 43.904C27.0417 43.3869 26.8259 42.8829 26.3436 42.5592C25.932 42.2829 25.4408 42.218 25.0198 42.218V44.218C25.1373 44.218 25.2101 44.2282 25.2485 44.2367C25.2872 44.2454 25.2708 44.2479 25.2289 44.2198C25.1804 44.1872 25.1225 44.1297 25.0822 44.0486C25.0441 43.9718 25.0417 43.9143 25.0417 43.904H27.0417ZM25.0198 42.218C24.2727 42.218 23.5554 42.332 22.8742 42.5665L23.5253 44.4575C23.9828 44.3 24.4788 44.218 25.0198 44.218V42.218ZM24.1302 43.1455L23.5842 41.7595L21.7233 42.4925L22.2693 43.8785L24.1302 43.1455ZM23.0274 43.0536C23.5449 42.8451 24.2439 42.72 25.1597 42.72V40.72C24.0783 40.72 23.1066 40.8655 22.2801 41.1984L23.0274 43.0536ZM25.1597 42.72C25.8674 42.72 26.2883 42.8589 26.5294 43.0229L27.6541 41.3691C26.9619 40.8984 26.0948 40.72 25.1597 40.72V42.72ZM26.5371 43.028C26.7154 43.1469 26.8057 43.2856 26.8057 43.582H28.8057C28.8057 42.6651 28.4201 41.8797 27.6465 41.3639L26.5371 43.028ZM28.6699 47.502V46.502H27.5808L27.6736 47.5872L28.6699 47.502ZM29.6219 47.502V48.502H30.2077L30.4942 47.991L29.6219 47.502ZM30.3219 45.528L29.3388 45.3445L29.3366 45.3572L30.3219 45.528ZM30.5179 41.86V40.86H29.5179V41.86H30.5179ZM35.4179 41.86H36.4179V40.86H35.4179V41.86ZM35.4179 47.502H34.4179V48.502H35.4179V47.502ZM36.5519 47.502L37.5483 47.5872L37.641 46.502H36.5519V47.502ZM36.2719 50.778V51.778H37.1901L37.2683 50.8632L36.2719 50.778ZM34.8159 50.778H33.8159V51.778H34.8159V50.778ZM34.8159 49H35.8159V48H34.8159V49ZM30.4059 49V48H29.4059V49H30.4059ZM30.4059 50.778V51.778H31.4059V50.778H30.4059ZM28.9499 50.778L27.9536 50.8632L28.0317 51.778H28.9499V50.778ZM33.6819 43.358H34.6819V42.358H33.6819V43.358ZM32.1839 43.358V42.358H31.1839V43.358H32.1839ZM31.4699 47.502L30.5868 47.0328L29.8063 48.502H31.4699V47.502ZM33.6819 47.502V48.502H34.6819V47.502H33.6819ZM28.6699 48.502H29.6219V46.502H28.6699V48.502ZM30.4942 47.991C30.8953 47.2755 31.1667 46.5098 31.3072 45.6988L29.3366 45.3572C29.2345 45.9462 29.0392 46.4965 28.7496 47.013L30.4942 47.991ZM31.3049 45.7115C31.4521 44.9231 31.5179 43.8912 31.5179 42.644H29.5179C29.5179 43.8421 29.4531 44.7329 29.3389 45.3445L31.3049 45.7115ZM31.5179 42.644V41.86H29.5179V42.644H31.5179ZM30.5179 42.86H35.4179V40.86H30.5179V42.86ZM34.4179 41.86V47.502H36.4179V41.86H34.4179ZM35.4179 48.502H36.5519V46.502H35.4179V48.502ZM35.5556 47.4168L35.2756 50.6928L37.2683 50.8632L37.5483 47.5872L35.5556 47.4168ZM36.2719 49.778H34.8159V51.778H36.2719V49.778ZM35.8159 50.778V49H33.8159V50.778H35.8159ZM34.8159 48H30.4059V50H34.8159V48ZM29.4059 49V50.778H31.4059V49H29.4059ZM30.4059 49.778H28.9499V51.778H30.4059V49.778ZM29.9463 50.6928L29.6663 47.4168L27.6736 47.5872L27.9536 50.8632L29.9463 50.6928ZM33.6819 42.358H32.1839V44.358H33.6819V42.358ZM31.1839 43.358C31.1839 45.177 30.9457 46.3573 30.5868 47.0328L32.353 47.9712C32.9462 46.8547 33.1839 45.2724 33.1839 43.358H31.1839ZM31.4699 48.502H33.6819V46.502H31.4699V48.502ZM34.6819 47.502V43.358H32.6819V47.502H34.6819ZM42.661 47.18L43.5752 46.7747L43.1453 45.8051L42.2027 46.2912L42.661 47.18ZM43.263 48.538L43.7186 49.4281L44.5604 48.9972L44.1772 48.1327L43.263 48.538ZM38.223 48.146L37.5058 48.843L37.5108 48.8481L38.223 48.146ZM38.125 42.7L37.3816 42.031L37.3764 42.037L38.125 42.7ZM42.745 42.56L42.0259 43.255L42.0318 43.261L42.745 42.56ZM43.473 45.962V46.962H44.3402L44.4629 46.1034L43.473 45.962ZM39.021 45.962V44.962H37.8302L38.036 46.1348L39.021 45.962ZM39.665 47.208L39.0006 47.9554L39.0065 47.9606L39.0124 47.9658L39.665 47.208ZM39.049 44.632L38.0661 44.4477L37.844 45.632H39.049V44.632ZM41.975 44.632V45.632H42.975V44.632H41.975ZM41.597 43.61L40.8642 44.2905L40.8706 44.2974L40.8771 44.3041L41.597 43.61ZM39.581 43.596L40.2485 44.3406L40.2555 44.3343L40.2624 44.3279L39.581 43.596ZM40.883 48.642C41.6519 48.642 42.4006 48.4394 43.1192 48.0688L42.2027 46.2912C41.7267 46.5366 41.29 46.642 40.883 46.642V48.642ZM41.7468 47.5853L42.3488 48.9433L44.1772 48.1327L43.5752 46.7747L41.7468 47.5853ZM42.8073 47.6479C42.1606 47.9789 41.495 48.14 40.799 48.14V50.14C41.8202 50.14 42.7973 49.8998 43.7186 49.4281L42.8073 47.6479ZM40.799 48.14C39.9608 48.14 39.373 47.8882 38.9351 47.4439L37.5108 48.8481C38.3795 49.7292 39.5091 50.14 40.799 50.14V48.14ZM38.9401 47.4491C38.5191 47.0158 38.257 46.3842 38.257 45.43H36.257C36.257 46.7718 36.6389 47.9508 37.5058 48.8429L38.9401 47.4491ZM38.257 45.43C38.257 44.4242 38.5047 43.7794 38.8735 43.363L37.3764 42.037C36.5878 42.9272 36.257 44.1024 36.257 45.43H38.257ZM38.8682 43.369C39.236 42.9603 39.75 42.72 40.533 42.72V40.72C39.2813 40.72 38.1899 41.133 37.3817 42.031L38.8682 43.369ZM40.533 42.72C41.2531 42.72 41.7098 42.928 42.026 43.255L43.4639 41.865C42.6974 41.072 41.6795 40.72 40.533 40.72V42.72ZM42.0318 43.261C42.3399 43.5744 42.557 44.0675 42.557 44.884H44.557C44.557 43.7032 44.2327 42.6469 43.4581 41.859L42.0318 43.261ZM42.557 44.884C42.557 45.1547 42.5337 45.466 42.483 45.8206L44.4629 46.1034C44.5242 45.674 44.557 45.2667 44.557 44.884H42.557ZM43.473 44.962H39.021V46.962H43.473V44.962ZM38.036 46.1348C38.1602 46.8427 38.4639 47.4783 39.0006 47.9554L40.3293 46.4606C40.194 46.3403 40.0684 46.1453 40.0059 45.7892L38.036 46.1348ZM39.0124 47.9658C39.5438 48.4234 40.1865 48.642 40.883 48.642V46.642C40.6274 46.642 40.4581 46.5713 40.3175 46.4502L39.0124 47.9658ZM39.049 45.632H41.975V43.632H39.049V45.632ZM42.975 44.632C42.975 43.9968 42.7767 43.3928 42.3168 42.9159L40.8771 44.3041C40.9212 44.3498 40.975 44.4272 40.975 44.632H42.975ZM42.3297 42.9295C41.8517 42.4147 41.211 42.218 40.561 42.218V44.218C40.8069 44.218 40.8569 44.2826 40.8642 44.2905L42.3297 42.9295ZM40.561 42.218C39.9351 42.218 39.3623 42.4333 38.8995 42.8641L40.2624 44.3279C40.341 44.2547 40.4214 44.218 40.561 44.218V42.218ZM38.9134 42.8514C38.441 43.2749 38.1802 43.8392 38.0661 44.4477L40.0318 44.8163C40.0857 44.5288 40.1796 44.4024 40.2485 44.3406L38.9134 42.8514ZM49.8435 47.362L50.7693 46.9841L50.3887 46.0515L49.4589 46.4389L49.8435 47.362ZM50.4035 48.734L50.8058 49.6495L51.6974 49.2578L51.3293 48.3561L50.4035 48.734ZM45.7555 48.09L46.5013 47.4238L45.7555 48.09ZM45.7275 42.77L46.4788 43.43L46.4832 43.4249L45.7275 42.77ZM50.3335 42.112L51.2593 42.4899L51.6341 41.5717L50.7191 41.1893L50.3335 42.112ZM49.7735 43.484L49.3845 44.4052L50.3169 44.7989L50.6993 43.8619L49.7735 43.484ZM47.0855 43.834L46.3201 43.1903L46.3115 43.2008L47.0855 43.834ZM47.0855 47.026L47.8595 46.3928L47.0855 47.026ZM48.9177 47.7399L49.4777 49.1119L51.3293 48.3561L50.7693 46.9841L48.9177 47.7399ZM50.0012 47.8185C49.5237 48.0283 48.9857 48.14 48.3735 48.14V50.14C49.2359 50.14 50.0513 49.981 50.8058 49.6495L50.0012 47.8185ZM48.3735 48.14C47.4782 48.14 46.9002 47.8704 46.5013 47.4238L45.0097 48.7562C45.8615 49.7096 47.0288 50.14 48.3735 50.14V48.14ZM46.5013 47.4238C46.0631 46.9333 45.8175 46.2952 45.8175 45.43H43.8175C43.8175 46.7114 44.1972 47.8467 45.0097 48.7562L46.5013 47.4238ZM45.8175 45.43C45.8175 44.5446 46.0602 43.9066 46.4788 43.4299L44.9762 42.1101C44.1815 43.0148 43.8175 44.15 43.8175 45.43H45.8175ZM46.4832 43.4249C46.8621 42.9878 47.4196 42.72 48.3035 42.72V40.72C46.9661 40.72 45.8063 41.1522 44.9718 42.1151L46.4832 43.4249ZM48.3035 42.72C48.909 42.72 49.4536 42.8281 49.9479 43.0347L50.7191 41.1893C49.9628 40.8733 49.154 40.72 48.3035 40.72V42.72ZM49.4077 41.7341L48.8477 43.1061L50.6993 43.8619L51.2593 42.4899L49.4077 41.7341ZM50.1625 42.5627C49.607 42.3282 49.011 42.218 48.3875 42.218V44.218C48.772 44.218 49.1 44.2851 49.3845 44.4052L50.1625 42.5627ZM48.3875 42.218C47.5607 42.218 46.8497 42.5607 46.3201 43.1904L47.8509 44.4776C48.012 44.286 48.169 44.218 48.3875 44.218V42.218ZM46.3115 43.2008C45.7979 43.8285 45.5815 44.6009 45.5815 45.43H47.5815C47.5815 44.9524 47.7011 44.6608 47.8595 44.4672L46.3115 43.2008ZM45.5815 45.43C45.5815 46.2591 45.7979 47.0315 46.3115 47.6592L47.8595 46.3928C47.7011 46.1992 47.5815 45.9076 47.5815 45.43H45.5815ZM46.3115 47.6592C46.8341 48.2979 47.5457 48.642 48.3735 48.642V46.642C48.156 46.642 48.0089 46.5754 47.8595 46.3928L46.3115 47.6592ZM48.3735 48.642C49.0248 48.642 49.647 48.5272 50.2281 48.2851L49.4589 46.4389C49.144 46.5701 48.7862 46.642 48.3735 46.642V48.642ZM53.536 44.408H52.536V45.408H53.536V44.408ZM56.644 45.024L55.9758 45.7681L55.9834 45.7747L56.644 45.024ZM56.644 48.398L57.3036 49.1496L57.3046 49.1487L56.644 48.398ZM51.8 49H50.8V50H51.8V49ZM51.8 41.86V40.86H50.8V41.86H51.8ZM53.536 41.86H54.536V40.86H53.536V41.86ZM53.536 45.85V44.85H52.536V45.85H53.536ZM53.536 47.502H52.536V48.502H53.536V47.502ZM55.328 47.278L55.9924 48.0254L56.0036 48.0154L56.0146 48.005L55.328 47.278ZM55.328 46.088L54.6414 46.815L54.6524 46.8254L54.6636 46.8354L55.328 46.088ZM53.536 45.408H54.796V43.408H53.536V45.408ZM54.796 45.408C55.3906 45.408 55.7462 45.5618 55.9759 45.768L57.3121 44.28C56.6271 43.6649 55.7508 43.408 54.796 43.408V45.408ZM55.9834 45.7747C56.1997 45.9651 56.344 46.2371 56.344 46.718H58.344C58.344 45.7616 58.0217 44.9043 57.3046 44.2733L55.9834 45.7747ZM56.344 46.718C56.344 47.185 56.2027 47.4543 55.9834 47.6473L57.3046 49.1487C58.0187 48.5204 58.344 47.6697 58.344 46.718H56.344ZM55.9844 47.6464C55.755 47.8477 55.3962 48 54.796 48V50C55.7451 50 56.6183 49.751 57.3036 49.1496L55.9844 47.6464ZM54.796 48H51.8V50H54.796V48ZM52.8 49V41.86H50.8V49H52.8ZM51.8 42.86H53.536V40.86H51.8V42.86ZM52.536 41.86V44.408H54.536V41.86H52.536ZM54.656 44.85H53.536V46.85H54.656V44.85ZM52.536 45.85V47.502H54.536V45.85H52.536ZM53.536 48.502H54.656V46.502H53.536V48.502ZM54.656 48.502C55.1184 48.502 55.5994 48.3747 55.9924 48.0254L54.6636 46.5306C54.6736 46.5217 54.6845 46.514 54.6954 46.5078C54.7061 46.5016 54.7142 46.4985 54.7178 46.4973C54.7247 46.495 54.7079 46.502 54.656 46.502V48.502ZM56.0146 48.005C56.3936 47.6471 56.58 47.1783 56.58 46.676H54.58C54.58 46.6801 54.5798 46.6577 54.5946 46.6224C54.6098 46.5859 54.6303 46.5615 54.6414 46.551L56.0146 48.005ZM56.58 46.676C56.58 46.1733 56.3923 45.6961 55.9924 45.3406L54.6636 46.8354C54.6438 46.8178 54.6169 46.7853 54.5979 46.7409C54.5796 46.6984 54.58 46.6715 54.58 46.676H56.58ZM56.0146 45.361C55.6232 44.9913 55.1342 44.85 54.656 44.85V46.85C54.7021 46.85 54.7126 46.8565 54.7002 46.8521C54.6939 46.8499 54.6842 46.8457 54.6725 46.8387C54.6608 46.8316 54.6502 46.8233 54.6414 46.815L56.0146 45.361Z" fill="white"/>

<path d="M5.124 42.868C5.35733 42.6533 5.474 42.364 5.474 42C5.474 41.636 5.35733 41.3513 5.124 41.146C4.9 40.9313 4.578 40.824 4.158 40.824H2.982V43.19H4.158C4.578 43.19 4.9 43.0827 5.124 42.868ZM5.824 46.088C5.824 45.6493 5.67933 45.3133 5.39 45.08C5.10067 44.8467 4.69467 44.73 4.172 44.73H2.982V47.376H4.172C4.68533 47.376 5.08667 47.2593 5.376 47.026C5.67467 46.7927 5.824 46.48 5.824 46.088ZM4.256 49H1.19V39.2H4.256C5.18933 39.2 5.93133 39.3913 6.482 39.774C7.042 40.1473 7.322 40.74 7.322 41.552C7.322 42.1587 7.16333 42.6533 6.846 43.036C6.538 43.4093 6.14133 43.6613 5.656 43.792V43.848C7 44.1653 7.672 44.9773 7.672 46.284C7.672 47.2267 7.35933 47.9173 6.734 48.356C6.118 48.7853 5.292 49 4.256 49ZM17.4095 41.86V49H15.6735V41.86H17.4095ZM11.2215 44.408H12.2855C13.0602 44.408 13.6762 44.6133 14.1335 45.024C14.6002 45.4347 14.8335 45.9993 14.8335 46.718C14.8335 47.4273 14.6002 47.9873 14.1335 48.398C13.6762 48.7993 13.0602 49 12.2855 49H9.48555V41.86H11.2215V44.408ZM12.1455 45.85H11.2215V47.502H12.1455C12.4255 47.502 12.6495 47.4273 12.8175 47.278C12.9855 47.1193 13.0695 46.9187 13.0695 46.676C13.0695 46.4333 12.9855 46.2373 12.8175 46.088C12.6495 45.9293 12.4255 45.85 12.1455 45.85ZM27.8058 43.582C27.8058 44.4407 27.3998 44.982 26.5878 45.206V45.248C27.6051 45.4907 28.1138 46.074 28.1138 46.998C28.1138 47.6513 27.8478 48.174 27.3158 48.566C26.7838 48.9487 26.0278 49.14 25.0478 49.14C24.0584 49.14 23.2371 48.9953 22.5838 48.706L23.1298 47.32C23.6898 47.5347 24.3151 47.642 25.0058 47.642C25.4071 47.642 25.7291 47.572 25.9718 47.432C26.2238 47.292 26.3498 47.096 26.3498 46.844C26.3498 46.3027 25.8971 46.032 24.9918 46.032H24.0958V44.646H24.9778C25.6871 44.646 26.0418 44.3987 26.0418 43.904C26.0418 43.4467 25.7011 43.218 25.0198 43.218C24.3758 43.218 23.7691 43.316 23.1998 43.512L22.6538 42.126C23.3258 41.8553 24.1611 41.72 25.1598 41.72C25.9811 41.72 26.6251 41.8787 27.0918 42.196C27.5678 42.5133 27.8058 42.9753 27.8058 43.582ZM28.6699 47.502H29.6219C29.9673 46.886 30.2006 46.228 30.3219 45.528C30.4526 44.828 30.5179 43.8667 30.5179 42.644V41.86H35.4179V47.502H36.5519L36.2719 50.778H34.8159V49H30.4059V50.778H28.9499L28.6699 47.502ZM33.6819 43.358H32.1839C32.1839 45.2247 31.9459 46.606 31.4699 47.502H33.6819V43.358ZM40.883 47.642C41.471 47.642 42.0636 47.488 42.661 47.18L43.263 48.538C42.479 48.9393 41.6576 49.14 40.799 49.14C39.735 49.14 38.8763 48.8087 38.223 48.146C37.579 47.4833 37.257 46.578 37.257 45.43C37.257 44.2633 37.5463 43.3533 38.125 42.7C38.713 42.0467 39.5156 41.72 40.533 41.72C41.4663 41.72 42.2036 42 42.745 42.56C43.2863 43.1107 43.557 43.8853 43.557 44.884C43.557 45.2107 43.529 45.57 43.473 45.962H39.021C39.1143 46.494 39.329 46.9093 39.665 47.208C40.001 47.4973 40.407 47.642 40.883 47.642ZM39.049 44.632H41.975C41.975 44.212 41.849 43.8713 41.597 43.61C41.3543 43.3487 41.009 43.218 40.561 43.218C40.1783 43.218 39.8516 43.344 39.581 43.596C39.3103 43.8387 39.133 44.184 39.049 44.632ZM49.8435 47.362L50.4035 48.734C49.7875 49.0047 49.1108 49.14 48.3735 49.14C47.2535 49.14 46.3808 48.79 45.7555 48.09C45.1302 47.39 44.8175 46.5033 44.8175 45.43C44.8175 44.3473 45.1208 43.4607 45.7275 42.77C46.3342 42.07 47.1928 41.72 48.3035 41.72C49.0315 41.72 49.7082 41.8507 50.3335 42.112L49.7735 43.484C49.3535 43.3067 48.8915 43.218 48.3875 43.218C47.8648 43.218 47.4308 43.4233 47.0855 43.834C46.7495 44.2447 46.5815 44.7767 46.5815 45.43C46.5815 46.0833 46.7495 46.6153 47.0855 47.026C47.4215 47.4367 47.8508 47.642 48.3735 47.642C48.9055 47.642 49.3955 47.5487 49.8435 47.362ZM53.536 44.408H54.796C55.5707 44.408 56.1867 44.6133 56.644 45.024C57.1107 45.4347 57.344 45.9993 57.344 46.718C57.344 47.4273 57.1107 47.9873 56.644 48.398C56.1867 48.7993 55.5707 49 54.796 49H51.8V41.86H53.536V44.408ZM54.656 45.85H53.536V47.502H54.656C54.936 47.502 55.16 47.4273 55.328 47.278C55.496 47.1193 55.58 46.9187 55.58 46.676C55.58 46.4333 55.496 46.2373 55.328 46.088C55.16 45.9293 54.936 45.85 54.656 45.85Z" fill="#E63223"/>
</svg>
