<svg width="20" height="17" viewBox="0 0 20 17" fill="none" xmlns="http://www.w3.org/2000/svg">
<path d="M17.4146 16.8115H2.75254C2.41395 16.8527 2.07071 16.7934 1.76559 16.6409C1.46047 16.4885 1.20697 16.2495 1.0367 15.954C0.866418 15.6584 0.786895 15.3193 0.808026 14.9789C0.829157 14.6384 0.950002 14.3117 1.15552 14.0395L8.47516 1.42312C8.88582 0.715872 9.45619 0.324219 10.0722 0.324219C10.692 0.324219 11.2585 0.704469 11.673 1.42693L18.9926 14.0395C19.1982 14.3117 19.319 14.6384 19.3401 14.9789C19.3613 15.3193 19.2817 15.6584 19.1115 15.954C18.9412 16.2495 18.6877 16.4885 18.3826 16.6409C18.0775 16.7934 17.7342 16.8527 17.3956 16.8115H17.4146ZM10.0912 1.42312C10.088 1.42312 10.0849 1.42317 10.0817 1.42327C9.87849 1.42947 9.6432 1.63378 9.44477 1.97447L2.12513 14.5871C2.00903 14.6885 1.93151 14.8268 1.90563 14.9788C1.87975 15.1307 1.90713 15.2869 1.98312 15.421C2.05911 15.5552 2.17907 15.6589 2.32272 15.7148C2.46638 15.7707 2.6249 15.7753 2.77154 15.7278H17.4146C17.5568 15.7462 17.7013 15.7279 17.8344 15.6746C17.9676 15.6214 18.0848 15.535 18.1751 15.4236C18.2273 15.2883 18.2442 15.1419 18.2242 14.9982C18.2043 14.8545 18.1481 14.7183 18.061 14.6023L10.7224 1.97447C10.524 1.63378 10.285 1.42947 10.0817 1.42327C10.0785 1.42317 10.0753 1.42312 10.0722 1.42312L10.0817 1.42327L10.0912 1.42312Z" fill="#FFD400"/>
<path d="M10.0817 1.42327C9.87849 1.42947 9.6432 1.63378 9.44477 1.97447L2.12513 14.5871C2.00903 14.6885 1.93151 14.8268 1.90563 14.9788C1.87975 15.1307 1.90713 15.2869 1.98312 15.421C2.05911 15.5552 2.17907 15.6589 2.32272 15.7148C2.46638 15.7707 2.6249 15.7753 2.77154 15.7278H17.4146C17.5568 15.7462 17.7013 15.7279 17.8344 15.6746C17.9676 15.6214 18.0848 15.535 18.1751 15.4236C18.2273 15.2883 18.2442 15.1419 18.2242 14.9982C18.2043 14.8545 18.1481 14.7183 18.061 14.6023L10.7224 1.97447C10.524 1.63378 10.285 1.42947 10.0817 1.42327Z" fill="#FFD400"/>
<path d="M9.178 12.9565C8.99423 12.7644 8.90234 12.5389 8.90234 12.2799C8.90234 12.021 8.99423 11.7996 9.178 11.6158C9.37013 11.4237 9.59567 11.3276 9.85462 11.3276C10.1136 11.3276 10.3349 11.4237 10.5187 11.6158C10.7108 11.7996 10.8069 12.021 10.8069 12.2799C10.8069 12.5389 10.7108 12.7644 10.5187 12.9565C10.3349 13.1403 10.1136 13.2322 9.85462 13.2322C9.59567 13.2322 9.37013 13.1403 9.178 12.9565ZM10.7818 6.71662L10.4059 10.4756H9.3033L8.9274 6.71662V4.33594H10.7818V6.71662Z" fill="black"/>
</svg>
