<svg width="13" height="12" viewBox="0 0 13 12" fill="none" xmlns="http://www.w3.org/2000/svg">
<path d="M11.3954 11.0015H1.62071C1.39498 11.029 1.16616 10.9895 0.962746 10.8878C0.759335 10.7862 0.590334 10.6269 0.476815 10.4299C0.363297 10.2328 0.310282 10.0067 0.324369 9.77979C0.338456 9.55283 0.41902 9.33502 0.556032 9.15354L5.43579 0.742611C5.70957 0.271112 6.08981 0.0100098 6.50047 0.0100098C6.91366 0.0100098 7.29138 0.26351 7.56768 0.745149L12.4474 9.15354C12.5845 9.33502 12.665 9.55283 12.6791 9.77979C12.6932 10.0067 12.6402 10.2328 12.5267 10.4299C12.4131 10.6269 12.2441 10.7862 12.0407 10.8878C11.8373 10.9895 11.6085 11.029 11.3828 11.0015H11.3954ZM6.51314 0.742611C6.51103 0.742611 6.50892 0.742644 6.50681 0.742708C6.37135 0.746846 6.21448 0.88305 6.0822 1.11018L1.20244 9.51857C1.12504 9.58617 1.07336 9.67841 1.0561 9.77971C1.03885 9.88101 1.0571 9.98516 1.10777 10.0746C1.15843 10.164 1.2384 10.2331 1.33417 10.2704C1.42994 10.3077 1.53562 10.3107 1.63338 10.2791H11.3954C11.4902 10.2913 11.5866 10.2791 11.6753 10.2436C11.7641 10.2081 11.8422 10.1505 11.9024 10.0763C11.9372 9.98603 11.9485 9.88844 11.9352 9.79266C11.9219 9.69688 11.8844 9.60604 11.8264 9.52871L6.93395 1.11018C6.80167 0.88305 6.64234 0.746846 6.50681 0.742708C6.50469 0.742644 6.50258 0.742611 6.50047 0.742611L6.50681 0.742708L6.51314 0.742611Z" fill="#FFD500"/>
<path d="M6.50681 0.742708C6.37135 0.746846 6.21448 0.88305 6.0822 1.11018L1.20244 9.51857C1.12504 9.58617 1.07336 9.67841 1.0561 9.77971C1.03885 9.88101 1.0571 9.98516 1.10777 10.0746C1.15843 10.164 1.2384 10.2331 1.33417 10.2704C1.42994 10.3077 1.53562 10.3107 1.63338 10.2791H11.3954C11.4902 10.2913 11.5866 10.2791 11.6753 10.2436C11.7641 10.2081 11.8422 10.1505 11.9024 10.0763C11.9372 9.98603 11.9485 9.88844 11.9352 9.79266C11.9219 9.69688 11.8844 9.60604 11.8264 9.52871L6.93395 1.11018C6.80167 0.88305 6.64234 0.746846 6.50681 0.742708Z" fill="#FFD500"/>
<path d="M6.03302 8.88268C5.9105 8.7546 5.84924 8.60424 5.84924 8.4316C5.84924 8.25897 5.9105 8.11139 6.03302 7.98888C6.1611 7.8608 6.31146 7.79675 6.48409 7.79675C6.65673 7.79675 6.8043 7.8608 6.92682 7.98888C7.0549 8.11139 7.11894 8.25897 7.11894 8.4316C7.11894 8.60424 7.0549 8.7546 6.92682 8.88268C6.8043 9.0052 6.65673 9.06645 6.48409 9.06645C6.31146 9.06645 6.1611 9.0052 6.03302 8.88268ZM7.10224 4.72274L6.85164 7.22873H6.11655L5.86595 4.72274V3.13562H7.10224V4.72274Z" fill="black"/>
</svg>
