<svg width="33" height="32" viewBox="0 0 33 32" fill="none" xmlns="http://www.w3.org/2000/svg">
<path d="M15.1156 19.5981C15.7069 19.4334 16.3336 19.4477 16.9168 19.6391C17.4999 19.8305 18.0132 20.1904 18.3918 20.6734C18.7705 21.1565 18.9975 21.7408 19.0442 22.3528C19.0908 22.9648 18.9551 23.5768 18.654 24.1117C18.353 24.6465 17.9002 25.0801 17.3528 25.3577C16.8055 25.6353 16.1881 25.7445 15.5787 25.6714C14.9694 25.5983 14.3954 25.3462 13.9292 24.947C13.463 24.5478 13.1256 24.0194 12.9596 23.4285C12.7386 22.6347 12.8415 21.7856 13.2457 21.0675C13.6498 20.3495 14.3223 19.821 15.1156 19.5981Z" fill="#00B400"/>
<path d="M7.822 17.8949C8.64678 16.4683 9.83233 15.2838 11.2596 14.4604C12.687 13.6369 14.3058 13.2034 15.9536 13.2034C17.6015 13.2034 19.2203 13.6369 20.6476 14.4604C22.0749 15.2838 23.2605 16.4683 24.0852 17.8949L21.3903 19.4472C20.8401 18.4919 20.0479 17.6984 19.0934 17.1467C18.139 16.595 17.056 16.3045 15.9536 16.3045C14.8512 16.3045 13.7682 16.595 12.8138 17.1467C11.8594 17.6984 11.0672 18.4919 10.517 19.4472L7.822 17.8949Z" fill="#00B400"/>
<path d="M2.45312 14.7973C3.47589 13.0236 4.83818 11.469 6.46213 10.2222C8.08608 8.97541 9.93983 8.06091 11.9174 7.53097C13.895 7.00103 15.9577 6.86606 17.9875 7.13376C20.0173 7.40146 21.9744 8.06657 23.747 9.0911C26.1142 10.4628 28.0814 12.43 29.4531 14.7973L26.7725 16.3424C25.6785 14.4469 24.1045 12.8729 22.209 11.7789C19.3437 10.1271 15.94 9.67996 12.7453 10.5356C9.55052 11.3912 6.82591 13.4796 5.16965 16.3424L2.47468 14.7973H2.45312Z" fill="#00B400"/>
</svg>
