<svg width="256" height="230" viewBox="0 0 194 66" fill="none" xmlns="http://www.w3.org/2000/svg">
<!--<g class={styles.Card_Bgr_Image}>-->
<rect width="4" height="125" fill="currentColor"/>
<path d="M37.2427 18.5C38.1863 18.5046 39.1073 18.7896 39.8896 19.3191C40.672 19.8487 41.2805 20.5989 41.6384 21.4753C41.9963 22.3516 42.0876 23.3147 41.9008 24.2431C41.7139 25.1714 41.2572 26.0234 40.5884 26.6915C39.9196 27.3596 39.0686 27.8139 38.1428 27.997C37.2171 28.18 36.258 28.0838 35.3867 27.7203C34.5154 27.3568 33.7709 26.7423 33.2472 25.9545C32.7234 25.1667 32.4439 24.2408 32.4439 23.2937C32.4454 22.6626 32.5707 22.0381 32.8127 21.4556C33.0547 20.8732 33.4086 20.3443 33.8542 19.8992C34.2998 19.454 34.8284 19.1014 35.4098 18.8613C35.9912 18.6212 36.614 18.4985 37.2427 18.5Z" fill="currentColor"/>
<path d="M29.0137 34.0724C34.6782 36.0309 38.8 35.4055 40.9811 29.3522C41.6657 27.3437 43.789 26.556 45.2571 28.1081L56.2688 38.7719C60.8993 43.2562 66.8541 43.104 69.6568 36.8289L74.2025 38.866C69.9741 48.3295 59.9526 49.2863 52.8162 42.3743L44.2578 34.0866C40.4557 40.5421 33.9463 41.1739 27.3157 38.7707L29.0137 34.0724Z" fill="currentColor" />
<path d="M49.4714 59.8181C47.4149 54.4391 48.3989 49.0317 52.8842 45.4321L49.1528 42.1288C43.5885 46.9469 42.1846 53.1588 44.1973 59.818H41.5282C41.2332 57.7749 40.4056 55.8464 39.1292 54.2278C37.8527 52.6092 36.1727 51.3579 34.2594 50.6008L35.648 42.2049L30.722 41.3849L28.6001 54.8053C32.1067 54.8053 34.4585 55.9206 35.5426 57.4923C36.1997 58.5851 36.6011 59.8135 36.7166 61.0847C36.8321 62.3559 36.6586 63.6368 36.2093 64.831H54.9637V59.8181H49.4714Z" fill="currentColor"/>
<path d="M29.994 66.5C32.7521 66.5 34.988 64.2557 34.988 61.4872C34.988 58.7187 32.7521 56.4744 29.994 56.4744C27.2359 56.4744 25 58.7187 25 61.4872C25 64.2557 27.2359 66.5 29.994 66.5Z" fill="currentColor"/>
<path d="M66.6153 61.4872C66.6153 64.2557 64.3794 66.5 61.6213 66.5C58.8632 66.5 56.6273 64.2557 56.6273 61.4872C56.6273 58.7187 58.8632 56.4744 61.6213 56.4744C64.3794 56.4744 66.6153 58.7187 66.6153 61.4872Z" fill="currentColor"/>
<path d="M42.2866 94.7546L40.1016 96.9509L49.6016 106.5L59.1016 96.9509L56.9166 94.7546L51.2799 100.516H51.1849V82.5H48.0182V100.516H47.9232L42.2866 94.7546Z" fill="currentColor"/>
<rect x="96.2031" y="1" width="2" height="123" stroke="currentColor" stroke-width="2" stroke-dasharray="12 12"/>
<path d="M151.518 30.2454L153.703 28.0491L144.203 18.5L134.703 28.0491L136.888 30.2454L142.525 24.4841H142.62V42.5H145.786V24.4841H145.881L151.518 30.2454Z" fill="currentColor"/>
<path fill-rule="evenodd" clip-rule="evenodd" d="M139.745 58.5C140.604 58.5042 141.444 58.7644 142.156 59.2477C142.869 59.731 143.423 60.4158 143.75 61.2157C144.076 62.0156 144.159 62.8947 143.989 63.7421C143.818 64.5895 143.402 65.3672 142.793 65.977C142.184 66.5868 141.408 67.0015 140.565 67.1686C139.721 67.3357 138.848 67.2478 138.054 66.916C137.26 66.5842 136.582 66.0234 136.105 65.3043C135.627 64.5852 135.373 63.74 135.373 62.8755C135.376 61.7123 135.838 60.598 136.658 59.7775C137.478 58.9569 138.588 58.4974 139.745 58.5ZM148.343 91.7551C147.314 89.6735 146.984 87.3123 147.404 85.0262C147.823 82.7401 148.969 80.6527 150.669 79.0775C149.569 76.6446 147.757 74.6071 145.475 73.2373C142.284 78.9083 136.68 80.3389 130.616 80.5306L130.473 76.2305C136.154 76.0507 140.009 74.9009 142.335 69.3063H142.338C142.567 68.7519 143.004 68.3105 143.554 68.0779C144.104 67.8453 144.724 67.8402 145.278 68.0637C147.56 68.9809 149.627 70.365 151.349 72.1283C153.071 73.8915 154.41 75.9954 155.281 78.3064C156.119 80.4671 155.578 80.9845 154.095 82.1353C153.454 82.6433 152.921 83.2751 152.526 83.9936C152.131 84.7121 151.884 85.5028 151.797 86.319C151.711 87.1352 151.788 87.9606 152.024 88.7464C152.26 89.5322 152.65 90.2626 153.171 90.8946L153.517 91.2791C154.081 91.8576 154.755 92.3169 155.498 92.6302C156.242 92.9435 157.04 93.1045 157.846 93.1036V97.6802C155.573 97.6836 153.36 96.9488 151.536 95.5853C151.526 95.738 151.52 95.8909 151.52 96.045C151.528 97.3296 151.927 98.5811 152.663 99.6309C153.4 100.681 154.438 101.479 155.639 101.918C156.839 102.357 158.145 102.415 159.379 102.086C160.614 101.757 161.719 101.055 162.546 100.075C163.372 99.0957 163.881 97.8851 164.003 96.6063C164.125 95.3274 163.855 94.0417 163.228 92.9219C162.602 91.802 161.65 90.9018 160.5 90.3423C159.35 89.7828 158.058 89.5907 156.796 89.7919C156.459 89.8477 156.128 89.9302 155.804 90.0388L154.508 86.1465C156.768 85.3837 159.22 85.4257 161.453 86.2656C163.686 87.1054 165.564 88.6919 166.771 90.759C167.979 92.826 168.443 95.2479 168.086 97.6182C167.728 99.9885 166.571 102.163 164.808 103.777C163.046 105.391 160.785 106.347 158.405 106.483C156.024 106.619 153.67 105.929 151.736 104.526C149.803 103.124 148.408 101.096 147.785 98.7815C147.162 96.4673 147.349 94.0082 148.316 91.8165C148.325 91.7963 148.333 91.7752 148.343 91.7551ZM135.027 91.5682C133.997 90.5326 132.642 89.888 131.193 89.7443C129.743 89.6007 128.289 89.9669 127.078 90.7805C125.867 91.5941 124.974 92.8048 124.551 94.2063C124.128 95.6077 124.202 97.1133 124.759 98.4665C125.316 99.8196 126.323 100.937 127.607 101.627C128.892 102.318 130.374 102.539 131.803 102.253C133.231 101.968 134.517 101.193 135.441 100.061C136.365 98.9288 136.87 97.5095 136.87 96.045C136.871 95.2134 136.709 94.3898 136.393 93.6216C136.076 92.8533 135.612 92.1555 135.027 91.5682ZM139.022 89.9601C140.499 92.0356 141.168 94.5833 140.904 97.1215C140.639 99.6597 139.459 102.012 137.586 103.735C135.714 105.457 133.279 106.43 130.741 106.469C128.204 106.509 125.74 105.611 123.815 103.948C121.891 102.284 120.64 99.9685 120.298 97.4397C119.956 94.9108 120.547 92.3436 121.96 90.2235C123.373 88.1034 125.509 86.5772 127.964 85.9336C130.42 85.29 133.025 85.5736 135.287 86.7307C136.074 84.5476 137.085 82.8063 138.368 81.5992C140.507 79.5831 143.17 79.007 146.485 80.2179L144.938 84.5077C143.434 83.9574 142.305 84.1444 141.478 84.9227C140.453 85.889 139.65 87.6242 139.022 89.9601Z" fill="currentColor"/>
<rect x="189.203" width="4" height="125" fill="currentColor"/>
<!--</g>-->
</svg>