<svg width="33" height="32" viewBox="0 0 33 32" fill="none" xmlns="http://www.w3.org/2000/svg">
<path d="M10.8677 14.9795C10.2774 14.8315 9.70259 14.6276 9.15092 14.3707L10.2285 11.9781C12.828 13.1531 14.5509 12.2947 15.939 9.95085C16.2633 9.31719 16.7612 8.78893 17.3746 8.42779C17.9881 8.06664 18.6916 7.88753 19.403 7.9114C24.1759 7.82008 27.2077 11.1076 27.2747 15.8257L24.663 15.8561C24.6264 13.6462 23.8715 11.8198 21.7347 10.9858L22.3739 17.5242L26.2945 26.2239C26.8372 25.9802 27.312 25.6077 27.6779 25.1387C28.0438 24.6697 28.2897 24.1185 28.3941 23.5329C28.4985 22.9473 28.4583 22.345 28.277 21.7785C28.0957 21.212 27.7788 20.6983 27.3538 20.2821C27.0133 19.9395 26.6082 19.6679 26.162 19.4829C25.7158 19.2979 25.2373 19.2033 24.7543 19.2045V16.812C25.591 16.747 26.432 16.8557 27.2247 17.1313C28.0173 17.4069 28.7444 17.8433 29.3604 18.4133C29.9763 18.9833 30.4678 19.6744 30.8039 20.4434C31.1399 21.2123 31.3135 22.0424 31.3135 22.8816C31.3135 23.7208 31.1399 24.5509 30.8039 25.3199C30.4678 26.0888 29.9763 26.78 29.3604 27.3499C28.7444 27.9199 28.0173 28.3564 27.2247 28.6319C26.432 28.9075 25.591 29.0162 24.7543 28.9513V28.9209L20.3162 19.3263H19.4152L20.2918 28.9513H17.6679L16.1703 13.7619C15.3866 14.3227 14.4884 14.7032 13.5403 14.876L9.68057 23.3991L7.48283 22.4616L8.95001 19.2167H8.81C8.09175 19.2169 7.38952 19.4289 6.79112 19.8262C6.19272 20.2234 5.7247 20.7882 5.4456 21.45C5.1665 22.1118 5.0887 22.8412 5.22193 23.547C5.35516 24.2528 5.6935 24.9036 6.19465 25.4181C6.6958 25.9326 7.3375 26.288 8.03953 26.4397C8.74156 26.5915 9.47275 26.5329 10.1417 26.2713C10.8106 26.0097 11.3875 25.5567 11.8004 24.969C12.2132 24.3812 12.4436 23.6848 12.4628 22.9669H14.8553C14.8445 24.1685 14.4783 25.3401 13.8028 26.3341C13.1273 27.328 12.1728 28.0998 11.0594 28.5522C9.94609 29.0045 8.72376 29.1173 7.54645 28.8763C6.36914 28.6352 5.28951 28.0511 4.44357 27.1976C3.59763 26.344 3.02322 25.2592 2.79272 24.0797C2.56222 22.9003 2.68595 21.6791 3.1483 20.5698C3.61065 19.4606 4.39093 18.513 5.39087 17.8464C6.3908 17.1799 7.56564 16.8242 8.76738 16.8241C9.15961 16.8232 9.55104 16.8599 9.93627 16.9337L10.8251 14.9734L10.8677 14.9795ZM18.5568 2.00001C19.0595 2.00241 19.5504 2.1537 19.9672 2.43478C20.3841 2.71586 20.7084 3.11413 20.8991 3.57933C21.0899 4.04453 21.1385 4.55582 21.039 5.04865C20.9394 5.54148 20.6961 5.99376 20.3397 6.34844C19.9833 6.70311 19.5299 6.94427 19.0366 7.04148C18.5433 7.13868 18.0323 7.08759 17.568 6.89463C17.1037 6.70167 16.707 6.3755 16.4279 5.95728C16.1488 5.53907 15.9999 5.04755 15.9998 4.54477C16.0006 4.20979 16.0674 3.87824 16.1963 3.56906C16.3253 3.25988 16.5138 2.97913 16.7513 2.74283C16.9887 2.50653 17.2704 2.3193 17.5802 2.19184C17.8899 2.06439 18.2218 1.99921 18.5568 2.00001V2.00001Z" fill="#00B4FF"/>
</svg>
