<svg width="33" height="32" viewBox="0 0 33 32" fill="none" xmlns="http://www.w3.org/2000/svg">
<path d="M10.8716 14.9795C10.2814 14.8315 9.70649 14.6276 9.15483 14.3707L10.2324 11.9781C12.8319 13.1531 14.5548 12.2947 15.9429 9.95085C16.2672 9.31719 16.7651 8.78893 17.3786 8.42779C17.992 8.06664 18.6955 7.88753 19.4069 7.9114C24.1798 7.82008 27.2116 11.1076 27.2786 15.8257L24.6669 15.8561C24.6303 13.6462 23.8754 11.8198 21.7386 10.9858L22.3778 17.5242L26.2985 26.2239C26.8411 25.9802 27.316 25.6077 27.6819 25.1387C28.0478 24.6697 28.2936 24.1185 28.398 23.5329C28.5024 22.9473 28.4622 22.345 28.2809 21.7785C28.0996 21.212 27.7827 20.6983 27.3577 20.2821C27.0172 19.9395 26.6121 19.6679 26.1659 19.4829C25.7197 19.2979 25.2412 19.2033 24.7582 19.2045V16.812C25.5949 16.747 26.4359 16.8557 27.2286 17.1313C28.0212 17.4069 28.7484 17.8433 29.3643 18.4133C29.9802 18.9833 30.4717 19.6744 30.8078 20.4434C31.1439 21.2123 31.3174 22.0424 31.3174 22.8816C31.3174 23.7208 31.1439 24.5509 30.8078 25.3199C30.4717 26.0888 29.9802 26.78 29.3643 27.3499C28.7484 27.9199 28.0212 28.3564 27.2286 28.6319C26.4359 28.9075 25.5949 29.0162 24.7582 28.9513V28.9209L20.3201 19.3263H19.4191L20.2957 28.9513H17.6718L16.1742 13.7619C15.3905 14.3227 14.4923 14.7032 13.5442 14.876L9.68447 23.3991L7.48674 22.4616L8.95392 19.2167H8.8139C8.09566 19.2169 7.39343 19.4289 6.79503 19.8262C6.19663 20.2234 5.72861 20.7882 5.44951 21.45C5.17041 22.1118 5.09261 22.8412 5.22584 23.547C5.35906 24.2528 5.6974 24.9036 6.19855 25.4181C6.6997 25.9326 7.34141 26.288 8.04344 26.4397C8.74547 26.5915 9.47665 26.5329 10.1456 26.2713C10.8145 26.0097 11.3914 25.5567 11.8043 24.969C12.2171 24.3812 12.4475 23.6848 12.4667 22.9669H14.8592C14.8484 24.1685 14.4822 25.3401 13.8067 26.3341C13.1312 27.328 12.1767 28.0998 11.0633 28.5522C9.94999 29.0045 8.72767 29.1173 7.55035 28.8763C6.37304 28.6352 5.29341 28.0511 4.44747 27.1976C3.60153 26.344 3.02712 25.2592 2.79663 24.0797C2.56613 22.9003 2.68986 21.6791 3.15221 20.5698C3.61456 19.4606 4.39484 18.513 5.39477 17.8464C6.39471 17.1799 7.56955 16.8242 8.77129 16.8241C9.16352 16.8232 9.55495 16.8599 9.94018 16.9337L10.829 14.9734L10.8716 14.9795ZM18.5607 2.00001C19.0635 2.00241 19.5543 2.1537 19.9711 2.43478C20.388 2.71586 20.7123 3.11413 20.903 3.57933C21.0938 4.04453 21.1424 4.55582 21.0429 5.04865C20.9433 5.54148 20.7 5.99376 20.3436 6.34844C19.9872 6.70311 19.5338 6.94427 19.0405 7.04148C18.5472 7.13868 18.0362 7.08759 17.5719 6.89463C17.1076 6.70167 16.7109 6.3755 16.4318 5.95728C16.1527 5.53907 16.0038 5.04755 16.0038 4.54477C16.0046 4.20979 16.0713 3.87824 16.2002 3.56906C16.3292 3.25988 16.5177 2.97913 16.7552 2.74283C16.9926 2.50653 17.2743 2.3193 17.5841 2.19184C17.8938 2.06439 18.2257 1.99921 18.5607 2.00001Z" fill="#00B400"/>
</svg>
