<svg width="24" height="27" viewBox="0 0 24 27" fill="none" xmlns="http://www.w3.org/2000/svg">
<path fill-rule="evenodd" clip-rule="evenodd" d="M7.07743 5.0625H18.6196C19.1302 5.06367 19.6196 5.26739 19.9806 5.62907C20.3417 5.99075 20.5451 6.48096 20.5462 6.99245C20.5462 12.1153 20.5729 17.5316 20.5729 22.4143H17.967V21.1291H7.78774V22.4143H5.18188C5.18188 17.5227 5.1508 12.1286 5.1508 6.99245C5.15197 6.48096 5.35532 5.99075 5.71639 5.62907C6.07745 5.26739 6.56682 5.06367 7.07743 5.0625ZM21.5184 10.8435H23.3652V15.3393H21.5184V10.8479V10.8435ZM2.39844 10.8435H4.24072V15.3393H2.39844V10.8479V10.8435ZM7.72558 17.2692C7.97932 17.2692 8.22737 17.3446 8.43835 17.4858C8.64933 17.627 8.81376 17.8277 8.91086 18.0626C9.00797 18.2974 9.03339 18.5558 8.98388 18.8051C8.93438 19.0544 8.81218 19.2834 8.63276 19.4631C8.45333 19.6429 8.22473 19.7653 7.97586 19.8148C7.72699 19.8644 7.46904 19.839 7.23461 19.7417C7.00019 19.6444 6.79981 19.4797 6.65884 19.2684C6.51787 19.057 6.44262 18.8086 6.44262 18.5544C6.44262 18.2135 6.5778 17.8866 6.8184 17.6456C7.059 17.4046 7.38532 17.2692 7.72558 17.2692ZM7.08632 6.87683H18.6285V9.02469H7.08632V6.87683ZM7.08632 10.8435H18.6285V15.9841H7.08632V10.8479V10.8435ZM17.9936 17.2692C18.2474 17.2692 18.4954 17.3446 18.7064 17.4858C18.9174 17.627 19.0818 17.8277 19.1789 18.0626C19.276 18.2974 19.3015 18.5558 19.252 18.8051C19.2024 19.0544 19.0802 19.2834 18.9008 19.4631C18.7214 19.6429 18.4928 19.7653 18.2439 19.8148C17.9951 19.8644 17.7371 19.839 17.5027 19.7417C17.2683 19.6444 17.0679 19.4797 16.9269 19.2684C16.7859 19.057 16.7107 18.8086 16.7107 18.5544C16.7107 18.2135 16.8458 17.8866 17.0864 17.6456C17.327 17.4046 17.6534 17.2692 17.9936 17.2692Z" fill="white"/>
</svg>
