<svg width="24" height="24" viewBox="0 0 24 24" fill="none" xmlns="http://www.w3.org/2000/svg">
<rect width="24" height="24" rx="12" fill="white"/>
<path fill-rule="evenodd" clip-rule="evenodd" d="M18.0859 6.34033C18.4418 6.34115 18.7829 6.48291 19.0346 6.73458C19.2863 6.98626 19.428 7.32737 19.4289 7.68329C19.4289 11.2593 19.4506 15.037 19.4506 18.4425H17.6269V17.5461H14.75V13.9608H18.089V10.3723H14.75V9.10379H18.089V7.60885H14.75V6.34033H18.0859ZM18.1435 15.0082C17.9961 14.9097 17.8228 14.8571 17.6455 14.8571C17.4078 14.8571 17.1798 14.9516 17.0117 15.1197C16.8436 15.2877 16.7491 15.5157 16.7491 15.7535C16.7491 15.9307 16.8017 16.104 16.9002 16.2514C16.9987 16.3988 17.1387 16.5137 17.3025 16.5816C17.4663 16.6494 17.6465 16.6672 17.8203 16.6326C17.9942 16.598 18.1539 16.5126 18.2793 16.3873C18.4046 16.2619 18.49 16.1022 18.5246 15.9283C18.5592 15.7545 18.5414 15.5742 18.4736 15.4104C18.4057 15.2467 18.2909 15.1067 18.1435 15.0082Z" fill="#00B4FF"/>
<path fill-rule="evenodd" clip-rule="evenodd" d="M21.4014 10.3723H20.1112V13.5111H21.4014V10.3723Z" fill="#00B4FF"/>
<path fill-rule="evenodd" clip-rule="evenodd" d="M11.376 5.13045L13.2803 3.23853L14.2294 4.16898L12.3281 6.07022L11.376 5.12115V5.13045ZM14.7473 5.13045L16.6486 3.23853L17.5976 4.16898L15.6964 6.07022L14.7349 5.13045H14.7473Z" fill="#00B4FF"/>
<mask id="path-4-outside-1_267_2578" maskUnits="userSpaceOnUse" x="1.75" y="5.33887" width="15" height="14" fill="black">
<rect fill="white" x="1.75" y="5.33887" width="15" height="14"/>
<path fill-rule="evenodd" clip-rule="evenodd" d="M6.01901 6.33887H14.083C14.4392 6.33968 14.7806 6.48134 15.0328 6.73293C15.285 6.98451 15.4274 7.32562 15.429 7.68183C15.429 11.2579 15.4476 15.0355 15.4476 18.441H13.627V17.5447H6.51525V18.4348H4.69466C4.69466 15.0231 4.67605 11.2579 4.67605 7.67562C4.6785 7.32078 4.82097 6.98126 5.07247 6.73092C5.32397 6.48058 5.66415 6.33968 6.01901 6.33887ZM2.75 10.3708H4.04024V13.5096H2.75V10.3708ZM6.47183 14.8557C6.64897 14.8563 6.82197 14.9094 6.96896 15.0082C7.11596 15.1071 7.23036 15.2473 7.29772 15.4111C7.36509 15.575 7.3824 15.7551 7.34746 15.9288C7.31253 16.1024 7.22692 16.2618 7.10144 16.3869C6.97596 16.5119 6.81624 16.597 6.64246 16.6313C6.46867 16.6657 6.28861 16.6477 6.125 16.5798C5.9614 16.5119 5.82159 16.397 5.72323 16.2496C5.62488 16.1023 5.57239 15.9291 5.57239 15.752C5.57239 15.634 5.59567 15.5172 5.64091 15.4083C5.68615 15.2993 5.75245 15.2004 5.83602 15.1171C5.91958 15.0338 6.01875 14.9679 6.12786 14.923C6.23697 14.8781 6.35386 14.8552 6.47183 14.8557ZM6.01901 7.60739H14.083V9.10233H6.01901V7.60739ZM6.01901 10.3708H14.083V13.9593H6.01901V10.3708ZM13.6395 14.8557C13.8167 14.8557 13.99 14.9082 14.1374 15.0067C14.2848 15.1052 14.3997 15.2452 14.4676 15.409C14.5354 15.5728 14.5532 15.753 14.5186 15.9269C14.484 16.1007 14.3986 16.2604 14.2733 16.3858C14.1479 16.5112 13.9882 16.5965 13.8143 16.6311C13.6404 16.6657 13.4602 16.6479 13.2964 16.5801C13.1327 16.5123 12.9927 16.3974 12.8942 16.25C12.7957 16.1026 12.7431 15.9293 12.7431 15.752C12.7431 15.5143 12.8375 15.2863 13.0056 15.1182C13.1737 14.9501 13.4017 14.8557 13.6395 14.8557Z"/>
<path d="M6.01901 10.3708H14.083V13.9593H6.01901V10.3708Z"/>
<path d="M13.6395 14.8557C13.8167 14.8557 13.99 14.9082 14.1374 15.0067C14.2848 15.1052 14.3997 15.2452 14.4676 15.409C14.5354 15.5728 14.5532 15.753 14.5186 15.9269C14.484 16.1007 14.3986 16.2604 14.2733 16.3858C14.1479 16.5112 13.9882 16.5965 13.8143 16.6311C13.6404 16.6657 13.4602 16.6479 13.2964 16.5801C13.1327 16.5123 12.9927 16.3974 12.8942 16.25C12.7957 16.1026 12.7431 15.9293 12.7431 15.752C12.7431 15.5143 12.8375 15.2863 13.0056 15.1182C13.1737 14.9501 13.4017 14.8557 13.6395 14.8557Z"/>
<path d="M6.47183 14.8557C6.64897 14.8563 6.82197 14.9094 6.96896 15.0082C7.11596 15.1071 7.23036 15.2473 7.29772 15.4111C7.36509 15.575 7.3824 15.7551 7.34746 15.9288C7.31253 16.1024 7.22692 16.2618 7.10144 16.3869C6.97596 16.5119 6.81624 16.597 6.64246 16.6313C6.46867 16.6657 6.28861 16.6477 6.125 16.5798C5.9614 16.5119 5.82159 16.397 5.72323 16.2496C5.62488 16.1023 5.57239 15.9291 5.57239 15.752C5.57239 15.634 5.59567 15.5172 5.64091 15.4083C5.68615 15.2993 5.75245 15.2004 5.83602 15.1171C5.91958 15.0338 6.01875 14.9679 6.12786 14.923C6.23697 14.8781 6.35386 14.8552 6.47183 14.8557Z"/>
<path d="M6.01901 7.60739H14.083V9.10233H6.01901V7.60739Z"/>
</mask>
<path fill-rule="evenodd" clip-rule="evenodd" d="M6.01901 6.33887H14.083C14.4392 6.33968 14.7806 6.48134 15.0328 6.73293C15.285 6.98451 15.4274 7.32562 15.429 7.68183C15.429 11.2579 15.4476 15.0355 15.4476 18.441H13.627V17.5447H6.51525V18.4348H4.69466C4.69466 15.0231 4.67605 11.2579 4.67605 7.67562C4.6785 7.32078 4.82097 6.98126 5.07247 6.73092C5.32397 6.48058 5.66415 6.33968 6.01901 6.33887ZM2.75 10.3708H4.04024V13.5096H2.75V10.3708ZM6.47183 14.8557C6.64897 14.8563 6.82197 14.9094 6.96896 15.0082C7.11596 15.1071 7.23036 15.2473 7.29772 15.4111C7.36509 15.575 7.3824 15.7551 7.34746 15.9288C7.31253 16.1024 7.22692 16.2618 7.10144 16.3869C6.97596 16.5119 6.81624 16.597 6.64246 16.6313C6.46867 16.6657 6.28861 16.6477 6.125 16.5798C5.9614 16.5119 5.82159 16.397 5.72323 16.2496C5.62488 16.1023 5.57239 15.9291 5.57239 15.752C5.57239 15.634 5.59567 15.5172 5.64091 15.4083C5.68615 15.2993 5.75245 15.2004 5.83602 15.1171C5.91958 15.0338 6.01875 14.9679 6.12786 14.923C6.23697 14.8781 6.35386 14.8552 6.47183 14.8557ZM6.01901 7.60739H14.083V9.10233H6.01901V7.60739ZM6.01901 10.3708H14.083V13.9593H6.01901V10.3708ZM13.6395 14.8557C13.8167 14.8557 13.99 14.9082 14.1374 15.0067C14.2848 15.1052 14.3997 15.2452 14.4676 15.409C14.5354 15.5728 14.5532 15.753 14.5186 15.9269C14.484 16.1007 14.3986 16.2604 14.2733 16.3858C14.1479 16.5112 13.9882 16.5965 13.8143 16.6311C13.6404 16.6657 13.4602 16.6479 13.2964 16.5801C13.1327 16.5123 12.9927 16.3974 12.8942 16.25C12.7957 16.1026 12.7431 15.9293 12.7431 15.752C12.7431 15.5143 12.8375 15.2863 13.0056 15.1182C13.1737 14.9501 13.4017 14.8557 13.6395 14.8557Z" fill="#00B400"/>
<path d="M6.01901 10.3708H14.083V13.9593H6.01901V10.3708Z" fill="white"/>
<path d="M13.6395 14.8557C13.8167 14.8557 13.99 14.9082 14.1374 15.0067C14.2848 15.1052 14.3997 15.2452 14.4676 15.409C14.5354 15.5728 14.5532 15.753 14.5186 15.9269C14.484 16.1007 14.3986 16.2604 14.2733 16.3858C14.1479 16.5112 13.9882 16.5965 13.8143 16.6311C13.6404 16.6657 13.4602 16.6479 13.2964 16.5801C13.1327 16.5123 12.9927 16.3974 12.8942 16.25C12.7957 16.1026 12.7431 15.9293 12.7431 15.752C12.7431 15.5143 12.8375 15.2863 13.0056 15.1182C13.1737 14.9501 13.4017 14.8557 13.6395 14.8557Z" fill="white"/>
<path d="M6.47183 14.8557C6.64897 14.8563 6.82197 14.9094 6.96896 15.0082C7.11596 15.1071 7.23036 15.2473 7.29772 15.4111C7.36509 15.575 7.3824 15.7551 7.34746 15.9288C7.31253 16.1024 7.22692 16.2618 7.10144 16.3869C6.97596 16.5119 6.81624 16.597 6.64246 16.6313C6.46867 16.6657 6.28861 16.6477 6.125 16.5798C5.9614 16.5119 5.82159 16.397 5.72323 16.2496C5.62488 16.1023 5.57239 15.9291 5.57239 15.752C5.57239 15.634 5.59567 15.5172 5.64091 15.4083C5.68615 15.2993 5.75245 15.2004 5.83602 15.1171C5.91958 15.0338 6.01875 14.9679 6.12786 14.923C6.23697 14.8781 6.35386 14.8552 6.47183 14.8557Z" fill="white"/>
<path d="M6.01901 7.60739H14.083V9.10233H6.01901V7.60739Z" fill="white"/>
<path d="M6.47183 14.8557L6.47269 14.6057L6.47183 14.8557ZM5.57239 15.752L5.32239 15.752L5.57239 15.752ZM6.01901 7.60739V7.35739H5.76901V7.60739H6.01901ZM14.083 7.60739H14.333V7.35739H14.083V7.60739ZM14.083 9.10233V9.35233H14.333V9.10233H14.083ZM6.01901 9.10233H5.76901V9.35233H6.01901V9.10233ZM6.01901 10.3708V10.1208H5.76901V10.3708H6.01901ZM14.083 10.3708H14.333V10.1208H14.083V10.3708ZM14.083 13.9593V14.2093H14.333V13.9593H14.083ZM6.01901 13.9593H5.76901V14.2093H6.01901V13.9593ZM13.6395 14.8557V14.6057V14.8557ZM6.47096 15.1056C6.5987 15.1061 6.72345 15.1444 6.82944 15.2157L7.10848 14.8008C6.92049 14.6743 6.69925 14.6064 6.47269 14.6057L6.47096 15.1056ZM6.82944 15.2157C6.93544 15.287 7.01793 15.3881 7.06651 15.5062L7.52894 15.316C7.44279 15.1065 7.29647 14.9272 7.10848 14.8008L6.82944 15.2157ZM7.06651 15.5062C7.11508 15.6243 7.12756 15.7542 7.10237 15.8795L7.59255 15.9781C7.63723 15.756 7.6151 15.5256 7.52894 15.316L7.06651 15.5062ZM7.10237 15.8795C7.07718 16.0047 7.01545 16.1196 6.92497 16.2098L7.27791 16.564C7.43839 16.404 7.54788 16.2002 7.59255 15.9781L7.10237 15.8795ZM6.92497 16.2098C6.83449 16.3 6.71932 16.3613 6.594 16.3861L6.69091 16.8766C6.91317 16.8327 7.11744 16.7239 7.27791 16.564L6.92497 16.2098ZM6.594 16.3861C6.46868 16.4108 6.33884 16.3979 6.22087 16.3489L6.02913 16.8107C6.23837 16.8976 6.46865 16.9205 6.69091 16.8766L6.594 16.3861ZM6.22087 16.3489C6.1029 16.2999 6.00208 16.2171 5.93116 16.1108L5.51531 16.3885C5.64109 16.5769 5.8199 16.7238 6.02913 16.8107L6.22087 16.3489ZM5.93116 16.1108C5.86024 16.0046 5.82239 15.8797 5.82239 15.752L5.32239 15.752C5.32239 15.9785 5.38952 16.2 5.51531 16.3885L5.93116 16.1108ZM5.82239 15.752C5.82239 15.6669 5.83918 15.5827 5.8718 15.5041L5.41002 15.3124C5.35217 15.4517 5.32239 15.6011 5.32239 15.752L5.82239 15.752ZM5.8718 15.5041C5.90442 15.4256 5.95223 15.3542 6.01249 15.2942L5.65954 14.94C5.55268 15.0465 5.46788 15.173 5.41002 15.3124L5.8718 15.5041ZM6.01249 15.2942C6.07274 15.2341 6.14426 15.1866 6.22293 15.1542L6.03279 14.6918C5.89325 14.7491 5.76641 14.8335 5.65954 14.94L6.01249 15.2942ZM6.22293 15.1542C6.30161 15.1219 6.3859 15.1054 6.47096 15.1056L6.47269 14.6057C6.32182 14.6051 6.17233 14.6344 6.03279 14.6918L6.22293 15.1542ZM6.01901 7.85739H14.083V7.35739H6.01901V7.85739ZM13.833 7.60739V9.10233H14.333V7.60739H13.833ZM14.083 8.85233H6.01901V9.35233H14.083V8.85233ZM6.26901 9.10233V7.60739H5.76901V9.10233H6.26901ZM6.01901 10.6208H14.083V10.1208H6.01901V10.6208ZM13.833 10.3708V13.9593H14.333V10.3708H13.833ZM14.083 13.7093H6.01901V14.2093H14.083V13.7093ZM6.26901 13.9593V10.3708H5.76901V13.9593H6.26901ZM13.6395 15.1057C13.7673 15.1057 13.8922 15.1436 13.9985 15.2146L14.2763 14.7988C14.0878 14.6729 13.8662 14.6057 13.6395 14.6057V15.1057ZM13.9985 15.2146C14.1048 15.2856 14.1877 15.3865 14.2366 15.5046L14.6985 15.3133C14.6118 15.1038 14.4648 14.9248 14.2763 14.7988L13.9985 15.2146ZM14.2366 15.5046C14.2855 15.6228 14.2983 15.7527 14.2734 15.8781L14.7638 15.9756C14.808 15.7533 14.7853 15.5228 14.6985 15.3133L14.2366 15.5046ZM14.2734 15.8781C14.2484 16.0035 14.1869 16.1186 14.0965 16.209L14.45 16.5626C14.6104 16.4023 14.7195 16.198 14.7638 15.9756L14.2734 15.8781ZM14.0965 16.209C14.0061 16.2994 13.8909 16.361 13.7655 16.3859L13.8631 16.8763C14.0855 16.8321 14.2897 16.7229 14.45 16.5626L14.0965 16.209ZM13.7655 16.3859C13.6402 16.4109 13.5102 16.3981 13.3921 16.3491L13.2008 16.8111C13.4102 16.8978 13.6407 16.9205 13.8631 16.8763L13.7655 16.3859ZM13.3921 16.3491C13.274 16.3002 13.1731 16.2174 13.102 16.1111L12.6863 16.3889C12.8123 16.5774 12.9913 16.7243 13.2008 16.8111L13.3921 16.3491ZM13.102 16.1111C13.031 16.0048 12.9931 15.8798 12.9931 15.752H12.4931C12.4931 15.9787 12.5603 16.2003 12.6863 16.3889L13.102 16.1111ZM12.9931 15.752C12.9931 15.5806 13.0612 15.4162 13.1824 15.295L12.8289 14.9414C12.6139 15.1564 12.4931 15.448 12.4931 15.752H12.9931ZM13.1824 15.295C13.3036 15.1737 13.468 15.1057 13.6395 15.1057V14.6057C13.3354 14.6057 13.0438 14.7264 12.8289 14.9414L13.1824 15.295ZM6.01901 6.33887V5.83887L6.01787 5.83887L6.01901 6.33887ZM14.083 6.33887L14.0841 5.83887H14.083V6.33887ZM15.429 7.68183H15.929L15.929 7.67953L15.429 7.68183ZM15.4476 18.441V18.941H15.9476V18.441H15.4476ZM13.627 18.441H13.127V18.941H13.627V18.441ZM13.627 17.5447H14.127V17.0447H13.627V17.5447ZM6.51525 17.5447V17.0447H6.01525V17.5447H6.51525ZM6.51525 18.4348V18.9348H7.01525V18.4348H6.51525ZM4.69466 18.4348H4.19466V18.9348H4.69466V18.4348ZM4.67605 7.67562L4.17605 7.67217V7.67562H4.67605ZM2.75 10.3708V9.87085H2.25V10.3708H2.75ZM4.04024 10.3708H4.54024V9.87085H4.04024V10.3708ZM4.04024 13.5096V14.0096H4.54024V13.5096H4.04024ZM2.75 13.5096H2.25V14.0096H2.75V13.5096ZM6.01901 6.83887H14.083V5.83887H6.01901V6.83887ZM14.0818 6.83887C14.306 6.83938 14.5209 6.92854 14.6796 7.08689L15.3859 6.37896C15.0403 6.03414 14.5723 5.83999 14.0841 5.83887L14.0818 6.83887ZM14.6796 7.08689C14.8384 7.24524 14.928 7.45993 14.929 7.68413L15.929 7.67953C15.9268 7.19131 15.7316 6.72379 15.3859 6.37896L14.6796 7.08689ZM14.929 7.68183C14.929 9.4706 14.9337 11.3097 14.9383 13.1267C14.943 14.9439 14.9476 16.739 14.9476 18.441H15.9476C15.9476 16.7375 15.943 14.9411 15.9383 13.1241C15.9337 11.3069 15.929 9.46911 15.929 7.68183H14.929ZM15.4476 17.941H13.627V18.941H15.4476V17.941ZM14.127 18.441V17.5447H13.127V18.441H14.127ZM13.627 17.0447H6.51525V18.0447H13.627V17.0447ZM6.01525 17.5447V18.4348H7.01525V17.5447H6.01525ZM6.51525 17.9348H4.69466V18.9348H6.51525V17.9348ZM5.19466 18.4348C5.19466 16.7282 5.19 14.9333 5.18535 13.1179C5.1807 11.3022 5.17605 9.46601 5.17605 7.67562H4.17605C4.17605 9.4675 4.1807 11.305 4.18535 13.1205C4.19001 14.9362 4.19466 16.7297 4.19466 18.4348H5.19466ZM5.17603 7.67908C5.17758 7.45604 5.26713 7.24264 5.42521 7.08529L4.71974 6.37655C4.37482 6.71987 4.17942 7.18551 4.17606 7.67217L5.17603 7.67908ZM5.42521 7.08529C5.58329 6.92794 5.79711 6.83937 6.02015 6.83887L6.01787 5.83887C5.5312 5.83998 5.06466 6.03322 4.71974 6.37655L5.42521 7.08529ZM2.75 10.8708H4.04024V9.87085H2.75V10.8708ZM3.54024 10.3708V13.5096H4.54024V10.3708H3.54024ZM4.04024 13.0096H2.75V14.0096H4.04024V13.0096ZM3.25 13.5096V10.3708H2.25V13.5096H3.25Z" fill="white" mask="url(#path-4-outside-1_267_2578)"/>
</svg>
