<svg width="26" height="26" viewBox="0 0 26 26" fill="none" xmlns="http://www.w3.org/2000/svg">
<rect x="0.5" y="0.5" width="25" height="25" rx="12.5" fill="white"/>
<path fill-rule="evenodd" clip-rule="evenodd" d="M8.91744 7H16.9814C17.3376 7.00082 17.679 7.14247 17.9312 7.39406C18.1834 7.64565 18.3258 7.98675 18.3275 8.34296C18.3275 11.919 18.3461 15.6967 18.3461 19.1021H16.5255V18.2058H9.41369V19.0959H7.59309C7.59309 15.6843 7.57448 11.919 7.57448 8.33676C7.57694 7.98191 7.71941 7.64239 7.97091 7.39205C8.22241 7.14171 8.56259 7.00081 8.91744 7ZM19.0067 11.032H20.2969V14.1707H19.0067V11.032ZM5.64844 11.032H6.93867V14.1707H5.64844V11.032ZM9.37027 15.5168C9.54741 15.5174 9.72041 15.5705 9.8674 15.6694C10.0144 15.7682 10.1288 15.9084 10.1962 16.0723C10.2635 16.2361 10.2808 16.4162 10.2459 16.5899C10.211 16.7636 10.1254 16.923 9.99988 17.048C9.8744 17.1731 9.71468 17.2581 9.54089 17.2925C9.36711 17.3268 9.18704 17.3089 9.02344 17.2409C8.85983 17.173 8.72003 17.0581 8.62167 16.9108C8.52332 16.7634 8.47082 16.5903 8.47082 16.4131C8.47082 16.2952 8.49411 16.1783 8.53935 16.0694C8.58459 15.9604 8.65089 15.8615 8.73445 15.7782C8.81801 15.6949 8.91719 15.629 9.0263 15.5841C9.13541 15.5393 9.2523 15.5164 9.37027 15.5168ZM8.91744 8.26852H16.9814V9.76346H8.91744V8.26852ZM8.91744 11.032H16.9814V14.6204H8.91744V11.032ZM16.5379 15.5168C16.7152 15.5168 16.8885 15.5694 17.0359 15.6678C17.1833 15.7663 17.2982 15.9063 17.366 16.0701C17.4338 16.2339 17.4516 16.4141 17.417 16.588C17.3824 16.7619 17.2971 16.9216 17.1717 17.0469C17.0463 17.1723 16.8866 17.2577 16.7128 17.2922C16.5389 17.3268 16.3587 17.3091 16.1949 17.2412C16.0311 17.1734 15.8911 17.0585 15.7926 16.9111C15.6941 16.7637 15.6415 16.5904 15.6415 16.4131C15.6415 16.1754 15.736 15.9474 15.9041 15.7793C16.0722 15.6112 16.3002 15.5168 16.5379 15.5168Z" fill="#00B400"/>
<rect x="0.5" y="0.5" width="25" height="25" rx="12.5" stroke="#E6E4E0"/>
</svg>
