<svg width="32" height="24" viewBox="0 0 32 24" fill="none" xmlns="http://www.w3.org/2000/svg"><path fill-rule="evenodd" clip-rule="evenodd" d="m15.996 2.855.006-.007 1.264 1.26L19.8 1.573 18.535.332l-2.533 2.516-.006-.006v.013Zm4.495 0L23.026.332l1.266 1.24-2.535 2.536-1.282-1.253h.016Zm8.872 7.306h-1.72v4.185h1.72v-4.185Zm-3.155-4.85a1.795 1.795 0 0 0-1.265-.526h-4.818l.054.052c.438.438.695 1.023.722 1.64h4.046V8.47h-4.043l.003 1.691h4.04v4.785h-4.029c.004 1.622.008 3.225.01 4.78h3.403v1.195h2.431c0-2.241-.007-4.603-.014-6.994v-.004c-.007-2.452-.015-4.934-.015-7.347a1.795 1.795 0 0 0-.525-1.265Zm-1.189 11.031a1.195 1.195 0 1 0-1.327 1.986 1.195 1.195 0 0 0 1.327-1.986Z" fill="#00B4FF"/><path fill-rule="evenodd" clip-rule="evenodd" d="M7.69 4.785h10.753a1.799 1.799 0 0 1 1.794 1.79c0 4.769.025 9.806.025 14.346h-2.427v-1.195H8.352v1.187H5.925c0-4.549-.025-9.57-.025-14.346a1.795 1.795 0 0 1 1.79-1.782Zm-4.358 5.376h1.72v4.185h-1.72v-4.185Zm4.962 5.98a1.195 1.195 0 1 1-.008 2.39 1.195 1.195 0 0 1 .008-2.39Zm-.603-9.664h10.752V8.47H7.69V6.477Zm0 3.684h10.752v4.785H7.69V10.16Zm10.16 5.98a1.195 1.195 0 1 1 0 2.39 1.195 1.195 0 0 1 0-2.39Z" fill="#00B400"/></svg>