<svg width="25" height="27" viewBox="0 0 25 27" fill="none" xmlns="http://www.w3.org/2000/svg">
<path fill-rule="evenodd" clip-rule="evenodd" d="M5.679 4H17.2211C17.7318 4.00117 18.2211 4.20489 18.5822 4.56657C18.9433 4.92825 19.1466 5.41846 19.1478 5.92995C19.1478 11.0528 19.1744 16.4691 19.1744 21.3518H16.5686V20.0666H6.3893V21.3518H3.78344C3.78344 16.4602 3.75236 11.0661 3.75236 5.92995C3.75353 5.41846 3.95689 4.92825 4.31795 4.56657C4.67901 4.20489 5.16838 4.00117 5.679 4ZM20.12 9.78096H21.9667V14.2768H20.12V9.78542V9.78096ZM1 9.78096H2.84229V14.2768H1V9.78542V9.78096ZM6.32714 16.2067C6.58089 16.2067 6.82893 16.2821 7.03991 16.4233C7.25089 16.5645 7.41532 16.7652 7.51242 17.0001C7.60953 17.2349 7.63495 17.4933 7.58545 17.7426C7.53594 17.9919 7.41374 18.2209 7.23432 18.4006C7.05489 18.5804 6.82629 18.7028 6.57742 18.7523C6.32855 18.8019 6.07061 18.7765 5.83618 18.6792C5.60175 18.5819 5.40138 18.4172 5.2604 18.2059C5.11943 17.9945 5.04418 17.7461 5.04418 17.4919C5.04418 17.151 5.17937 16.8241 5.41997 16.5831C5.66057 16.3421 5.98688 16.2067 6.32714 16.2067ZM5.68788 5.81433H17.23V7.96219H5.68788V5.81433ZM5.68788 9.78096H17.23V14.9216H5.68788V9.78542V9.78096ZM16.5952 16.2067C16.849 16.2067 17.097 16.2821 17.308 16.4233C17.519 16.5645 17.6834 16.7652 17.7805 17.0001C17.8776 17.2349 17.903 17.4933 17.8535 17.7426C17.804 17.9919 17.6818 18.2209 17.5024 18.4006C17.323 18.5804 17.0944 18.7028 16.8455 18.7523C16.5966 18.8019 16.3387 18.7765 16.1042 18.6792C15.8698 18.5819 15.6694 18.4172 15.5285 18.2059C15.3875 17.9945 15.3123 17.7461 15.3123 17.4919C15.3123 17.151 15.4474 16.8241 15.688 16.5831C15.9286 16.3421 16.255 16.2067 16.5952 16.2067Z" fill="white"/>
</svg>
