<svg width="14" height="17" viewBox="0 0 14 17" fill="none" xmlns="http://www.w3.org/2000/svg">
<path d="M8.47734 8.21964C8.86639 6.7568 8.25169 5.35232 6.58265 5.61687C7.38356 7.0561 7.70131 8.71441 7.48915 10.3478C7.47285 10.4691 7.43049 10.5855 7.36495 10.6889C7.29942 10.7923 7.21228 10.8803 7.10952 10.9468C7.00676 11.0133 6.89081 11.0568 6.76964 11.0743C6.64847 11.0918 6.52496 11.0828 6.40758 11.048C5.91333 10.8801 5.38529 10.8366 4.87022 10.9214C4.35516 11.0062 3.86896 11.2168 3.45467 11.5344C2.45481 12.3669 2.15912 13.7948 2.18636 15.0358L0.505655 15.0708C0.47064 13.289 0.956957 11.4254 2.37311 10.2466C2.85844 9.85104 3.41902 9.55811 4.02089 9.38558C4.62276 9.21304 5.25339 9.16448 5.87458 9.24284C5.83672 7.94927 5.41411 6.69634 4.66073 5.64411C4.52815 5.46844 4.46978 5.24778 4.49815 5.02953C4.52652 4.81128 4.63937 4.61288 4.81246 4.47695C6.45426 3.30979 9.17763 3.90504 10.0063 5.89699C10.3424 6.76802 10.3793 7.72604 10.1114 8.62036L8.48512 8.19629L8.47734 8.21964ZM3.68421 0.757611C3.99176 0.672573 4.31761 0.680572 4.62062 0.780597C4.92363 0.880621 5.1902 1.06818 5.38668 1.3196C5.58316 1.57103 5.70074 1.87503 5.72456 2.19323C5.74839 2.51143 5.67739 2.82955 5.52054 3.10743C5.36369 3.38531 5.12802 3.61048 4.84329 3.75451C4.55856 3.89854 4.23753 3.95498 3.92075 3.91669C3.60397 3.87839 3.30563 3.7471 3.06342 3.53937C2.8212 3.33164 2.64597 3.0568 2.55985 2.74956C2.44509 2.33632 2.49904 1.89442 2.70986 1.52093C2.92068 1.14744 3.27112 0.872904 3.68421 0.757611ZM11.6092 7.54658C12.2826 7.99028 12.8348 8.59485 13.2158 9.30561C13.5968 10.0164 13.7946 10.8109 13.7914 11.6173C13.7881 12.4238 13.5839 13.2167 13.1972 13.9243C12.8104 14.632 12.2534 15.2321 11.5764 15.6703C10.8994 16.1086 10.1239 16.3712 9.31992 16.4343C8.51596 16.4975 7.70893 16.3592 6.97182 16.0321C6.23472 15.7049 5.5908 15.1992 5.09829 14.5606C4.60578 13.922 4.28023 13.1708 4.15108 12.3747L5.80844 12.0907C5.89006 12.6133 6.10114 13.1073 6.42245 13.5275C6.74376 13.9477 7.16509 14.2808 7.64807 14.4965C8.13105 14.7123 8.66033 14.8037 9.1877 14.7626C9.71507 14.7215 10.2238 14.5491 10.6675 14.2611C11.1112 13.9731 11.4758 13.5787 11.7281 13.1138C11.9804 12.6489 12.1124 12.1282 12.112 11.5993C12.1117 11.0703 11.979 10.5498 11.726 10.0852C11.4731 9.62067 11.1079 9.22676 10.6638 8.93938L11.6092 7.54658Z" fill="#00B4FF"/>
</svg>
