<svg width="25" height="24" viewBox="0 0 25 24" fill="none" xmlns="http://www.w3.org/2000/svg"><path fill-rule="evenodd" clip-rule="evenodd" d="M6.464 4.781h10.752a1.799 1.799 0 0 1 1.795 1.79c0 4.769.025 9.806.025 14.346h-2.428v-1.195H7.126v1.187H4.698c0-4.549-.024-9.57-.024-14.345a1.795 1.795 0 0 1 1.79-1.783Zm13.452 5.376h1.72v4.185h-1.72v-4.185Zm-17.81 0h1.72v4.185h-1.72v-4.185Zm4.962 5.98a1.195 1.195 0 1 1-.008 2.39 1.195 1.195 0 0 1 .008-2.39Zm-.604-9.664h10.752v1.993H6.464V6.473Zm0 3.684h10.752v4.785H6.464v-4.785Zm10.16 5.98a1.195 1.195 0 1 1 0 2.39 1.195 1.195 0 0 1 0-2.39Z" fill="#00B400"/></svg>