<svg width="64" height="66" viewBox="0 0 64 66" fill="none" xmlns="http://www.w3.org/2000/svg">
<rect x="1" y="1" width="62" height="64" rx="31" fill="black"/>
<circle cx="32.0028" cy="31.9989" r="11" transform="rotate(30 32.0028 31.9989)" fill="#00B400"/>
<circle cx="50" cy="32" r="6" fill="#00B4FF"/>
<circle cx="14" cy="32" r="6" fill="#00B400"/>
<circle cx="32" cy="14" r="6" fill="#FFC800"/>
<circle cx="32" cy="50" r="6" fill="#00B4FF"/>
<circle cx="20" cy="44" r="4" fill="#00B4FF"/>
<circle cx="20" cy="20" r="4" fill="#00B4FF"/>
<circle cx="20" cy="10" r="2" fill="#FFC800"/>
<circle r="2" transform="matrix(-1 0 0 1 44 10)" fill="#FFC800"/>
<circle cx="54" cy="43" r="3" fill="#00B400"/>
<circle r="3" transform="matrix(-1 0 0 1 10 43)" fill="#FFC800"/>
<circle r="1" transform="matrix(-1 0 0 1 14 50)" fill="#FFC800"/>
<circle r="1" transform="matrix(-1 0 0 1 5 32)" fill="#FFC800"/>
<circle r="1" transform="matrix(-1 0 0 1 32 59)" fill="#00D200"/>
<circle r="1" transform="matrix(-1 0 0 1 32 5)" fill="#00B4FF"/>
<circle r="1" transform="matrix(-1 0 0 1 59 32)" fill="#FFC800"/>
<circle r="1" transform="matrix(-1 0 0 1 14 14)" fill="#00B400"/>
<circle r="1" transform="matrix(-1 0 0 1 50 50)" fill="#00B4FF"/>
<circle r="1" transform="matrix(-1 0 0 1 50 14)" fill="#FFC800"/>
<circle cx="10" cy="21" r="3" fill="#FFC800"/>
<circle r="3" transform="matrix(-1 0 0 1 54 21)" fill="#00B4FF"/>
<circle cx="43" cy="54" r="2" fill="#FFC800"/>
<circle r="2" transform="matrix(-1 0 0 1 20 54)" fill="#00B400"/>
<circle cx="44" cy="44" r="4" fill="#FFC800"/>
<circle cx="44" cy="20" r="4" fill="#00B400"/>
<path d="M28.187 30.4711H25V29.6695H25.3881V27.6024H25V26.8008H28.187V28.0243H27.3903V27.6024H26.4098V28.2142H27.3291V29.0158H26.4098V29.6698H27.3903V29.2479H28.187V30.4711ZM30.2387 30.4711H28.4817V29.6695H28.9107V27.6024H28.4817V26.8008H30.2796V27.6024H29.9324V28.2351H30.3001C30.77 28.2351 31.0559 28.0031 31.0559 27.6024H30.7494V26.8008H32.4451V27.6024H32.0159C32.0159 28.151 31.6482 28.6148 31.2804 28.8259C31.3825 29.3955 31.6978 29.6698 32.3924 29.6276L33.1688 27.6027H32.9031V26.8008H34.9052L35.9675 29.6695H36.3352V30.4711H34.5374V29.6695H34.8234L34.7416 29.3952H33.5566L33.4748 29.6695H33.8017V30.4711H33.096C31.8701 30.4711 31.7097 30.4711 31.2601 30.2813C30.8312 30.0914 30.5043 29.6273 30.3408 29.0368H29.9321V29.6695H30.2387V30.4711ZM33.8228 28.5936H34.4562L34.1293 27.7075L33.8228 28.5936ZM30.2479 34.7912H28.4817V33.979H28.8994V31.9068H28.4817V31.1275H30.654C31.604 31.1275 32.0831 31.6631 32.0831 32.3439C32.0831 32.7416 31.8742 33.1832 31.4407 33.432C31.5047 33.8298 31.8393 33.9792 32.2538 33.9792H32.9173V31.9068H32.3551V31.1275H34.4906V31.9068H33.9285V33.979H34.4906V34.7912H32.2096C31.1755 34.7912 30.6856 34.3767 30.4452 33.5974H29.9427V33.9787H30.2477V34.7912H30.2479ZM29.9427 32.8019H30.4213C30.7417 32.8019 31.0055 32.6851 31.0055 32.3542C31.0055 32.0037 30.7417 31.9066 30.4213 31.9066H29.9427V32.8019ZM28.187 33.5746H27.3903V33.9965H26.4098V33.3425H27.3291V32.5409H26.4098V31.9291H27.3903V32.351H28.187V31.1275H25V31.9291H25.3881V33.9962H25V34.7979H28.187V33.5746ZM35.7458 26.8008V28.0031H36.5016V27.6024H36.9306V29.6695H36.5628V30.4711H38.3607V29.6695H37.9726V27.6024H38.4016V28.0031H39.1779V26.8008H35.7458ZM37.3145 31.9068H37.7468V33.231L36.3165 31.1275H34.79V31.9066H35.2086V33.9787H34.79V34.7909H36.6364V33.9787H36.2203V32.7042L37.6185 34.7909H38.7585V31.9068H39.1453V31.1278H37.3148V31.9068H37.3145ZM28.2752 38.0072C28.2752 38.5542 27.8885 39.1015 27.1368 39.1015H25V38.3057H25.3693V36.2335H25V35.4213H26.8858C27.6133 35.4213 27.9702 35.9019 27.9702 36.416C27.9702 36.648 27.89 36.8801 27.6971 37.0957C28.1148 37.2946 28.2752 37.6427 28.2752 38.0072ZM26.4129 36.8634H26.686C26.9107 36.8634 27.0231 36.7141 27.0231 36.5485C27.0231 36.3828 26.9107 36.2335 26.686 36.2335H26.4129V36.8634ZM27.2638 37.9576C27.2638 37.7752 27.1193 37.5928 26.8945 37.5928H26.4129V38.3057H26.8786C27.1193 38.3057 27.2638 38.1233 27.2638 37.9576ZM37.4151 36.9706H39.1288V38.3421C38.8879 38.8062 38.3422 39.1679 37.5233 39.1679C37.0417 39.1679 36.6564 39.0351 36.4479 38.8697C35.6743 39.3553 34.3245 39.2544 33.8467 37.9079H33.3871V38.3057H33.7024V39.1015H31.9362V38.3057H32.3757V36.2335H31.7433V37.6095C31.7433 38.6371 31.0369 39.2008 30.1217 39.2008C29.3191 39.2008 28.5003 38.7037 28.5003 37.6095V36.2335H28.1631V35.4213H29.9615V36.2335H29.576V37.6594C29.576 38.0736 29.8812 38.3057 30.17 38.3057C30.4591 38.3057 30.7319 38.0904 30.7319 37.6594V36.2335H30.2662V35.4213H34.0552C35.0052 35.4213 35.4843 35.9566 35.4843 36.6377C35.4843 37.0373 35.2737 37.481 34.836 37.729C35.0181 38.2802 35.5715 38.3888 35.8374 38.1235C35.7091 37.8583 35.6607 37.5598 35.6607 37.2614C35.6607 36.2779 36.2527 35.3552 37.4747 35.3552C38.1807 35.3552 38.6063 35.5628 38.9455 35.8554V36.7152H38.0464L38.0426 36.3318C37.9039 36.2431 37.7422 36.2022 37.539 36.2022C37.007 36.2022 36.6878 36.5931 36.6878 37.2452C36.6878 37.8418 37.0252 38.2863 37.539 38.3028C37.8121 38.3028 38.0222 38.2425 38.2293 38.0574V37.7502H37.4146V36.9706H37.4151ZM34.4376 36.6812C34.4376 36.3307 34.1738 36.2335 33.8534 36.2335H33.3869V37.1289H33.8534C34.1738 37.1289 34.4376 37.0118 34.4376 36.6812Z" fill="white"/>
<rect x="1" y="1" width="62" height="64" rx="31" stroke="#F2F2F2" stroke-width="2"/>
</svg>
