<svg width="33" height="32" viewBox="0 0 33 32" fill="none" xmlns="http://www.w3.org/2000/svg">
<path d="M12.5709 27.6987V20.8687C14.3648 20.8692 16.1444 21.188 17.8269 21.8103C18.1158 21.9069 18.4272 21.9144 18.7205 21.8317C19.0137 21.749 19.2753 21.5799 19.4711 21.3465C21.9235 18.4304 22.3872 14.7906 22.0218 11.1226C22.0012 10.8094 21.8847 10.51 21.6883 10.2651C21.4918 10.0201 21.2249 9.84149 20.9236 9.75331C20.6222 9.66514 20.3011 9.67168 20.0036 9.77206C19.7061 9.87244 19.4466 10.0618 19.2603 10.3145C16.7869 13.1252 12.9363 13.069 9.63372 13.0128L9.50725 18.4585C5.82524 20.0536 5.01015 24.0799 5.05231 27.6987H8.1019C8.06677 25.0004 8.57972 23.1945 9.50725 22.1476V27.7127H12.5498L12.5709 27.6987ZM13.379 24.888L23.1672 27.7408L28.0508 10.7783L25.1066 9.94215L21.0732 23.9323L14.2292 21.9367L13.379 24.8669V24.888ZM20.3214 3.10512C19.763 2.95139 19.1716 2.96656 18.6219 3.14873C18.0722 3.33091 17.5887 3.67193 17.2327 4.12868C16.8766 4.58542 16.6639 5.13744 16.6214 5.71501C16.5788 6.29258 16.7084 6.8698 16.9937 7.37378C17.279 7.87775 17.7073 8.28586 18.2245 8.54658C18.7416 8.80731 19.3244 8.90894 19.8992 8.83865C20.4741 8.76836 21.0152 8.52931 21.4543 8.15167C21.8933 7.77403 22.2107 7.27473 22.3661 6.71686C22.4697 6.34545 22.4989 5.95727 22.4521 5.57455C22.4053 5.19183 22.2834 4.8221 22.0934 4.48657C21.9035 4.15104 21.6492 3.85631 21.3451 3.61926C21.041 3.3822 20.6931 3.20746 20.3214 3.10512ZM12.592 17.8612V16.1186C15.6346 15.8867 17.061 15.6689 19.0355 14.636C18.9257 16.0488 18.4852 17.416 17.7496 18.6272C16.0805 18.106 14.3405 17.8476 12.592 17.8612Z" fill="#00B400"/>
</svg>
