<svg width="33" height="32" viewBox="0 0 33 32" fill="none" xmlns="http://www.w3.org/2000/svg">
<path d="M12.567 27.6987V20.8687C14.3609 20.8692 16.1405 21.188 17.823 21.8103C18.1119 21.9069 18.4233 21.9144 18.7165 21.8317C19.0098 21.749 19.2714 21.5799 19.4672 21.3465C21.9196 18.4304 22.3833 14.7906 22.0179 11.1226C21.9973 10.8093 21.8808 10.51 21.6844 10.2651C21.4879 10.0201 21.221 9.84149 20.9196 9.75331C20.6183 9.66514 20.2972 9.67168 19.9997 9.77206C19.7022 9.87244 19.4427 10.0618 19.2564 10.3145C16.783 13.1252 12.9324 13.069 9.62982 13.0128L9.50334 18.4585C5.82134 20.0536 5.00624 24.0799 5.0484 27.6987H8.098C8.06286 25.0004 8.57581 23.1945 9.50334 22.1476V27.7127H12.5459L12.567 27.6987ZM13.3751 24.888L23.1633 27.7408L28.0469 10.7783L25.1027 9.94215L21.0693 23.9323L14.2253 21.9367L13.3751 24.8669V24.888ZM20.3175 3.10512C19.7591 2.95139 19.1677 2.96656 18.618 3.14873C18.0683 3.33091 17.5848 3.67193 17.2288 4.12868C16.8727 4.58542 16.66 5.13744 16.6174 5.71501C16.5749 6.29258 16.7045 6.8698 16.9898 7.37378C17.2751 7.87775 17.7034 8.28586 18.2205 8.54658C18.7377 8.80731 19.3205 8.90894 19.8953 8.83865C20.4702 8.76836 21.0113 8.52931 21.4504 8.15167C21.8894 7.77403 22.2067 7.27473 22.3622 6.71686C22.4658 6.34545 22.495 5.95727 22.4482 5.57455C22.4014 5.19183 22.2795 4.8221 22.0895 4.48657C21.8996 4.15104 21.6453 3.85631 21.3412 3.61926C21.0371 3.3822 20.6892 3.20746 20.3175 3.10512V3.10512ZM12.5881 17.8612V16.1186C15.6307 15.8867 17.0571 15.6689 19.0316 14.636C18.9218 16.0488 18.4813 17.416 17.7457 18.6272C16.0766 18.106 14.3366 17.8476 12.5881 17.8612V17.8612Z" fill="#00B4FF"/>
</svg>
