<svg xmlns="http://www.w3.org/2000/svg" width="28" height="28" fill="none"><path fill="currentColor" d="M11.589 10.545h3.923v8.89h1.475v2.339H11.23v-2.34h1.475V12.92h-1.871l.756-2.375ZM0 14c0 7.738 6.262 14 14 14s14-6.262 14-14S21.738 0 14 0 0 6.262 0 14Zm2.807 0C2.807 7.81 7.81 2.807 14 2.807c6.19 0 11.193 5.003 11.193 11.193 0 6.19-5.003 11.193-11.193 11.193A11.182 11.182 0 0 1 2.807 14ZM12.2 7.414c0 1.044.828 1.871 1.872 1.871s1.907-.827 1.907-1.871a1.92 1.92 0 0 0-1.907-1.908c-1.044 0-1.871.864-1.871 1.908Z"/></svg>