<svg width="256" height="256" viewBox="0 0 256 256" fill="none" xmlns="http://www.w3.org/2000/svg">
    <g opacity="0.4">
        <path d="M210.346 172.902C207.691 172.902 205.489 175.104 205.489 177.759C205.489 180.415 207.691 182.552 210.346 182.552C213.001 182.552 215.203 180.415 215.203 177.759C215.203 175.104 213.001 172.902 210.346 172.902ZM209.504 223.675V206.125H211.641C212.03 212.73 213.519 218.04 216.628 223.998L220.902 221.473C217.275 214.997 216.304 207.614 216.304 201.073V191.294C218.635 192.913 219.542 195.374 219.542 198.418C219.542 199.713 219.348 201.073 219.088 202.563L223.168 203.405C223.751 201.462 223.945 199.584 223.945 197.77C223.945 190.064 218.894 184.43 210.475 184.43C205.813 184.43 202.575 186.826 200.049 186.826C198.56 186.826 197.265 185.984 196.099 183.199L191.695 185.336C193.25 189.416 196.552 191.812 200.503 191.812C201.798 191.812 203.158 191.553 204.518 191.035V223.675H209.504Z" fill="currentColor"/>
        <path d="M172.938 167.107C172.938 162.077 177.015 158 182.044 158H188.115C193.145 158 197.222 162.077 197.222 167.107V176.214H182.044C177.015 176.214 172.938 172.137 172.938 167.107V167.107Z" fill="currentColor"/>
        <path d="M182.81 164.913L182.555 168.677H181.511L181.256 164.913V162.606H182.81V164.913ZM181.171 170.365C181.171 169.891 181.56 169.503 182.033 169.503C182.507 169.503 182.895 169.891 182.895 170.365C182.895 170.838 182.507 171.227 182.033 171.227C181.56 171.227 181.171 170.838 181.171 170.365ZM187.549 164.621C187.549 164.111 187.185 163.856 186.687 163.856C186.116 163.856 185.618 164.026 185.108 164.33L184.416 163.152C185.133 162.727 185.849 162.484 186.687 162.484C188.217 162.484 189.055 163.261 189.055 164.573C189.055 166.224 187.233 167.208 187.233 168.434V168.677H185.946V168.434C185.946 166.965 187.549 165.981 187.549 164.621ZM185.728 170.365C185.728 169.891 186.116 169.503 186.59 169.503C187.063 169.503 187.452 169.891 187.452 170.365C187.452 170.838 187.063 171.227 186.59 171.227C186.116 171.227 185.728 170.838 185.728 170.365Z" fill="currentColor"/>
    </g>
</svg>