<svg width="33" height="32" viewBox="0 0 33 32" fill="none" xmlns="http://www.w3.org/2000/svg">
<path d="M19.6706 17.5023C19.2625 19.0681 18.445 20.4972 17.3019 21.6425C16.1967 22.7455 14.802 23.5132 13.279 23.8569C11.756 24.2007 10.1667 24.1065 8.69498 23.5852C7.22323 23.0639 5.92901 22.1368 4.96189 20.9111C3.99478 19.6853 3.39425 18.2109 3.22968 16.6582C3.06512 15.1056 3.34325 13.5381 4.03193 12.1368C4.72061 10.7355 5.79174 9.55776 7.12152 8.73954C8.4513 7.92132 9.98547 7.49606 11.5467 7.51293C13.108 7.5298 14.6326 7.9881 15.9444 8.83485L14.3697 11.2986C13.509 10.7406 12.5041 10.4458 11.4783 10.4502C10.6001 10.4502 9.73543 10.6668 8.96086 11.0807C8.18629 11.4946 7.52575 12.0931 7.03767 12.8233C6.5496 13.5534 6.24907 14.3926 6.1627 15.2665C6.07633 16.1405 6.20678 17.0223 6.5425 17.8338C6.87822 18.6453 7.40886 19.3616 8.08742 19.9191C8.76599 20.4766 9.57153 20.8582 10.4328 21.0301C11.294 21.2021 12.1843 21.159 13.025 20.9047C13.8656 20.6504 14.6305 20.1928 15.2521 19.5724C15.8055 19.027 16.2304 18.365 16.4957 17.6347C16.7611 16.9044 16.8603 16.1241 16.786 15.3507C20.6412 14.6244 21.8358 13.362 22.2159 9.54073C22.2107 9.2594 22.2826 8.98202 22.4239 8.73867C22.5651 8.49532 22.7703 8.29531 23.0172 8.16032C23.2641 8.02534 23.5433 7.96054 23.8244 7.97296C24.1055 7.98538 24.3778 8.07455 24.6118 8.23078C31.4331 13.5588 30.6865 21.5611 28.6028 28.9932H25.6774C27.2249 23.7262 28.4738 16.9253 24.6661 12.31C23.8991 15.0249 22.277 16.776 19.7182 17.5023H19.6706ZM20.7091 2.00001C21.2696 2.00269 21.8168 2.17136 22.2816 2.48473C22.7464 2.7981 23.1079 3.24213 23.3205 3.76077C23.5332 4.27941 23.5875 4.84943 23.4765 5.39888C23.3655 5.94833 23.0942 6.45257 22.6969 6.84799C22.2996 7.24341 21.794 7.51227 21.244 7.62065C20.6941 7.72902 20.1243 7.67206 19.6067 7.45693C19.0891 7.2418 18.6468 6.87817 18.3356 6.4119C18.0245 5.94564 17.8584 5.39766 17.8584 4.83712C17.8593 4.46365 17.9338 4.09401 18.0775 3.74932C18.2212 3.40462 18.4315 3.09162 18.6962 2.82817C18.9609 2.56472 19.2749 2.35598 19.6203 2.21388C19.9656 2.07179 20.3356 1.99912 20.7091 2.00001V2.00001ZM26.4376 20.2715C24.2628 22.6918 22.9315 25.7521 22.6435 28.9932H19.6978C20.0045 25.0638 21.5844 21.3417 24.1978 18.3914L26.4376 20.2715V20.2715ZM7.053 25.0905C7.43961 25.0905 7.81754 25.2051 8.139 25.4199C8.46046 25.6347 8.711 25.94 8.85895 26.2972C9.0069 26.6544 9.04561 27.0474 8.97018 27.4266C8.89476 27.8058 8.7086 28.1541 8.43522 28.4275C8.16184 28.7008 7.81354 28.887 7.43435 28.9624C7.05517 29.0379 6.66213 28.9991 6.30494 28.8512C5.94776 28.7032 5.64248 28.4527 5.42769 28.1312C5.2129 27.8098 5.09825 27.4319 5.09825 27.0452C5.09735 26.7883 5.14729 26.5337 5.24521 26.2961C5.34313 26.0586 5.48708 25.8427 5.66877 25.661C5.85047 25.4793 6.06632 25.3354 6.30388 25.2375C6.54145 25.1395 6.79605 25.0896 7.053 25.0905V25.0905ZM15.8358 25.0905C16.2224 25.0905 16.6003 25.2051 16.9218 25.4199C17.2433 25.6347 17.4938 25.94 17.6418 26.2972C17.7897 26.6544 17.8284 27.0474 17.753 27.4266C17.6776 27.8058 17.4914 28.1541 17.218 28.4275C16.9446 28.7008 16.5963 28.887 16.2172 28.9624C15.838 29.0379 15.4449 28.9991 15.0877 28.8512C14.7306 28.7032 14.4253 28.4527 14.2105 28.1312C13.9957 27.8098 13.8811 27.4319 13.8811 27.0452C13.8811 26.5268 14.087 26.0296 14.4536 25.663C14.8202 25.2964 15.3174 25.0905 15.8358 25.0905V25.0905Z" fill="#FF640F"/>
</svg>
