<svg width="33" height="32" viewBox="0 0 33 32" fill="none" xmlns="http://www.w3.org/2000/svg">
<path d="M19.6745 17.5023C19.2664 19.0681 18.4489 20.4972 17.3058 21.6425C16.2006 22.7455 14.8059 23.5132 13.2829 23.8569C11.7599 24.2007 10.1706 24.1065 8.69889 23.5852C7.22713 23.0639 5.93291 22.1368 4.9658 20.9111C3.99868 19.6853 3.39815 18.2109 3.23359 16.6582C3.06903 15.1056 3.34715 13.5381 4.03583 12.1368C4.72452 10.7355 5.79564 9.55776 7.12543 8.73954C8.45521 7.92132 9.98938 7.49606 11.5506 7.51293C13.1119 7.5298 14.6365 7.9881 15.9483 8.83485L14.3736 11.2986C13.5129 10.7407 12.508 10.4458 11.4822 10.4502C10.604 10.4502 9.73933 10.6668 8.96477 11.0807C8.1902 11.4946 7.52965 12.0931 7.04158 12.8233C6.55351 13.5534 6.25298 14.3926 6.16661 15.2665C6.08024 16.1405 6.21069 17.0223 6.54641 17.8338C6.88213 18.6453 7.41277 19.3616 8.09133 19.9191C8.76989 20.4766 9.57544 20.8582 10.4367 21.0301C11.2979 21.2021 12.1882 21.159 13.0289 20.9047C13.8695 20.6504 14.6344 20.1928 15.256 19.5724C15.8094 19.027 16.2343 18.365 16.4996 17.6347C16.765 16.9044 16.8642 16.1241 16.7899 15.3507C20.6451 14.6244 21.8397 13.362 22.2198 9.54073C22.2146 9.2594 22.2865 8.98202 22.4278 8.73867C22.569 8.49532 22.7742 8.29531 23.0211 8.16032C23.268 8.02534 23.5472 7.96054 23.8283 7.97296C24.1094 7.98538 24.3817 8.07455 24.6157 8.23078C31.437 13.5588 30.6904 21.5611 28.6067 28.9932H25.6813C27.2288 23.7262 28.4777 16.9253 24.67 12.31C23.903 15.0249 22.2809 16.776 19.7221 17.5023H19.6745ZM20.713 2.00001C21.2735 2.00269 21.8207 2.17136 22.2855 2.48473C22.7503 2.7981 23.1118 3.24213 23.3245 3.76077C23.5371 4.27941 23.5914 4.84943 23.4804 5.39888C23.3694 5.94833 23.0981 6.45257 22.7008 6.84799C22.3035 7.24341 21.7979 7.51227 21.2479 7.62065C20.698 7.72902 20.1282 7.67206 19.6106 7.45693C19.093 7.2418 18.6507 6.87817 18.3395 6.4119C18.0284 5.94564 17.8623 5.39766 17.8623 4.83712C17.8632 4.46365 17.9377 4.09401 18.0814 3.74932C18.2251 3.40462 18.4354 3.09162 18.7001 2.82817C18.9648 2.56472 19.2788 2.35598 19.6242 2.21388C19.9695 2.07179 20.3395 1.99912 20.713 2.00001ZM26.4415 20.2715C24.2667 22.6918 22.9354 25.7521 22.6474 28.9932H19.7017C20.0085 25.0638 21.5883 21.3417 24.2017 18.3914L26.4415 20.2715ZM7.05691 25.0905C7.44352 25.0905 7.82145 25.2051 8.1429 25.4199C8.46436 25.6347 8.71491 25.94 8.86286 26.2972C9.01081 26.6544 9.04951 27.0474 8.97409 27.4266C8.89866 27.8058 8.7125 28.1541 8.43913 28.4275C8.16575 28.7008 7.81744 28.887 7.43826 28.9624C7.05908 29.0379 6.66603 28.9991 6.30885 28.8512C5.95166 28.7032 5.64639 28.4527 5.4316 28.1312C5.21681 27.8098 5.10215 27.4319 5.10215 27.0452C5.10126 26.7883 5.1512 26.5337 5.24911 26.2961C5.34703 26.0586 5.49099 25.8427 5.67268 25.661C5.85437 25.4793 6.07023 25.3354 6.30779 25.2375C6.54536 25.1395 6.79995 25.0896 7.05691 25.0905ZM15.8397 25.0905C16.2263 25.0905 16.6042 25.2051 16.9257 25.4199C17.2472 25.6347 17.4977 25.94 17.6457 26.2972C17.7936 26.6544 17.8323 27.0474 17.7569 27.4266C17.6815 27.8058 17.4953 28.1541 17.2219 28.4275C16.9486 28.7008 16.6002 28.887 16.2211 28.9624C15.8419 29.0379 15.4488 28.9991 15.0917 28.8512C14.7345 28.7032 14.4292 28.4527 14.2144 28.1312C13.9996 27.8098 13.885 27.4319 13.885 27.0452C13.885 26.5268 14.0909 26.0296 14.4575 25.663C14.8241 25.2964 15.3213 25.0905 15.8397 25.0905Z" fill="#00B400"/>
</svg>
