<svg width="119" height="37" viewBox="0 0 119 37" fill="none" xmlns="http://www.w3.org/2000/svg">
    <path d="M19.7715 5V25.3108L6.08162 11.6209C5.38907 10.9284 5 9.98908 5 9.00967V8.69287C5 6.65336 6.65336 5 8.69287 5H12.3857H19.7715H99.1683H108.4C111.46 5 113.94 7.48004 113.94 10.5393V25.3108L100.25 11.6209C99.5573 10.9284 99.1683 9.98908 99.1683 9.00967V5H19.7715Z" fill="#141D34"/>
    <path d="M19.7715 5V25.3108L6.08162 11.6209C5.38907 10.9284 5 9.98908 5 9.00967V8.69287C5 6.65336 6.65336 5 8.69287 5H12.3857H19.7715ZM19.7715 5H99.1683M99.1683 5V9.00967C99.1683 9.98908 99.5573 10.9284 100.25 11.6209L113.94 25.3108V10.5393C113.94 7.48004 111.46 5 108.4 5H99.1683Z" stroke="#141D34" stroke-width="9.23218"/>
</svg>
