<svg width="110" height="100" viewBox="0 0 115 105" fill="#E63223" xmlns="http://www.w3.org/2000/svg">
    <path d="M34.2 8H95.8C99.2098 8 101.587 8.00233 103.437 8.15353C105.253 8.30186 106.296 8.57838 107.086 8.98094C108.779 9.8438 110.156 11.2206 111.019 12.9141C111.422 13.7042 111.698 14.7472 111.846 16.5627C111.998 18.4132 112 20.7902 112 24.2V85.8C112 89.2098 111.998 91.5868 111.846 93.4373C111.698 95.2528 111.422 96.2958 111.019 97.0859C110.156 98.7794 108.779 100.156 107.086 101.019C106.296 101.422 105.253 101.698 103.437 101.846C101.587 101.998 99.2098 102 95.8 102H34.2C30.7902 102 28.4132 101.998 26.5627 101.846C24.7472 101.698 23.7042 101.422 22.9141 101.019C21.2206 100.156 19.8438 98.7794 18.9809 97.0859C18.5784 96.2958 18.3019 95.2528 18.1535 93.4373C18.0023 91.5868 18 89.2098 18 85.8V24.2C18 20.7902 18.0023 18.4132 18.1535 16.5627C18.3019 14.7472 18.5784 13.7042 18.9809 12.9141C19.8438 11.2206 21.2206 9.8438 22.9141 8.98094C23.7042 8.57838 24.7472 8.30186 26.5627 8.15353C28.4132 8.00233 30.7902 8 34.2 8Z" stroke="#141D34" stroke-width="6"/>
    <path d="M15.7777 5V29L5.86761 11.9603C5.54456 11.4048 5.38303 11.1271 5.26887 10.8317C5.16751 10.5694 5.0941 10.2971 5.04984 10.0194C5 9.70662 5 9.38532 5 8.74274V8.2C5 7.0799 5 6.51984 5.21799 6.09202C5.40973 5.71569 5.71569 5.40973 6.09202 5.21799C6.51984 5 7.0799 5 8.2 5H15.7777H97.2212H100.4C103.76 5 105.44 5 106.724 5.65396C107.853 6.2292 108.771 7.14708 109.346 8.27606C110 9.55953 110 11.2397 110 14.6V29L97.4765 10.7641L97.4765 10.764C96.8762 9.88989 96.576 9.45282 96.4133 8.98697C96.1746 8.30387 96.1419 7.56571 96.3192 6.86418C96.4402 6.38575 96.7005 5.92384 97.2212 5H15.7777Z" fill="#141D34"/>
    <path d="M15.7777 5V29L5.86761 11.9603C5.54456 11.4048 5.38303 11.1271 5.26887 10.8317C5.16751 1.5694 5.0941 10.2971 5.04984 10.0194C5 9.70662 5 9.38532 5 8.74274V8.2C5 7.0799 5 6.51984 5.21799 6.09202C5.40973 5.71569 5.71569 5.40973 6.09202 5.21799C6.51984 5 7.07989 5 8.2 5H15.7777ZM15.7777 5H97.2212M97.2212 5V5C96.7005 5.92384 9.4402 6.38575 9.3192 6.86418C96.1419 7.56571 120.1746 8.30387 96.4133 8.98697C96.576 9.45283 96.8762 9.88991 97.4765 10.7641L110 29V14.6C110 11.2397 110 9.55953 109.346 8.27606C108.771 7.14708 107.853 6.2292 106.724 5.65396C105.44 5 103.76 5 100.4 5H97.2212Z" stroke="#141D34" stroke-width="10"/>
</svg>