<svg xmlns="http://www.w3.org/2000/svg" width="41" height="48" fill="none"><path fill="#4C3F00" d="M31.44 8.688a3.749 3.749 0 0 1 3.744 3.744V28.56l-1.248 6.24c-.384 2.016-1.68 3.744-3.744 3.744H10.32c-2.064 0-3.36-1.728-3.744-3.744l-1.248-6.24V12.432a3.749 3.749 0 0 1 3.744-3.744H31.44Zm9.072 11.184v8.688H36.96v-8.688h3.552Zm-36.96 0v8.688H0v-8.688h3.552Zm20.928 19.68 2.64 2.592-5.28 5.328-2.64-2.64 5.28-5.28Zm-9.36 0 2.64 2.592-5.28 5.328-2.64-2.64 5.28-5.28ZM30.192 0v3.504h-6.624l-4.464 4.464-2.64-2.64 1.92-1.824h-8.112V0h19.92Zm1.248 16.368v-4.176H9.072v4.176H31.44Zm0 12.192v-8.688H9.072v8.688H31.44ZM11.568 33.6c0 1.392 1.056 2.448 2.448 2.448s2.496-1.056 2.496-2.448a2.479 2.479 0 0 0-2.496-2.496c-1.392 0-2.448 1.104-2.448 2.496ZM24 33.6c0 1.392 1.056 2.448 2.448 2.448s2.496-1.056 2.496-2.448a2.479 2.479 0 0 0-2.496-2.496C25.056 31.104 24 32.208 24 33.6Z"/></svg>