<svg width="26" height="26" viewBox="0 0 26 26" fill="none" xmlns="http://www.w3.org/2000/svg">
<rect x="0.5" y="0.5" width="25" height="25" rx="12.5" fill="white"/>
<path fill-rule="evenodd" clip-rule="evenodd" d="M8.95156 7.58796H17.0155C17.1923 7.58755 17.3674 7.62197 17.5309 7.68924C17.6943 7.75651 17.843 7.85532 17.9682 7.98002C18.0935 8.10473 18.193 8.25289 18.261 8.41604C18.3291 8.5792 18.3643 8.75416 18.3647 8.93092V14.7587L17.9181 17.0011C17.7723 17.7268 17.3133 18.344 16.572 18.344H9.40128C8.66002 18.344 8.20099 17.7237 8.05522 17.0011L7.6086 14.7587V8.93092C7.60942 8.575 7.75118 8.23389 8.00285 7.98221C8.25453 7.73054 8.59564 7.58878 8.95156 7.58796ZM19.0222 11.6199H20.3124V14.7587H19.0222V11.6199ZM5.64844 11.6199H6.93867V14.7587H5.64844V11.6199ZM12.599 20.6144L14.5002 18.7131L15.4493 19.6622L13.5604 21.5448L12.6114 20.6144H12.599ZM9.2276 20.6144L11.1319 18.7131L12.081 19.6622L10.1922 21.5448L9.24 20.6144H9.2276ZM9.38887 4.46163H16.5596V5.72705H14.1683L12.5586 7.33674L11.6065 6.38767L12.2795 5.72705H9.40128V4.44922L9.38887 4.46163ZM15.229 15.6519C15.4062 15.6519 15.5794 15.7044 15.7267 15.8028C15.874 15.9011 15.9889 16.0409 16.0569 16.2045C16.1248 16.3681 16.1427 16.5482 16.1084 16.722C16.074 16.8958 15.989 17.0555 15.8639 17.181C15.7389 17.3065 15.5795 17.3921 15.4058 17.427C15.2321 17.4619 15.052 17.4446 14.8882 17.3773C14.7243 17.3099 14.5841 17.1955 14.4853 17.0485C14.3864 16.9015 14.3333 16.7285 14.3327 16.5514C14.3335 16.3139 14.4282 16.0864 14.5961 15.9185C14.7641 15.7505 14.9916 15.6558 15.229 15.655V15.6519ZM10.7442 15.6519C10.9215 15.6519 11.0948 15.7045 11.2422 15.803C11.3896 15.9015 11.5045 16.0415 11.5724 16.2053C11.6402 16.369 11.6579 16.5493 11.6234 16.7231C11.5888 16.897 11.5034 17.0567 11.3781 17.1821C11.2527 17.3074 11.093 17.3928 10.9191 17.4274C10.7452 17.462 10.565 17.4442 10.4012 17.3764C10.2374 17.3085 10.0974 17.1936 9.99896 17.0462C9.90047 16.8988 9.8479 16.7255 9.8479 16.5483C9.8479 16.3105 9.94234 16.0826 10.1104 15.9145C10.2785 15.7464 10.5065 15.6519 10.7442 15.6519ZM8.95156 8.8906H17.0155V10.3483H8.95156V8.8906ZM8.95156 11.6634H17.0155V14.7649H8.95156V11.6634Z" fill="#9BAAC3"/>
<rect x="0.5" y="0.5" width="25" height="25" rx="12.5" stroke="#E6E4E0"/>
</svg>
