<svg width="24" height="27" viewBox="0 0 24 27" fill="none" xmlns="http://www.w3.org/2000/svg">
<path fill-rule="evenodd" clip-rule="evenodd" d="M6.6545 5.99089H18.203C18.7129 5.99237 19.2015 6.1956 19.5621 6.55617C19.9227 6.91675 20.1259 7.40537 20.1274 7.9153V16.2557L19.4858 19.4638C19.2782 20.5016 18.6196 21.3882 17.5613 21.3882H7.29616C6.23788 21.3882 5.57922 20.5017 5.37161 19.4638L4.73006 16.2557V7.91533C4.73152 7.40539 4.93474 6.91675 5.29532 6.55617C5.6559 6.19559 6.14456 5.99234 6.6545 5.99089ZM21.0656 11.7648H22.912V16.2557H21.0656V11.7648ZM1.94531 11.7648H3.79196V16.2557H1.94531V11.7648ZM11.8897 24.6188L14.6117 21.8968L15.9726 23.2576L13.2506 25.9796L11.8897 24.6188ZM7.06774 24.6188L9.78961 21.8968L11.1506 23.2576L8.42872 25.9796L7.06774 24.6188ZM7.29629 1.5H17.5612V3.31548H14.1373L11.8321 5.62069L10.4713 4.25989L11.4156 3.31548H7.29629V1.5ZM15.6365 17.5388C15.8903 17.5388 16.1384 17.6141 16.3494 17.7551C16.5604 17.896 16.7249 18.0964 16.822 18.3309C16.9191 18.5653 16.9445 18.8233 16.895 19.0722C16.8455 19.3211 16.7233 19.5497 16.5439 19.7292C16.3645 19.9086 16.1359 20.0309 15.887 20.0804C15.6381 20.1299 15.3801 20.1045 15.1456 20.0074C14.9112 19.9103 14.7108 19.7458 14.5698 19.5348C14.4288 19.3238 14.3535 19.0758 14.3535 18.822C14.3535 18.4817 14.4886 18.1553 14.7293 17.9147C14.9699 17.6741 15.2962 17.5389 15.6365 17.5388ZM9.22083 17.5388C9.4746 17.5389 9.72266 17.6141 9.93366 17.7551C10.1447 17.8961 10.3091 18.0965 10.4062 18.3309C10.5033 18.5654 10.5287 18.8234 10.4792 19.0723C10.4297 19.3212 10.3075 19.5498 10.1281 19.7292C9.94863 19.9087 9.72001 20.0309 9.47112 20.0804C9.22223 20.1299 8.96425 20.1045 8.72979 20.0074C8.49534 19.9103 8.29495 19.7458 8.15395 19.5348C8.01296 19.3238 7.9377 19.0758 7.93769 18.822C7.9377 18.4817 8.07288 18.1553 8.31351 17.9147C8.55414 17.6741 8.88052 17.5389 9.22083 17.5388ZM6.65449 7.86096H18.203V9.94924H6.6545L6.65449 7.86096ZM6.65449 11.829H18.203V16.2557H6.6545L6.65449 11.829Z" fill="white"/>
</svg>
