<svg width="25" height="24" viewBox="0 0 25 24" fill="none" xmlns="http://www.w3.org/2000/svg"><path fill-rule="evenodd" clip-rule="evenodd" d="M6.635 4.783h10.752a1.794 1.794 0 0 1 1.799 1.79v7.77l-.596 2.99c-.194.968-.806 1.791-1.795 1.791h-9.56c-.99 0-1.601-.827-1.795-1.79l-.596-2.99v-7.77a1.795 1.795 0 0 1 1.79-1.791Zm13.427 5.376h1.72v4.185h-1.72v-4.185Zm-17.832 0h1.72v4.185H2.23v-4.185Zm9.268 11.992 2.535-2.535 1.265 1.266-2.518 2.51-1.266-1.24h-.016Zm-4.495 0 2.539-2.535 1.265 1.266-2.518 2.51-1.27-1.24h-.016ZM7.218.614h9.56v1.687H13.59l-2.146 2.147-1.27-1.266.898-.88H7.234V.597l-.016.016Zm7.787 14.92a1.196 1.196 0 1 1-1.196 1.2 1.2 1.2 0 0 1 1.196-1.195v-.004Zm-5.98 0a1.195 1.195 0 1 1 0 2.391 1.195 1.195 0 0 1 0-2.39ZM6.635 6.52h10.752v1.944H6.635V6.52Zm0 3.697h10.752v4.136H6.635v-4.136Z" fill="#FF640F"/></svg>