<svg width="25" height="27" viewBox="0 0 25 27" fill="none" xmlns="http://www.w3.org/2000/svg">
<path fill-rule="evenodd" clip-rule="evenodd" d="M5.70919 5.49089H17.2577C17.7676 5.49237 18.2562 5.6956 18.6168 6.05617C18.9774 6.41675 19.1806 6.90537 19.1821 7.4153V15.7557L18.5404 18.9638C18.3329 20.0016 17.6743 20.8882 16.616 20.8882H6.35084C5.29257 20.8882 4.63391 20.0017 4.42629 18.9638L3.78475 15.7557V7.41533C3.78621 6.90539 3.98942 6.41675 4.35001 6.05617C4.71059 5.69559 5.19925 5.49234 5.70919 5.49089ZM20.1203 11.2648H21.9667V15.7557H20.1203V11.2648ZM1 11.2648H2.84665V15.7557H1V11.2648ZM10.9444 24.1188L13.6664 21.3968L15.0273 22.7576L12.3053 25.4796L10.9444 24.1188ZM6.12243 24.1188L8.8443 21.3968L10.2052 22.7576L7.48341 25.4796L6.12243 24.1188ZM6.35098 1H16.6159V2.81548H13.192L10.8868 5.12069L9.52598 3.75989L10.4703 2.81548H6.35098V1ZM14.6912 17.0388C14.945 17.0388 15.1931 17.1141 15.4041 17.2551C15.6151 17.396 15.7795 17.5964 15.8767 17.8309C15.9738 18.0653 15.9992 18.3233 15.9497 18.5722C15.9002 18.8211 15.778 19.0497 15.5986 19.2292C15.4192 19.4086 15.1905 19.5309 14.9416 19.5804C14.6928 19.6299 14.4348 19.6045 14.2003 19.5074C13.9658 19.4103 13.7654 19.2458 13.6244 19.0348C13.4834 18.8238 13.4082 18.5758 13.4082 18.322C13.4082 17.9817 13.5433 17.6553 13.7839 17.4147C14.0246 17.1741 14.3509 17.0389 14.6912 17.0388ZM8.27552 17.0388C8.52928 17.0389 8.77735 17.1141 8.98835 17.2551C9.19934 17.3961 9.3638 17.5965 9.4609 17.8309C9.55801 18.0654 9.58342 18.3234 9.53391 18.5723C9.4844 18.8212 9.3622 19.0498 9.18276 19.2292C9.00332 19.4087 8.7747 19.5309 8.52581 19.5804C8.27692 19.6299 8.01893 19.6045 7.78448 19.5074C7.55003 19.4103 7.34963 19.2458 7.20864 19.0348C7.06765 18.8238 6.99239 18.5758 6.99237 18.322C6.99238 17.9817 7.12757 17.6553 7.3682 17.4147C7.60883 17.1741 7.93521 17.0389 8.27552 17.0388ZM5.70918 7.36096H17.2577V9.44924H5.70919L5.70918 7.36096ZM5.70918 11.329H17.2577V15.7557H5.70919L5.70918 11.329Z" fill="white"/>
</svg>
