<svg width="62" height="62" viewBox="0 0 62 62" fill="none" xmlns="http://www.w3.org/2000/svg">
<path d="M31.0544 0.00258953C25.6268 -0.0677145 20.278 1.29466 15.5569 3.94992C10.8358 6.60518 6.9123 10.4577 4.18906 15.1122H45.8917V21.7895H1.27109C0.427307 24.6931 0.00103925 27.7003 0.00494598 30.722C-0.0686027 34.8029 0.678775 38.8575 2.2034 42.649C3.72802 46.4405 5.99934 49.8929 8.88478 52.8047C11.7702 55.7165 15.212 58.0293 19.009 59.6081C22.8061 61.1869 26.8824 62 31 62C35.1176 62 39.1939 61.1869 42.991 59.6081C46.788 58.0293 50.2298 55.7165 53.1152 52.8047C56.0007 49.8929 58.2719 46.4405 59.7966 42.649C61.3212 38.8575 62.0686 34.8029 61.9951 30.722C62.0522 26.6763 61.2912 22.6603 59.7571 18.9109C58.2231 15.1615 55.9469 11.7546 53.0631 8.89138C50.1792 6.02811 46.7459 3.76643 42.9659 2.23978C39.1859 0.713127 35.1358 -0.0475637 31.0544 0.00258953ZM45.8917 34.0655H23.1412C23.1412 34.0655 23.1412 34.7813 23.1412 35.6539C23.2104 38.9386 24.1996 39.6544 27.4539 39.6544H45.8917V46.3415H27.5528C19.1154 46.3415 15.4753 43.5764 15.4753 35.0264V27.3784H45.8917V34.0655Z" fill="#1D1D1B"/>
</svg>
