<svg width="26" height="26" viewBox="0 0 26 26" fill="none" xmlns="http://www.w3.org/2000/svg">
<rect x="0.5" y="0.5" width="25" height="25" rx="12.5" fill="white"/>
<path fill-rule="evenodd" clip-rule="evenodd" d="M19.4599 7.33975C19.8158 7.34057 20.157 7.48232 20.4086 7.734C20.6603 7.98567 20.8021 8.32678 20.8029 8.68271C20.8029 12.2588 20.8246 16.0364 20.8246 19.4419H19.0009V18.5456H16.124V14.9602H19.463V11.3717H16.124V10.1032H19.463V8.60827H15.124V7.33975H19.4599ZM19.5175 16.0076C19.3701 15.9091 19.1968 15.8565 19.0195 15.8565C18.7818 15.8565 18.5538 15.951 18.3857 16.1191C18.2176 16.2872 18.1232 16.5151 18.1232 16.7529C18.1232 16.9302 18.1757 17.1034 18.2742 17.2509C18.3727 17.3983 18.5127 17.5131 18.6765 17.581C18.8403 17.6488 19.0205 17.6666 19.1944 17.632C19.3682 17.5974 19.528 17.512 19.6533 17.3867C19.7787 17.2613 19.864 17.1016 19.8986 16.9277C19.9332 16.7539 19.9155 16.5736 19.8476 16.4099C19.7798 16.2461 19.6649 16.1061 19.5175 16.0076Z" fill="#00B4FF"/>
<path fill-rule="evenodd" clip-rule="evenodd" d="M22.7754 11.3717H21.4852V14.5105H22.7754V11.3717Z" fill="#00B4FF"/>
<path fill-rule="evenodd" clip-rule="evenodd" d="M12.75 5.89193L14.6543 4L15.6034 4.93046L13.7022 6.83169L12.75 5.88262V5.89193ZM16.1214 5.89193L18.0226 4L18.9717 4.93046L17.0704 6.83169L16.109 5.89193H16.1214Z" fill="#00B4FF"/>
<path d="M6.51901 7.08984L6.51844 7.08984C6.09768 7.0908 5.69432 7.25787 5.39611 7.55471C5.0979 7.85154 4.92896 8.25412 4.92605 8.67487H4.92605V8.6766C4.92605 10.4681 4.9307 12.3053 4.93535 14.1208L4.93552 14.1869C4.94012 15.98 4.94466 17.751 4.94466 19.4358V19.6858H5.19466H7.01525H7.26525V19.4358V18.7957H13.877V19.442V19.692H14.127H15.9476H16.1976V19.442C16.1976 17.7596 16.1931 15.9866 16.1885 14.1922L16.1883 14.1257C16.1837 12.3086 16.179 10.4705 16.179 8.6828L16.179 8.68166C16.1771 8.25944 16.0083 7.85513 15.7094 7.55692C15.4105 7.25871 15.0058 7.09081 14.5835 7.08984H14.583L6.51901 7.08984ZM3.25 11.1218H3V11.3718V14.5106V14.7606H3.25H4.54024H4.79024V14.5106V11.3718V11.1218H4.54024H3.25ZM6.97096 16.1066C7.0987 16.1071 7.22345 16.1454 7.32944 16.2166C7.43544 16.2879 7.51793 16.389 7.56651 16.5072C7.61508 16.6253 7.62756 16.7552 7.60237 16.8804C7.57718 17.0057 7.51545 17.1206 7.42497 17.2108C7.33449 17.301 7.21932 17.3623 7.094 17.387C6.96868 17.4118 6.83884 17.3989 6.72087 17.3499C6.6029 17.3009 6.50208 17.2181 6.43116 17.1118C6.36024 17.0056 6.32239 16.8807 6.32239 16.753C6.32239 16.6679 6.33918 16.5837 6.3718 16.5051C6.40442 16.4265 6.45223 16.3552 6.51249 16.2951C6.57274 16.2351 6.64426 16.1875 6.72293 16.1552C6.80161 16.1228 6.8859 16.1063 6.97096 16.1066ZM6.76901 8.85837H14.333V9.8533H6.76901V8.85837ZM6.76901 11.6218H14.333V14.7103H6.76901V11.6218ZM14.1395 16.1066C14.2673 16.1066 14.3922 16.1445 14.4985 16.2156C14.6048 16.2866 14.6877 16.3875 14.7366 16.5056C14.7855 16.6237 14.7983 16.7537 14.7734 16.8791C14.7484 17.0044 14.6869 17.1196 14.5965 17.21C14.5061 17.3004 14.3909 17.3619 14.2655 17.3869C14.1402 17.4118 14.0102 17.399 13.8921 17.3501C13.774 17.3012 13.6731 17.2183 13.602 17.1121C13.531 17.0058 13.4931 16.8808 13.4931 16.753C13.4931 16.5815 13.5612 16.4172 13.6824 16.2959C13.8036 16.1747 13.968 16.1066 14.1395 16.1066Z" fill="#00B400" stroke="white" stroke-width="0.5"/>
<rect x="0.5" y="0.5" width="25" height="25" rx="12.5" stroke="#E6E4E0"/>
</svg>
