<svg width="26" height="26" viewBox="0 0 26 26" fill="none" xmlns="http://www.w3.org/2000/svg">
<rect x="0.5" y="0.5" width="25" height="25" rx="12.5" fill="#00B4FF"/>
<path fill-rule="evenodd" clip-rule="evenodd" d="M19.4609 7.33984C19.8168 7.34066 20.1579 7.48242 20.4096 7.73409C20.6613 7.98577 20.803 8.32688 20.8039 8.6828C20.8039 12.2589 20.8256 16.0365 20.8256 19.442H19.0019V18.5457H16.125V14.9603H19.464V11.3718H16.125V10.1033H19.464V8.60837H15.125V7.33984H19.4609ZM19.5185 16.0077C19.3711 15.9092 19.1978 15.8566 19.0205 15.8566C18.7828 15.8566 18.5548 15.9511 18.3867 16.1192C18.2186 16.2873 18.1241 16.5152 18.1241 16.753C18.1241 16.9302 18.1767 17.1035 18.2752 17.2509C18.3737 17.3984 18.5137 17.5132 18.6775 17.5811C18.8413 17.6489 19.0215 17.6667 19.1953 17.6321C19.3692 17.5975 19.5289 17.5121 19.6543 17.3868C19.7796 17.2614 19.865 17.1017 19.8996 16.9278C19.9342 16.754 19.9164 16.5737 19.8486 16.41C19.7807 16.2462 19.6659 16.1062 19.5185 16.0077Z" fill="white"/>
<path fill-rule="evenodd" clip-rule="evenodd" d="M22.7764 11.3718H21.4862V14.5106H22.7764V11.3718Z" fill="white"/>
<path d="M6.51901 7.08984L6.51844 7.08984C6.09768 7.0908 5.69432 7.25787 5.39611 7.55471C5.0979 7.85154 4.92896 8.25412 4.92605 8.67487H4.92605V8.6766C4.92605 10.4681 4.9307 12.3053 4.93535 14.1208L4.93552 14.1869C4.94012 15.98 4.94466 17.751 4.94466 19.4358V19.6858H5.19466H7.01525H7.26525V19.4358V18.7957H13.877V19.442V19.692H14.127H15.9476H16.1976V19.442C16.1976 17.7596 16.1931 15.9866 16.1885 14.1922L16.1883 14.1257C16.1837 12.3086 16.179 10.4705 16.179 8.6828L16.179 8.68166C16.1771 8.25944 16.0083 7.85513 15.7094 7.55692C15.4105 7.25871 15.0058 7.09081 14.5835 7.08984H14.583H12.4158L12.4972 7.00847L14.3984 5.10723L14.577 4.9287L14.3967 4.75194L13.4476 3.82148L13.2713 3.64861L13.0962 3.82279L11.2682 5.64193H10.7455L11.1842 6.07071L12.1457 7.01047L12.2269 7.08984H9.04757L9.12895 7.00847L11.0302 5.10723L11.2087 4.9287L11.0284 4.75194L10.0794 3.82148L9.90317 3.64875L9.72814 3.82265L8.00496 5.53459L7.75 5.28046V5.88263V5.89193V6.4927L8.00439 6.23997L8.77568 7.00876L8.85704 7.08984L6.51901 7.08984ZM3.25 11.1218H3V11.3718V14.5106V14.7606H3.25H4.54024H4.79024V14.5106V11.3718V11.1218H4.54024H3.25ZM6.97096 16.1066C7.0987 16.1071 7.22345 16.1454 7.32944 16.2166C7.43544 16.2879 7.51793 16.389 7.56651 16.5072C7.61508 16.6253 7.62756 16.7552 7.60237 16.8804C7.57718 17.0057 7.51545 17.1206 7.42497 17.2108C7.33449 17.301 7.21932 17.3623 7.094 17.387C6.96868 17.4118 6.83884 17.3989 6.72087 17.3499C6.6029 17.3009 6.50208 17.2181 6.43116 17.1118C6.36024 17.0056 6.32239 16.8807 6.32239 16.753C6.32239 16.6679 6.33918 16.5837 6.3718 16.5051C6.40442 16.4265 6.45223 16.3552 6.51249 16.2951C6.57274 16.2351 6.64426 16.1875 6.72293 16.1552C6.80161 16.1228 6.8859 16.1063 6.97096 16.1066ZM6.76901 8.85837H14.333V9.8533H6.76901V8.85837ZM6.76901 11.6218H14.333V14.7103H6.76901V11.6218ZM14.1395 16.1066C14.2673 16.1066 14.3922 16.1445 14.4985 16.2156C14.6048 16.2866 14.6877 16.3875 14.7366 16.5056C14.7855 16.6237 14.7983 16.7537 14.7734 16.8791C14.7484 17.0044 14.6869 17.1196 14.5965 17.21C14.5061 17.3004 14.3909 17.3619 14.2655 17.3869C14.1402 17.4118 14.0102 17.399 13.8921 17.3501C13.774 17.3012 13.6731 17.2183 13.602 17.1121C13.531 17.0058 13.4931 16.8808 13.4931 16.753C13.4931 16.5815 13.5612 16.4172 13.6824 16.2959C13.8036 16.1747 13.968 16.1066 14.1395 16.1066Z" fill="white" stroke="#00B4FF" stroke-width="0.5"/>
<rect x="0.5" y="0.5" width="25" height="25" rx="12.5" stroke="#E6E4E0"/>
</svg>
