<svg width="24" height="27" viewBox="0 0 24 27" fill="none" xmlns="http://www.w3.org/2000/svg">
<path d="M11.7927 0.542969L9.06003 3.2756L10.4263 4.64192L13.159 1.90928L11.7927 0.542969ZM16.6369 0.542969L13.8794 3.2756L15.2706 4.64192L18.0032 1.90928L16.6369 0.542969ZM23.3691 10.8028H21.5308V15.2992H23.3691V10.8028ZM4.24066 10.8028H2.40234V15.2992H4.24066V10.8028ZM18.6739 8.98928H7.0975V6.82802H18.6739V8.98928ZM18.6739 15.9699H7.0975V10.8028H18.6739V15.9699ZM5.15982 6.95223V22.404H7.76824V21.1122H18.0032V22.404H20.6116V6.95223C20.6116 5.88402 19.7421 5.01455 18.6739 5.01455H7.0975C6.02929 5.01455 5.15982 5.88402 5.15982 6.95223ZM6.45161 18.5535C6.45161 17.8331 6.99813 17.2617 7.71855 17.2617C8.43897 17.2617 9.01034 17.8331 9.01034 18.5535C9.01034 19.2739 8.43897 19.8204 7.71855 19.8204C6.99813 19.8204 6.45161 19.2739 6.45161 18.5535ZM16.7611 18.5535C16.7611 17.8331 17.3076 17.2617 18.028 17.2617C18.7484 17.2617 19.3198 17.8331 19.3198 18.5535C19.3198 19.2739 18.7484 19.8204 18.028 19.8204C17.3076 19.8204 16.7611 19.2739 16.7611 18.5535Z" fill="white"/>
</svg>
