<svg xmlns="http://www.w3.org/2000/svg" width="41" height="43" fill="none"><path fill="#4C3F00" d="m18.144 0 2.64 2.64-5.28 5.28-2.64-2.64L18.144 0Zm9.36 0 2.64 2.64-5.28 5.28-2.688-2.64L27.504 0Zm13.008 19.824v8.688H36.96v-8.688h3.552Zm-36.96 0v8.688H0v-8.688h3.552ZM31.44 16.32v-4.176H9.072v4.176H31.44Zm0 13.488v-9.984H9.072v9.984H31.44ZM5.328 12.384A3.749 3.749 0 0 1 9.072 8.64H31.44a3.749 3.749 0 0 1 3.744 3.744V42.24h-5.04v-2.496H10.368v2.496h-5.04V12.384ZM7.824 34.8c0 1.392 1.056 2.448 2.448 2.448s2.496-1.056 2.496-2.448a2.479 2.479 0 0 0-2.496-2.496c-1.392 0-2.448 1.104-2.448 2.496Zm19.92 0c0 1.392 1.056 2.448 2.448 2.448s2.496-1.056 2.496-2.448a2.479 2.479 0 0 0-2.496-2.496c-1.392 0-2.448 1.104-2.448 2.496Z"/></svg>