<svg width="26" height="26" viewBox="0 0 26 26" fill="none" xmlns="http://www.w3.org/2000/svg">
<g clip-path="url(#clip0_4006_7595)">
<rect x="1" y="1" width="24" height="24" rx="12" fill="#00B4FF"/>
<path fill-rule="evenodd" clip-rule="evenodd" d="M8.92135 7.59009H16.9853C17.3412 7.59091 17.6823 7.73266 17.934 7.98434C18.1857 8.23601 18.3275 8.57713 18.3283 8.93305C18.3283 12.5091 18.35 16.2868 18.35 19.6922H16.5263V18.7959H9.42069V19.686H7.597C7.597 16.2744 7.57839 12.5091 7.57839 8.92684C7.58084 8.572 7.72331 8.23248 7.97481 7.98214C8.22631 7.7318 8.56649 7.5909 8.92135 7.59009ZM19.0106 11.6221H20.3008V14.7608H19.0106V11.6221ZM5.65234 11.6221H6.94257V14.7608H5.65234V11.6221ZM9.37417 16.1069C9.55145 16.1069 9.72475 16.1594 9.87215 16.2579C10.0196 16.3564 10.1344 16.4964 10.2023 16.6602C10.2701 16.824 10.2879 17.0042 10.2533 17.1781C10.2187 17.352 10.1333 17.5117 10.008 17.637C9.88262 17.7624 9.72291 17.8477 9.54904 17.8823C9.37517 17.9169 9.19494 17.8992 9.03116 17.8313C8.86737 17.7635 8.72738 17.6486 8.62889 17.5012C8.5304 17.3538 8.47783 17.1805 8.47783 17.0032C8.47783 16.7655 8.57226 16.5375 8.74036 16.3694C8.90846 16.2013 9.13645 16.1069 9.37417 16.1069ZM8.92445 8.85861H16.9884V10.3535H8.92445V8.85861ZM8.92445 11.6221H16.9884V15.2105H8.92445V11.6221ZM16.5449 16.1069C16.7222 16.1069 16.8955 16.1594 17.0429 16.2579C17.1903 16.3564 17.3052 16.4964 17.373 16.6602C17.4408 16.824 17.4586 17.0042 17.424 17.1781C17.3894 17.352 17.3041 17.5117 17.1787 17.637C17.0533 17.7624 16.8936 17.8477 16.7198 17.8823C16.5459 17.9169 16.3657 17.8992 16.2019 17.8313C16.0381 17.7635 15.8981 17.6486 15.7996 17.5012C15.7011 17.3538 15.6486 17.1805 15.6486 17.0032C15.6486 16.7655 15.743 16.5375 15.9111 16.3694C16.0792 16.2013 16.3072 16.1069 16.5449 16.1069Z" fill="white"/>
<path fill-rule="evenodd" clip-rule="evenodd" d="M10.2754 6.38021L12.1797 4.48828L13.1288 5.41874L11.2276 7.31997L10.2754 6.37091V6.38021ZM13.6467 6.38021L15.548 4.48828L16.497 5.41874L14.5958 7.31997L13.6343 6.38021H13.6467Z" fill="white"/>
</g>
<rect x="0.5" y="0.5" width="25" height="25" rx="12.5" stroke="#E6E4E0"/>
<defs>
<clipPath id="clip0_4006_7595">
<rect x="1" y="1" width="24" height="24" rx="12" fill="white"/>
</clipPath>
</defs>
</svg>
