<svg width="33" height="32" viewBox="0 0 33 32" fill="none" xmlns="http://www.w3.org/2000/svg">
<path d="M15.1117 19.5981C15.7029 19.4334 16.3297 19.4477 16.9129 19.6391C17.496 19.8305 18.0093 20.1904 18.3879 20.6734C18.7666 21.1565 18.9936 21.7408 19.0402 22.3528C19.0869 22.9648 18.9512 23.5768 18.6501 24.1117C18.3491 24.6465 17.8963 25.0801 17.3489 25.3577C16.8016 25.6353 16.1842 25.7445 15.5748 25.6714C14.9655 25.5983 14.3915 25.3462 13.9253 24.947C13.4591 24.5478 13.1217 24.0194 12.9557 23.4285C12.7347 22.6347 12.8376 21.7856 13.2417 21.0675C13.6459 20.3495 14.3184 19.821 15.1117 19.5981Z" fill="#00B4FF"/>
<path d="M7.81809 17.8949C8.64287 16.4683 9.82843 15.2838 11.2557 14.4604C12.683 13.6369 14.3019 13.2034 15.9497 13.2034C17.5975 13.2034 19.2164 13.6369 20.6437 14.4604C22.071 15.2838 23.2566 16.4683 24.0813 17.8949L21.3864 19.4472C20.8362 18.4919 20.044 17.6984 19.0895 17.1467C18.1351 16.595 17.0521 16.3045 15.9497 16.3045C14.8473 16.3045 13.7643 16.595 12.8099 17.1467C11.8555 17.6984 11.0633 18.4919 10.5131 19.4472L7.81809 17.8949Z" fill="#00B4FF"/>
<path d="M2.44922 14.7973C3.47198 13.0236 4.83428 11.469 6.45823 10.2222C8.08218 8.97541 9.93593 8.06091 11.9135 7.53097C13.8911 7.00103 15.9538 6.86606 17.9836 7.13376C20.0134 7.40146 21.9705 8.06657 23.7431 9.0911C26.1103 10.4628 28.0775 12.43 29.4492 14.7973L26.7686 16.3424C25.6746 14.4469 24.1006 12.8729 22.2051 11.7789C19.3398 10.1271 15.9361 9.67996 12.7414 10.5356C9.54662 11.3912 6.822 13.4796 5.16575 16.3424L2.47078 14.7973H2.44922Z" fill="#00B4FF"/>
</svg>
