<svg xmlns="http://www.w3.org/2000/svg" width="32" height="32" fill="none"><g clip-path="url(#a)"><rect width="32" height="32" fill="#000" rx="16"/><path fill="#000" d="M16 32c8.837 0 16-7.163 16-16 0-8.836-7.163-16-16-16C7.164 0 0 7.164 0 16c0 8.837 7.164 16 16 16Z"/><path fill="#00B400" d="M23.707 11.35H0V7.87h23.707v3.48Zm-11.782 6.39h11.782v-3.48H7.987v3.982c0 4.454 1.877 5.891 6.233 5.891h9.487v-3.482h-9.556c-1.678 0-2.188-.373-2.222-2.08-.01-.46-.004-.83-.004-.83Z"/></g><defs><clipPath id="a"><rect width="32" height="32" fill="#fff" rx="16"/></clipPath></defs></svg>