<svg width="32" height="32" viewBox="0 0 32 32" fill="none" xmlns="http://www.w3.org/2000/svg">
<g clip-path="url(#clip0_6731_18239)">
<rect width="32" height="32" rx="16" fill="black"/>
<path d="M-1.03223 7.74193H24.0344V11.4753H-1.03223V7.74193Z" fill="white"/>
<path fill-rule="evenodd" clip-rule="evenodd" d="M9.10125 13.8753H24.0344V17.6086H12.9003C12.9548 18.1077 13.0544 18.5769 13.2362 18.9901C13.4107 19.3866 13.6391 19.669 13.9508 19.8677C14.2683 20.07 14.8138 20.2753 15.7677 20.2753H24.0344V24.0086H15.7677C14.2683 24.0086 12.9871 23.6805 11.9445 23.0161C10.8963 22.3481 10.2313 21.4306 9.81907 20.4937C9.09065 18.8383 9.09712 16.9492 9.10061 15.9272C9.10084 15.8617 9.10105 15.7998 9.10106 15.7417L9.10125 13.8753Z" fill="white"/>
</g>
<defs>
<clipPath id="clip0_6731_18239">
<rect width="32" height="32" rx="16" fill="white"/>
</clipPath>
</defs>
</svg>
